<svg width="36" height="36" viewBox="0 0 36 36" fill="none" xmlns="http://www.w3.org/2000/svg">
<path d="M4.76777 1.23223C3.79146 0.255922 2.20854 0.255922 1.23223 1.23223C0.255922 2.20854 0.255922 3.79146 1.23223 4.76777L4.76777 1.23223ZM31.2322 34.7678C32.2085 35.7441 33.7915 35.7441 34.7678 34.7678C35.7441 33.7915 35.7441 32.2085 34.7678 31.2322L31.2322 34.7678ZM1.23223 31.2322C0.255922 32.2085 0.255922 33.7915 1.23223 34.7678C2.20854 35.7441 3.79146 35.7441 4.76777 34.7678L1.23223 31.2322ZM34.7678 4.76777C35.7441 3.79146 35.7441 2.20854 34.7678 1.23223C33.7915 0.255922 32.2085 0.255922 31.2322 1.23223L34.7678 4.76777ZM1.23223 4.76777L31.2322 34.7678L34.7678 31.2322L4.76777 1.23223L1.23223 4.76777ZM4.76777 34.7678L34.7678 4.76777L31.2322 1.23223L1.23223 31.2322L4.76777 34.7678Z" fill="#444444"/>
</svg>
