<svg width="270" height="300" viewBox="0 0 270 300" fill="none" xmlns="http://www.w3.org/2000/svg">
<circle cx="233" cy="141" r="33" stroke="#9E9E9E" stroke-width="4"/>
<rect x="216.471" y="146.388" width="12.4547" height="11.068" stroke="#9E9E9E"/>
<rect x="233.77" y="146.388" width="15.6582" height="11.068" stroke="#9E9E9E"/>
<path d="M233.77 125.428H249.428V140.942H233.77V125.428Z" stroke="#9E9E9E"/>
<rect x="215.971" y="126.198" width="1.27031" height="13.4547" rx="0.635156" transform="rotate(-90 215.971 126.198)" fill="#9E9E9E"/>
<rect x="215.971" y="130.009" width="1.27031" height="13.4547" rx="0.635156" transform="rotate(-90 215.971 130.009)" fill="#9E9E9E"/>
<rect x="215.971" y="133.82" width="1.27031" height="13.4547" rx="0.635156" transform="rotate(-90 215.971 133.82)" fill="#9E9E9E"/>
<rect x="215.971" y="137.631" width="1.27031" height="13.4547" rx="0.635155" transform="rotate(-90 215.971 137.631)" fill="#9E9E9E"/>
<rect x="215.971" y="141.442" width="1.27031" height="13.4547" rx="0.635155" transform="rotate(-90 215.971 141.442)" fill="#9E9E9E"/>
<rect x="213.268" y="122.252" width="39.3641" height="38.3797" stroke="#9E9E9E"/>
<circle cx="37" cy="142" r="33" stroke="#9E9E9E" stroke-width="4"/>
<path d="M59.7236 142.086C59.9223 142.281 59.9223 142.602 59.7236 142.798L49.7615 152.616C49.5668 152.807 49.2542 152.807 49.0595 152.616L47.1037 150.688C46.905 150.492 46.905 150.172 47.1037 149.976L54.3873 142.798C54.586 142.602 54.586 142.281 54.3873 142.086L47.1037 134.908C46.905 134.712 46.905 134.391 47.1037 134.195L49.0595 132.268C49.2542 132.076 49.5668 132.076 49.7615 132.268L59.7236 142.086ZM20.4959 142.086C20.2972 142.281 20.2972 142.602 20.4959 142.798L27.7795 149.976C27.9783 150.172 27.9783 150.492 27.7795 150.688L25.8237 152.616C25.6291 152.807 25.3165 152.807 25.1218 152.616L15.1597 142.798C14.961 142.602 14.961 142.281 15.1597 142.086L25.1217 132.268C25.3164 132.076 25.6291 132.076 25.8237 132.268L27.778 134.195C27.9765 134.391 27.9765 134.712 27.7779 134.907L20.4959 142.086ZM33.3884 158.851C33.3159 159.048 33.1287 159.178 32.9194 159.178H29.97C29.622 159.178 29.3804 158.831 29.501 158.505L41.4949 126.032C41.5674 125.836 41.7546 125.705 41.9639 125.705H44.9133C45.2613 125.705 45.5029 126.052 45.3823 126.379L33.3884 158.851Z" fill="#9E9E9E"/>
<path d="M192 142.5C192.828 142.5 193.5 141.828 193.5 141C193.5 140.172 192.828 139.5 192 139.5L192 142.5ZM77 141L92 149.66L92 132.34L77 141ZM89.7778 142.5L102.556 142.5L102.556 139.5L89.7778 139.5L89.7778 142.5ZM108.944 142.5L121.722 142.5L121.722 139.5L108.944 139.5L108.944 142.5ZM128.111 142.5L140.889 142.5L140.889 139.5L128.111 139.5L128.111 142.5ZM147.278 142.5L160.056 142.5L160.056 139.5L147.278 139.5L147.278 142.5ZM166.444 142.5L179.222 142.5L179.222 139.5L166.444 139.5L166.444 142.5ZM185.611 142.5L192 142.5L192 139.5L185.611 139.5L185.611 142.5Z" fill="#9E9E9E"/>
<circle cx="134.5" cy="264.5" r="33.5" stroke="#0047A3" stroke-width="4"/>
<path d="M150.351 264.791C150.074 264.791 149.851 265.015 149.851 265.291V273.479L142.056 264.968C141.962 264.865 141.828 264.806 141.688 264.805L132.668 264.791H132.668C132.086 264.791 131.483 264.208 131.483 263.308V263.301V263.295V263.287V263.28V263.273V263.265V263.257V263.248V263.24V263.231V263.222V263.213V263.203V263.193V263.183V263.173V263.163V263.152V263.141V263.13V263.118V263.107V263.095V263.082V263.07V263.058V263.045V263.032V263.018V263.005V262.991V262.977V262.963V262.949V262.934V262.919V262.904V262.889V262.873V262.858V262.842V262.826V262.809V262.793V262.776V262.759V262.742V262.724V262.707V262.689V262.671V262.653V262.635V262.616V262.597V262.578V262.559V262.54V262.52V262.5V262.48V262.46V262.44V262.419V262.399V262.378V262.357V262.335V262.314V262.292V262.27V262.248V262.226V262.204V262.181V262.158V262.136V262.112V262.089V262.066V262.042V262.018V261.995V261.97V261.946V261.922V261.897V261.872V261.847V261.822V261.797V261.772V261.746V261.72V261.694V261.668V261.642V261.616V261.589V261.563V261.536V261.509V261.482V261.455V261.427V261.4V261.372V261.344V261.316V261.288V261.26V261.231V261.203V261.174V261.145V261.116V261.087V261.058V261.029V260.999V260.97V260.94V260.91V260.88V260.85V260.82V260.789V260.759V260.728V260.698V260.667V260.636V260.605V260.574V260.542V260.511V260.479V260.448V260.416V260.384V260.352V260.32V260.288V260.255V260.223V260.19V260.158V260.125V260.092V260.059V260.026V259.993V259.96V259.927V259.893V259.86V259.826V259.793V259.759V259.725V259.691V259.657V259.623V259.589V259.555V259.52V259.486V259.451V259.417V259.382V259.347V259.312V259.277V259.242V259.207V259.172V259.137V259.102V259.066V259.031V258.996V258.96V258.924V258.889V258.853V258.817V258.781V258.745V258.709V258.673V258.637V258.601V258.565V258.529V258.492V258.456V258.42V258.383V258.347V258.31V258.274V258.237V258.2V258.164V258.127V258.09V258.053V258.016V257.979V257.942V257.905V257.868V257.831V257.794V257.757V257.72V257.683V257.645V257.608V257.571V257.534V257.496V257.459V257.422V257.384V257.347V257.309V257.272V257.234V257.197V257.16V257.122V257.085V257.047V257.009V256.972V256.934V256.897V256.859V256.822V256.784V256.746V256.709V256.671V256.634V256.596V256.559V256.521V256.483V256.446V256.408V256.371V256.333V256.296V256.258V256.221V256.183V256.146V256.108V256.071V256.033V255.996V255.958V255.921V255.884V255.846V255.809V255.772V255.734V255.697V255.66V255.623V255.586V255.548V255.511V255.474V255.437V255.4V255.363V255.326V255.289V255.253V255.216V255.179V255.142V255.106V255.069V255.032V254.996V254.959V254.923V254.886V254.85V254.814V254.778V254.741V254.705V254.669V254.633V254.597V254.561V254.525V254.49V254.454V254.418V254.383V254.347V254.312V254.276V254.241V254.206V254.17V254.135V254.1V254.065V254.03V253.995V253.961V253.926V253.891V253.857V253.822V253.788V253.754V253.72V253.685V253.651V253.617V253.584V253.55V253.516V253.483V253.449V253.416V253.382V253.349V253.316V253.283V253.25V253.217V253.185V253.152V253.12V253.087V253.055V253.023V252.991V252.959V252.927V252.895V252.863V252.832V252.8V252.769V252.738V252.707V252.676V252.645V252.614V252.584V252.553V252.523V252.492V252.462V252.432V252.403V252.373V252.343V252.314V252.284V252.255V252.226V252.197V252.168V252.14V252.111V252.083V252.054V252.026V251.998V251.971V251.943V251.915V251.888V251.861V251.834V251.807V251.78V251.753V251.727V251.7V251.674V251.648V251.622V251.596V251.571V251.545V251.52V251.495V251.47V251.445V251.421V251.396V251.372V251.348V251.324V251.3V251.277V251.253V251.23V251.207V251.184V251.161V251.139V251.116V251.094V251.072V251.05V251.029V251.007V250.986V250.965V250.944V250.923V250.903V250.882V250.862V250.842V250.822V250.803V250.783V250.764V250.745V250.726V250.708V250.689V250.671V250.653V250.635V250.618V250.6V250.583V250.566V250.55V250.533V250.517V250.501V250.485V250.469V250.453V250.438V250.423V250.408V250.394V250.379V250.365V250.351V250.337V250.324V250.311V250.298V250.285V250.272V250.26V250.248V250.236V250.224V250.213V250.201V250.19V250.18V250.169V250.159V250.149V250.139V250.129V250.12V250.111V250.102V250.094V250.085V250.077V250.07V250.062V250.055V250.048V250.041V250.034V250.028V250.022V250.016V250.011V250.005V250V249.996V249.991V249.987V249.983V249.979V249.976V249.973V249.97V249.967V249.965V249.963V249.961V249.959V249.958V249.957V249.956V249.956C131.483 249.956 131.483 249.956 130.983 249.956H131.483C131.483 249.055 132.086 248.473 132.668 248.473H152.877C153.458 248.473 154.061 249.055 154.061 249.956H154.561C154.061 249.956 154.061 249.956 154.061 249.956V249.956V249.957V249.958V249.959V249.961V249.963V249.965V249.967V249.97V249.973V249.976V249.979V249.983V249.987V249.991V249.996V250V250.005V250.011V250.016V250.022V250.028V250.034V250.041V250.048V250.055V250.062V250.07V250.077V250.085V250.094V250.102V250.111V250.12V250.129V250.139V250.149V250.159V250.169V250.18V250.19V250.201V250.213V250.224V250.236V250.248V250.26V250.272V250.285V250.298V250.311V250.324V250.337V250.351V250.365V250.379V250.394V250.408V250.423V250.438V250.453V250.469V250.485V250.501V250.517V250.533V250.55V250.566V250.583V250.6V250.618V250.635V250.653V250.671V250.689V250.708V250.726V250.745V250.764V250.783V250.803V250.822V250.842V250.862V250.882V250.903V250.923V250.944V250.965V250.986V251.007V251.029V251.05V251.072V251.094V251.116V251.139V251.161V251.184V251.207V251.23V251.253V251.277V251.3V251.324V251.348V251.372V251.396V251.421V251.445V251.47V251.495V251.52V251.545V251.571V251.596V251.622V251.648V251.674V251.7V251.727V251.753V251.78V251.807V251.834V251.861V251.888V251.915V251.943V251.971V251.998V252.026V252.054V252.083V252.111V252.14V252.168V252.197V252.226V252.255V252.284V252.314V252.343V252.373V252.403V252.432V252.462V252.492V252.523V252.553V252.584V252.614V252.645V252.676V252.707V252.738V252.769V252.8V252.832V252.863V252.895V252.927V252.959V252.991V253.023V253.055V253.087V253.12V253.152V253.185V253.217V253.25V253.283V253.316V253.349V253.382V253.416V253.449V253.483V253.516V253.55V253.584V253.617V253.651V253.685V253.72V253.754V253.788V253.822V253.857V253.891V253.926V253.961V253.995V254.03V254.065V254.1V254.135V254.17V254.206V254.241V254.276V254.312V254.347V254.383V254.418V254.454V254.49V254.525V254.561V254.597V254.633V254.669V254.705V254.741V254.778V254.814V254.85V254.886V254.923V254.959V254.996V255.032V255.069V255.106V255.142V255.179V255.216V255.253V255.289V255.326V255.363V255.4V255.437V255.474V255.511V255.548V255.586V255.623V255.66V255.697V255.734V255.772V255.809V255.846V255.884V255.921V255.958V255.996V256.033V256.071V256.108V256.146V256.183V256.221V256.258V256.296V256.333V256.371V256.408V256.446V256.483V256.521V256.559V256.596V256.634V256.671V256.709V256.746V256.784V256.822V256.859V256.897V256.934V256.972V257.009V257.047V257.085V257.122V257.16V257.197V257.234V257.272V257.309V257.347V257.384V257.422V257.459V257.496V257.534V257.571V257.608V257.645V257.683V257.72V257.757V257.794V257.831V257.868V257.905V257.942V257.979V258.016V258.053V258.09V258.127V258.164V258.2V258.237V258.274V258.31V258.347V258.383V258.42V258.456V258.492V258.529V258.565V258.601V258.637V258.673V258.709V258.745V258.781V258.817V258.853V258.889V258.924V258.96V258.996V259.031V259.066V259.102V259.137V259.172V259.207V259.242V259.277V259.312V259.347V259.382V259.417V259.451V259.486V259.52V259.555V259.589V259.623V259.657V259.691V259.725V259.759V259.793V259.826V259.86V259.893V259.927V259.96V259.993V260.026V260.059V260.092V260.125V260.158V260.19V260.223V260.255V260.288V260.32V260.352V260.384V260.416V260.448V260.479V260.511V260.542V260.574V260.605V260.636V260.667V260.698V260.728V260.759V260.789V260.82V260.85V260.88V260.91V260.94V260.97V260.999V261.029V261.058V261.087V261.116V261.145V261.174V261.203V261.231V261.26V261.288V261.316V261.344V261.372V261.4V261.427V261.455V261.482V261.509V261.536V261.563V261.589V261.616V261.642V261.668V261.694V261.72V261.746V261.772V261.797V261.822V261.847V261.872V261.897V261.922V261.946V261.97V261.995V262.018V262.042V262.066V262.089V262.112V262.136V262.158V262.181V262.204V262.226V262.248V262.27V262.292V262.314V262.335V262.357V262.378V262.399V262.419V262.44V262.46V262.48V262.5V262.52V262.54V262.559V262.578V262.597V262.616V262.635V262.653V262.671V262.689V262.707V262.724V262.742V262.759V262.776V262.793V262.809V262.826V262.842V262.858V262.873V262.889V262.904V262.919V262.934V262.949V262.963V262.977V262.991V263.005V263.018V263.032V263.045V263.058V263.07V263.082V263.095V263.107V263.118V263.13V263.141V263.152V263.163V263.173V263.183V263.193V263.203V263.213V263.222V263.231V263.24V263.248V263.257V263.265V263.273V263.28V263.287V263.295V263.301V263.308C154.061 264.208 153.458 264.791 152.877 264.791H152.871H152.866H152.86H152.855H152.849H152.844H152.838H152.833H152.827H152.821H152.816H152.81H152.805H152.799H152.793H152.788H152.782H152.776H152.77H152.765H152.759H152.753H152.747H152.742H152.736H152.73H152.724H152.718H152.712H152.707H152.701H152.695H152.689H152.683H152.677H152.671H152.665H152.659H152.653H152.647H152.641H152.635H152.629H152.623H152.617H152.611H152.605H152.599H152.593H152.587H152.581H152.575H152.569H152.563H152.556H152.55H152.544H152.538H152.532H152.526H152.519H152.513H152.507H152.501H152.495H152.488H152.482H152.476H152.47H152.463H152.457H152.451H152.444H152.438H152.432H152.426H152.419H152.413H152.407H152.4H152.394H152.387H152.381H152.375H152.368H152.362H152.356H152.349H152.343H152.336H152.33H152.323H152.317H152.311H152.304H152.298H152.291H152.285H152.278H152.272H152.265H152.259H152.252H152.246H152.239H152.233H152.226H152.22H152.213H152.207H152.2H152.194H152.187H152.181H152.174H152.168H152.161H152.155H152.148H152.142H152.135H152.128H152.122H152.115H152.109H152.102H152.096H152.089H152.083H152.076H152.069H152.063H152.056H152.05H152.043H152.036H152.03H152.023H152.017H152.01H152.003H151.997H151.99H151.984H151.977H151.97H151.964H151.957H151.951H151.944H151.938H151.931H151.924H151.918H151.911H151.905H151.898H151.891H151.885H151.878H151.872H151.865H151.858H151.852H151.845H151.839H151.832H151.825H151.819H151.812H151.806H151.799H151.793H151.786H151.779H151.773H151.766H151.76H151.753H151.747H151.74H151.733H151.727H151.72H151.714H151.707H151.701H151.694H151.688H151.681H151.675H151.668H151.662H151.655H151.649H151.642H151.636H151.629H151.623H151.616H151.61H151.603H151.597H151.59H151.584H151.577H151.571H151.565H151.558H151.552H151.545H151.539H151.532H151.526H151.52H151.513H151.507H151.501H151.494H151.488H151.481H151.475H151.469H151.462H151.456H151.45H151.444H151.437H151.431H151.425H151.418H151.412H151.406H151.4H151.393H151.387H151.381H151.375H151.368H151.362H151.356H151.35H151.344H151.338H151.331H151.325H151.319H151.313H151.307H151.301H151.295H151.289H151.283H151.276H151.27H151.264H151.258H151.252H151.246H151.24H151.234H151.228H151.222H151.216H151.21H151.205H151.199H151.193H151.187H151.181H151.175H151.169H151.163H151.158H151.152H151.146H151.14H151.134H151.129H151.123H151.117H151.111H151.106H151.1H151.094H151.089H151.083H151.077H151.072H151.066H151.06H151.055H151.049H151.044H151.038H151.033H151.027H151.021H151.016H151.011H151.005H151H150.994H150.989H150.983H150.978H150.973H150.967H150.962H150.957H150.951H150.946H150.941H150.935H150.93H150.925H150.92H150.915H150.909H150.904H150.899H150.894H150.889H150.884H150.879H150.874H150.869H150.864H150.859H150.854H150.849H150.844H150.839H150.834H150.829H150.824H150.819H150.814H150.81H150.805H150.8H150.795H150.791H150.786H150.781H150.777H150.772H150.767H150.763H150.758H150.753H150.749H150.744H150.74H150.735H150.731H150.726H150.722H150.718H150.713H150.709H150.704H150.7H150.696H150.691H150.687H150.683H150.679H150.675H150.67H150.666H150.662H150.658H150.654H150.65H150.646H150.642H150.638H150.634H150.63H150.626H150.622H150.618H150.614H150.61H150.607H150.603H150.599H150.595H150.592H150.588H150.584H150.581H150.577H150.573H150.57H150.566H150.563H150.559H150.556H150.552H150.549H150.546H150.542H150.539H150.536H150.532H150.529H150.526H150.523H150.519H150.516H150.513H150.51H150.507H150.504H150.501H150.498H150.495H150.492H150.489H150.486H150.483H150.48H150.478H150.475H150.472H150.469H150.467H150.464H150.461H150.459H150.456H150.454H150.451H150.449H150.446H150.444H150.441H150.439H150.437H150.434H150.432H150.43H150.427H150.425H150.423H150.421H150.419H150.417H150.415H150.413H150.411H150.409H150.407H150.405H150.403H150.401H150.399H150.398H150.396H150.394H150.392H150.391H150.389H150.388H150.386H150.384H150.383H150.381H150.38H150.379H150.377H150.376H150.375H150.373H150.372H150.371H150.37H150.369H150.368H150.367H150.365H150.364H150.364H150.363H150.362H150.361H150.36H150.359H150.358H150.358H150.357H150.356H150.356H150.355H150.355H150.354H150.354H150.353H150.353H150.352H150.352H150.352H150.351H150.351H150.351H150.351H150.351H150.351H150.351Z" stroke="#0047A3" stroke-linejoin="round"/>
<path fill-rule="evenodd" clip-rule="evenodd" d="M141.53 251.467C141.53 251.539 141.612 253.018 141.674 254.148C141.715 254.886 141.726 255.097 141.757 255.733C141.775 256.107 141.796 256.529 141.804 256.671C141.812 256.814 141.834 257.228 141.853 257.593C141.871 257.958 141.894 258.498 141.905 258.645C141.905 258.645 141.922 258.783 142.033 258.783C142.104 258.783 142.867 258.783 142.867 258.783C142.867 258.783 143.391 258.783 143.709 258.783C143.776 258.783 143.813 258.716 143.817 258.645C143.822 258.573 143.854 257.94 143.89 257.237C143.926 256.535 143.963 255.836 143.971 255.685C143.98 255.533 143.994 255.271 144.004 255.102C144.013 254.933 144.036 254.489 144.054 254.116C144.072 253.742 144.093 253.32 144.101 253.177C144.11 253.035 144.131 252.606 144.15 252.223C144.168 251.84 144.199 251.568 144.199 251.451C144.199 251.451 144.231 251.188 144.041 251.188C143.852 251.188 143.397 251.188 142.873 251.188H141.673C141.499 251.188 141.53 251.467 141.53 251.467Z" fill="#0047A3"/>
<path d="M144.093 261.534C144.093 262.233 143.54 262.799 142.867 262.799C142.193 262.799 141.647 262.233 141.647 261.534C141.647 260.835 142.193 260.268 142.867 260.268C143.54 260.268 144.093 260.835 144.093 261.534Z" fill="#0047A3"/>
<path fill-rule="evenodd" clip-rule="evenodd" d="M119.175 281.117V271.671H116.656C115.728 271.671 114.977 270.787 114.977 269.693V256.38C114.977 255.287 115.728 254.403 116.656 254.403H136.806C137.735 254.403 138.485 255.287 138.485 256.38V269.693C138.485 270.787 137.735 271.671 136.806 271.671L127.813 271.685L119.175 281.117ZM124.178 257.832C124.758 257.618 125.296 257.482 126.038 257.359C126.533 257.277 127.401 257.227 128.28 257.39C129.836 257.679 130.673 258.771 130.673 260.084C130.673 261.202 130.341 261.681 128.801 262.792C127.747 263.552 127.611 264.114 127.542 264.399L127.536 264.425C127.536 264.425 127.507 264.788 127.333 264.794C127.13 264.801 126.495 264.794 126.495 264.794C126.495 264.794 125.873 264.801 125.641 264.794C125.407 264.786 125.425 264.526 125.444 264.257L125.448 264.198C125.466 263.909 125.829 262.707 126.957 261.898C128.294 260.94 128.612 260.416 128.275 259.726C127.913 258.987 126.406 258.942 124.71 259.618C124.679 259.63 124.649 259.643 124.619 259.655L124.619 259.655C124.517 259.696 124.42 259.736 124.288 259.777C124.085 259.84 123.774 259.261 123.544 258.835L123.515 258.781C123.325 258.434 123.194 258.194 124.178 257.832ZM126.495 268.507C127.206 268.507 127.789 267.959 127.789 267.284C127.789 266.608 127.206 266.061 126.495 266.061C125.784 266.061 125.207 266.608 125.207 267.284C125.207 267.959 125.784 268.507 126.495 268.507Z" fill="#0047A3"/>
<path d="M144 75L158.652 84.2375L143.326 92.3074L144 75ZM143.085 216.812C143.884 216.196 145.114 214.645 146.503 211.699C147.87 208.798 149.329 204.679 150.666 199.096C153.34 187.933 155.5 171.016 155.5 146.5L158.5 146.5C158.5 171.176 156.327 188.34 153.584 199.795C152.212 205.522 150.693 209.846 149.216 212.978C147.761 216.064 146.283 218.135 144.915 219.188L143.085 216.812ZM155.5 146.5C155.5 116.621 152.291 98.0379 148.862 87.4047L151.717 86.484C155.276 97.5188 158.5 116.441 158.5 146.5L155.5 146.5Z" fill="#0047A3"/>
<circle cx="135" cy="35" r="33" stroke="#9E9E9E" stroke-width="4"/>
<path fill-rule="evenodd" clip-rule="evenodd" d="M130.469 16.2726C125.351 17.4253 118.127 20.9451 114.712 23.9503C112.065 26.279 110.994 28.2097 110.844 30.9188C110.602 35.3064 113.236 38.1293 118.06 38.6523C119.473 38.8054 119.53 38.8462 119.704 39.8425C119.922 41.0945 121.897 43.2502 123.521 44.0084C125.219 44.8016 128.434 45.2186 131.464 45.0388C134.034 44.8862 134.138 44.9029 134.253 45.4866C134.319 45.8201 134.522 46.8419 134.704 47.7574C135.14 49.9438 136.897 53.1718 138.239 54.2499C140.299 55.9059 141.853 55.1912 142.211 52.4233L142.388 51.0541L143.976 51.3177C147.941 51.9755 153.227 48.9526 153.227 46.027C153.227 45.4075 153.544 45.0233 154.721 44.2193C157.687 42.1923 159.079 39.4618 159.069 35.689C159.062 32.7507 158.394 30.3787 156.766 27.5047C153.834 22.3309 146.911 17.5962 140.139 16.1347C137.545 15.5751 133.297 15.6356 130.469 16.2726ZM138.687 16.8247C139.57 16.9781 140.85 17.2408 141.531 17.4087L142.769 17.7138L141.467 18.3217C139.822 19.0902 137.772 20.8957 137.772 21.5757C137.772 22.3339 138.049 22.2227 139.183 21.0095C139.741 20.4124 140.82 19.6481 141.581 19.311C143.589 18.421 145.045 18.6524 147.956 20.3239C150.187 21.6059 154.734 25.2348 153.323 24.6083C152.258 24.1356 149.833 24.2607 148.563 24.8536C147.421 25.3868 147.4 25.3868 146.779 24.8569C145.964 24.1622 145.064 23.9081 144.676 24.2632C144.469 24.4532 144.65 24.6777 145.238 24.956C146.423 25.5167 147.067 26.2252 147.368 27.298C147.723 28.5654 148.227 28.4075 148.227 27.0289C148.227 25.8981 148.256 25.8651 149.627 25.4725C151.293 24.9954 152.749 25.1843 154.171 26.0615C155.606 26.9471 156.46 28.2369 157.361 30.8819C158.045 32.8933 158.129 33.5456 158.018 36.0322C157.911 38.4187 157.762 39.1067 157.098 40.2842C156.26 41.767 154.492 43.4083 152.94 44.1433C152.085 44.548 152.025 44.6679 152.195 45.6425C152.357 46.5653 152.254 46.8335 151.398 47.7258C149.789 49.4034 148.032 50.1835 145.531 50.3306C143.736 50.436 143.074 50.3486 141.764 49.8323C139.252 48.843 138.343 47.4034 139.582 46.3772C140.112 45.9371 140.551 45.9039 143.496 46.0786C145.641 46.2057 147.023 46.1727 147.406 45.9849C148.08 45.6544 148.417 44.7955 148.072 44.2847C147.797 43.878 147.166 44.1621 147.166 44.6923C147.166 45.3187 146.303 45.4156 143.503 45.104C140.576 44.7783 139.796 44.8857 138.757 45.7568C137.372 46.9168 138.223 49.078 140.554 50.3214C141.423 50.785 141.459 50.8771 141.294 52.1797C140.968 54.7518 139.586 54.888 137.809 52.5229C136.5 50.7822 135.755 48.899 135.336 46.2764L134.975 44.012H130.822C126.032 44.012 124.09 43.6142 122.452 42.2975C121.171 41.2682 120.767 40.6276 120.472 39.1581C119.9 36.3155 123.443 33.1921 127.239 33.1921C129.342 33.1921 130.325 33.7792 130.082 34.8906C129.8 36.1809 128.982 37.0723 127.264 37.9598C125.821 38.705 125.122 39.5731 125.965 39.5731C126.478 39.5731 128.537 38.5397 128.965 38.0675C129.514 37.4618 129.734 37.4862 135.356 38.7774C142.977 40.528 147.36 40.2586 150.341 37.8563C151.619 36.8265 153.38 34.0741 153.591 32.776C153.757 31.7603 152.845 32.1909 152.416 33.3308C151.845 34.8509 150.309 36.8565 149.171 37.5686C147.93 38.3446 145.034 39.0182 142.936 39.0185C140.893 39.0188 136.256 38.2092 136.256 37.8522C136.256 37.3728 136.93 36.3851 137.578 35.9143C138.175 35.4801 138.183 35.4321 137.683 35.2565C136.996 35.0154 136.075 35.7578 135.615 36.9225L135.269 37.7989L132.959 37.2757C131.689 36.988 130.622 36.7266 130.587 36.6953C130.553 36.6637 130.691 36.1221 130.895 35.4918C131.336 34.1235 132.821 32.9347 135.587 31.7359C137.225 31.0262 137.764 30.9252 139.406 31.0209C141.191 31.125 141.608 31.2781 143.406 32.4888C143.98 32.8756 144.24 32.501 143.854 31.8416C143.672 31.5303 142.649 30.8936 141.58 30.4267C139.477 29.5081 138.067 28.2349 138.088 27.2753C138.095 26.9438 138.28 26.2138 138.499 25.6531C138.721 25.0841 138.787 24.4724 138.65 24.2682C138.332 23.7971 137.96 24.1653 137.51 25.396C137.002 26.7865 137.088 27.8796 137.787 28.9141L138.408 29.8341L137.106 30.1548C135.409 30.5734 133.948 31.2673 132.216 32.4775L130.812 33.459L129.67 32.7432C128.684 32.1251 128.298 32.0458 126.84 32.1628C123.846 32.4031 121.031 34.2381 119.824 36.7358C119.228 37.9701 119.226 37.9706 117.968 37.7878C116.094 37.5154 113.706 36.4212 113.012 35.5165C112.046 34.2566 111.633 32.7224 111.763 30.8758C111.918 28.6711 112.887 26.8547 114.888 25.0231C116.291 23.7389 121.088 20.6005 121.322 20.8142C121.372 20.8605 121.197 21.4486 120.932 22.1209C120.635 22.8758 120.45 24.2474 120.449 25.7084L120.449 28.0732L119.261 28.6991C118.608 29.0431 118.074 29.4385 118.074 29.5774C118.074 30.1243 118.682 30.1204 119.706 29.5672C120.481 29.1485 121.182 29.0101 122.23 29.0692C124.072 29.1729 124.272 28.486 122.51 28.1046L121.34 27.8513L121.457 25.1726C121.56 22.8422 121.686 22.3195 122.434 21.1523C123.168 20.0054 123.606 19.6789 125.456 18.8999C126.646 18.3988 128.35 17.7918 129.243 17.551L130.867 17.1132L130.369 17.7313C129.542 18.7606 128.719 20.527 128.51 21.7241C128.401 22.3464 128.156 22.8519 127.966 22.8475C126.966 22.8247 126.559 22.9681 126.559 23.3432C126.559 23.647 126.907 23.7611 127.847 23.7655C128.555 23.7688 129.728 24.018 130.453 24.3192C131.179 24.6205 131.903 24.7928 132.064 24.7018C132.515 24.4469 131.462 23.5413 130.31 23.1934C129.142 22.8405 129.115 22.7229 129.754 20.754C130.283 19.1215 131.713 17.4736 133.069 16.9329C134.174 16.4917 136.511 16.4468 138.687 16.8247Z" fill="#9E9E9E" stroke="#9E9E9E"/>
<path d="M233 35L234.5 35L234.5 33.5L233 33.5L233 35ZM233 96L241.66 81L224.34 81L233 96ZM175 36.5L181.444 36.5L181.444 33.5L175 33.5L175 36.5ZM187.889 36.5L200.778 36.5L200.778 33.5L187.889 33.5L187.889 36.5ZM207.222 36.5L220.111 36.5L220.111 33.5L207.222 33.5L207.222 36.5ZM226.556 36.5L233 36.5L233 33.5L226.556 33.5L226.556 36.5ZM231.5 35L231.5 41.7778L234.5 41.7778L234.5 35L231.5 35ZM231.5 48.5556L231.5 62.1111L234.5 62.1111L234.5 48.5556L231.5 48.5556ZM231.5 68.8889L231.5 82.4444L234.5 82.4444L234.5 68.8889L231.5 68.8889Z" fill="#9E9E9E"/>
<path d="M37 35L35.5 35L35.5 33.5L37 33.5L37 35ZM37 96L28.3397 81L45.6603 81L37 96ZM95 36.5L88.5556 36.5L88.5556 33.5L95 33.5L95 36.5ZM82.1111 36.5L69.2222 36.5L69.2222 33.5L82.1111 33.5L82.1111 36.5ZM62.7778 36.5L49.8889 36.5L49.8889 33.5L62.7778 33.5L62.7778 36.5ZM43.4444 36.5L37 36.5L37 33.5L43.4444 33.5L43.4444 36.5ZM38.5 35L38.5 41.7778L35.5 41.7778L35.5 35L38.5 35ZM38.5 48.5556L38.5 62.1111L35.5 62.1111L35.5 48.5556L38.5 48.5556ZM38.5 68.8889L38.5 82.4444L35.5 82.4444L35.5 68.8889L38.5 68.8889Z" fill="#9E9E9E"/>
<path d="M90.2695 237.296L104.605 227.574L89.0179 220.02L90.2695 237.296ZM57.3925 181.057C63.0195 179.404 77.8502 180.311 88.9799 199.589L91.5779 198.089C79.7972 177.684 63.5798 176.112 56.5466 178.179L57.3925 181.057ZM88.9799 199.589C94.9487 209.927 95.7983 218.532 94.6795 224.888L97.6341 225.408C98.8867 218.292 97.8641 208.977 91.5779 198.089L88.9799 199.589Z" fill="#0047A3"/>
<path d="M177.676 237.296L163.334 227.586L178.925 220.026L177.676 237.296ZM210.585 181.057C204.952 179.403 190.106 180.311 178.966 199.588L176.367 198.089C188.16 177.684 204.393 176.113 211.432 178.18L210.585 181.057ZM178.966 199.588C172.989 209.93 172.14 218.538 173.262 224.894L170.307 225.416C169.051 218.299 170.073 208.981 176.367 198.089L178.966 199.588Z" fill="#0047A3"/>
<path d="M50.6592 182.795L36.3242 192.517L51.9108 200.071L50.6592 182.795ZM83.5362 239.034C77.9092 240.687 63.0785 239.779 51.9488 220.502L49.3508 222.002C61.1315 242.407 77.3489 243.979 84.3821 241.912L83.5362 239.034ZM51.9488 220.502C45.98 210.164 45.1304 201.559 46.2492 195.203L43.2947 194.683C42.042 201.799 43.0646 211.114 49.3508 222.002L51.9488 220.502Z" fill="#0047A3"/>
<path d="M217.324 182.795L231.666 192.505L216.075 200.065L217.324 182.795ZM184.415 239.034C190.048 240.688 204.894 239.78 216.034 220.503L218.633 222.002C206.84 242.407 190.607 243.978 183.568 241.911L184.415 239.034ZM216.034 220.503C222.011 210.161 222.86 201.553 221.738 195.197L224.693 194.675C225.949 201.792 224.927 211.11 218.633 222.002L216.034 220.503Z" fill="#0047A3"/>
</svg>
