<svg width="266" height="174" viewBox="0 0 266 174" fill="none" xmlns="http://www.w3.org/2000/svg">
<circle cx="134" cy="35" r="33" fill="#884A07" stroke="#884A07" stroke-width="4"/>
<path fill-rule="evenodd" clip-rule="evenodd" d="M129.469 16.2726C124.351 17.4253 117.127 20.9451 113.712 23.9503C111.065 26.2791 109.994 28.2097 109.844 30.9189C109.602 35.3065 112.236 38.1294 117.06 38.6523C118.473 38.8055 118.53 38.8462 118.704 39.8425C118.922 41.0946 120.897 43.2502 122.521 44.0085C124.219 44.8016 127.434 45.2186 130.464 45.0388C133.034 44.8863 133.138 44.9029 133.253 45.4866C133.319 45.8201 133.522 46.8419 133.704 47.7574C134.14 49.9439 135.897 53.1718 137.239 54.2499C139.299 55.9059 140.853 55.1912 141.211 52.4233L141.388 51.0542L142.976 51.3177C146.941 51.9755 152.227 48.9526 152.227 46.0271C152.227 45.4076 152.544 45.0233 153.721 44.2193C156.687 42.1924 158.079 39.4619 158.069 35.6891C158.062 32.7508 157.394 30.3787 155.766 27.5048C152.834 22.3309 145.911 17.5962 139.139 16.1347C136.545 15.5751 132.297 15.6356 129.469 16.2726ZM137.687 16.8247C138.57 16.9781 139.85 17.2408 140.531 17.4087L141.769 17.7139L140.467 18.3217C138.822 19.0902 136.772 20.8957 136.772 21.5757C136.772 22.334 137.049 22.2227 138.183 21.0095C138.741 20.4125 139.82 19.6481 140.581 19.311C142.589 18.421 144.045 18.6524 146.956 20.324C149.187 21.606 153.734 25.2348 152.323 24.6084C151.258 24.1356 148.833 24.2607 147.563 24.8536C146.421 25.3868 146.4 25.3868 145.779 24.8569C144.964 24.1623 144.064 23.9081 143.676 24.2632C143.469 24.4533 143.65 24.6777 144.238 24.956C145.423 25.5167 146.067 26.2252 146.368 27.2981C146.723 28.5654 147.227 28.4075 147.227 27.029C147.227 25.8982 147.256 25.8651 148.627 25.4726C150.293 24.9954 151.749 25.1843 153.171 26.0616C154.606 26.9471 155.46 28.2369 156.361 30.882C157.045 32.8934 157.129 33.5456 157.018 36.0322C156.911 38.4187 156.762 39.1068 156.098 40.2842C155.26 41.7671 153.492 43.4084 151.94 44.1433C151.085 44.5481 151.025 44.6679 151.195 45.6425C151.357 46.5653 151.254 46.8336 150.398 47.7258C148.789 49.4034 147.032 50.1836 144.531 50.3306C142.736 50.436 142.074 50.3486 140.764 49.8323C138.252 48.843 137.343 47.4034 138.582 46.3772C139.112 45.9372 139.551 45.9039 142.496 46.0787C144.641 46.2057 146.023 46.1727 146.406 45.9849C147.08 45.6545 147.417 44.7955 147.072 44.2848C146.797 43.8781 146.166 44.1622 146.166 44.6923C146.166 45.3188 145.303 45.4156 142.503 45.104C139.576 44.7783 138.796 44.8857 137.757 45.7568C136.372 46.9168 137.223 49.078 139.554 50.3215C140.423 50.785 140.459 50.8772 140.294 52.1797C139.968 54.7518 138.586 54.888 136.809 52.5229C135.5 50.7823 134.755 48.8991 134.336 46.2765L133.975 44.0121H129.822C125.032 44.0121 123.09 43.6142 121.452 42.2975C120.171 41.2682 119.767 40.6276 119.472 39.1581C118.9 36.3155 122.443 33.1922 126.239 33.1922C128.342 33.1922 129.325 33.7792 129.082 34.8906C128.8 36.1809 127.982 37.0723 126.264 37.9598C124.821 38.705 124.122 39.5731 124.965 39.5731C125.478 39.5731 127.537 38.5397 127.965 38.0675C128.514 37.4619 128.734 37.4863 134.356 38.7774C141.977 40.5281 146.36 40.2587 149.341 37.8564C150.619 36.8265 152.38 34.0741 152.591 32.776C152.757 31.7603 151.845 32.1909 151.416 33.3309C150.845 34.8509 149.309 36.8565 148.171 37.5687C146.93 38.3447 144.034 39.0183 141.936 39.0185C139.893 39.0188 135.256 38.2093 135.256 37.8522C135.256 37.3728 135.93 36.3851 136.578 35.9143C137.175 35.4801 137.183 35.4322 136.683 35.2565C135.996 35.0154 135.075 35.7579 134.615 36.9225L134.269 37.7989L131.959 37.2757C130.689 36.988 129.622 36.7267 129.587 36.6953C129.553 36.6637 129.691 36.1221 129.895 35.4918C130.336 34.1235 131.821 32.9347 134.587 31.7359C136.225 31.0262 136.764 30.9252 138.406 31.021C140.191 31.125 140.608 31.2781 142.406 32.4889C142.98 32.8756 143.24 32.5011 142.854 31.8416C142.672 31.5303 141.649 30.8936 140.58 30.4267C138.477 29.5081 137.067 28.235 137.088 27.2753C137.095 26.9438 137.28 26.2139 137.499 25.6532C137.721 25.0842 137.787 24.4724 137.65 24.2682C137.332 23.7971 136.96 24.1653 136.51 25.396C136.002 26.7865 136.088 27.8796 136.787 28.9141L137.408 29.8341L136.106 30.1548C134.409 30.5735 132.948 31.2673 131.216 32.4775L129.812 33.459L128.67 32.7433C127.684 32.1251 127.298 32.0458 125.84 32.1629C122.846 32.4031 120.031 34.2381 118.824 36.7358C118.228 37.9701 118.226 37.9707 116.968 37.7878C115.094 37.5154 112.706 36.4212 112.012 35.5165C111.046 34.2567 110.633 32.7225 110.763 30.8759C110.918 28.6711 111.887 26.8547 113.888 25.0231C115.291 23.7389 120.088 20.6006 120.322 20.8142C120.372 20.8605 120.197 21.4487 119.932 22.1209C119.635 22.8758 119.45 24.2474 119.449 25.7084L119.449 28.0732L118.261 28.6991C117.608 29.0431 117.074 29.4385 117.074 29.5775C117.074 30.1243 117.682 30.1204 118.706 29.5672C119.481 29.1486 120.182 29.0101 121.23 29.0692C123.072 29.173 123.272 28.4861 121.51 28.1046L120.34 27.8513L120.457 25.1727C120.56 22.8422 120.686 22.3195 121.434 21.1524C122.168 20.0055 122.606 19.6789 124.456 18.8999C125.646 18.3988 127.35 17.7918 128.243 17.551L129.867 17.1132L129.369 17.7313C128.542 18.7606 127.719 20.527 127.51 21.7242C127.401 22.3464 127.156 22.8519 126.966 22.8475C125.966 22.8247 125.559 22.9682 125.559 23.3433C125.559 23.6471 125.907 23.7611 126.847 23.7655C127.555 23.7689 128.728 24.018 129.453 24.3193C130.179 24.6206 130.903 24.7929 131.064 24.7019C131.515 24.4469 130.462 23.5414 129.31 23.1935C128.142 22.8406 128.115 22.7229 128.754 20.754C129.283 19.1216 130.713 17.4736 132.069 16.9329C133.174 16.4918 135.511 16.4468 137.687 16.8247Z" fill="white" stroke="white"/>
<circle cx="231" cy="138" r="33" stroke="#9E9E9E" stroke-width="4"/>
<rect x="214.471" y="143.388" width="12.4547" height="11.068" stroke="#9E9E9E"/>
<rect x="231.77" y="143.388" width="15.6582" height="11.068" stroke="#9E9E9E"/>
<path d="M231.77 122.428H247.428V137.942H231.77V122.428Z" stroke="#9E9E9E"/>
<rect x="213.971" y="123.198" width="1.27031" height="13.4547" rx="0.635156" transform="rotate(-90 213.971 123.198)" fill="#9E9E9E"/>
<rect x="213.971" y="127.009" width="1.27031" height="13.4547" rx="0.635156" transform="rotate(-90 213.971 127.009)" fill="#9E9E9E"/>
<rect x="213.971" y="130.82" width="1.27031" height="13.4547" rx="0.635156" transform="rotate(-90 213.971 130.82)" fill="#9E9E9E"/>
<rect x="213.971" y="134.631" width="1.27031" height="13.4547" rx="0.635155" transform="rotate(-90 213.971 134.631)" fill="#9E9E9E"/>
<rect x="213.971" y="138.442" width="1.27031" height="13.4547" rx="0.635155" transform="rotate(-90 213.971 138.442)" fill="#9E9E9E"/>
<rect x="211.268" y="119.252" width="39.3641" height="38.3797" stroke="#9E9E9E"/>
<circle cx="35" cy="139" r="33" stroke="#9E9E9E" stroke-width="4"/>
<path d="M57.7236 139.086C57.9223 139.281 57.9223 139.602 57.7236 139.798L47.7615 149.616C47.5668 149.807 47.2542 149.807 47.0595 149.616L45.1037 147.688C44.905 147.492 44.905 147.172 45.1037 146.976L52.3873 139.798C52.586 139.602 52.586 139.281 52.3873 139.086L45.1037 131.908C44.905 131.712 44.905 131.391 45.1037 131.195L47.0595 129.268C47.2542 129.076 47.5668 129.076 47.7615 129.268L57.7236 139.086ZM18.4959 139.086C18.2972 139.281 18.2972 139.602 18.4959 139.798L25.7795 146.976C25.9783 147.172 25.9783 147.492 25.7795 147.688L23.8237 149.616C23.6291 149.807 23.3165 149.807 23.1218 149.616L13.1597 139.798C12.961 139.602 12.961 139.281 13.1597 139.086L23.1217 129.268C23.3164 129.076 23.6291 129.076 23.8237 129.268L25.778 131.195C25.9765 131.391 25.9765 131.712 25.7779 131.907L18.4959 139.086ZM31.3884 155.851C31.3159 156.048 31.1287 156.178 30.9194 156.178H27.97C27.622 156.178 27.3804 155.831 27.501 155.505L39.4949 123.032C39.5674 122.836 39.7546 122.705 39.9639 122.705H42.9133C43.2613 122.705 43.5029 123.052 43.3823 123.379L31.3884 155.851Z" fill="#9E9E9E"/>
<path d="M76 137L91 145.66L91 128.34L76 137ZM88.7778 138.5L101.556 138.5L101.556 135.5L88.7778 135.5L88.7778 138.5ZM107.944 138.5L120.722 138.5L120.722 135.5L107.944 135.5L107.944 138.5ZM127.111 138.5L139.889 138.5L139.889 135.5L127.111 135.5L127.111 138.5ZM146.278 138.5L159.056 138.5L159.056 135.5L146.278 135.5L146.278 138.5ZM165.444 138.5L178.222 138.5L178.222 135.5L165.444 135.5L165.444 138.5ZM184.611 138.5L191 138.5L191 135.5L184.611 135.5L184.611 138.5Z" fill="#9E9E9E"/>
<path d="M232 38L233.5 38L233.5 36.5L232 36.5L232 38ZM232 99L240.66 84L223.34 84L232 99ZM174 39.5L180.444 39.5L180.444 36.5L174 36.5L174 39.5ZM186.889 39.5L199.778 39.5L199.778 36.5L186.889 36.5L186.889 39.5ZM206.222 39.5L219.111 39.5L219.111 36.5L206.222 36.5L206.222 39.5ZM225.556 39.5L232 39.5L232 36.5L225.556 36.5L225.556 39.5ZM230.5 38L230.5 44.7778L233.5 44.7778L233.5 38L230.5 38ZM230.5 51.5556L230.5 65.1111L233.5 65.1111L233.5 51.5556L230.5 51.5556ZM230.5 71.8889L230.5 85.4444L233.5 85.4444L233.5 71.8889L230.5 71.8889Z" fill="#9E9E9E"/>
<path d="M36 38L34.5 38L34.5 36.5L36 36.5L36 38ZM36 99L27.3397 84L44.6603 84L36 99ZM94 39.5L87.5556 39.5L87.5556 36.5L94 36.5L94 39.5ZM81.1111 39.5L68.2222 39.5L68.2222 36.5L81.1111 36.5L81.1111 39.5ZM61.7778 39.5L48.8889 39.5L48.8889 36.5L61.7778 36.5L61.7778 39.5ZM42.4444 39.5L36 39.5L36 36.5L42.4444 36.5L42.4444 39.5ZM37.5 38L37.5 44.7778L34.5 44.7778L34.5 38L37.5 38ZM37.5 51.5556L37.5 65.1111L34.5 65.1111L34.5 51.5556L37.5 51.5556ZM37.5 71.8889L37.5 85.4444L34.5 85.4444L34.5 71.8889L37.5 71.8889Z" fill="#9E9E9E"/>
</svg>
