<svg width="71" height="199" viewBox="0 0 71 199" fill="none" xmlns="http://www.w3.org/2000/svg">
<circle cx="36" cy="164" r="33" stroke="#9E9E9E" stroke-width="4"/>
<path fill-rule="evenodd" clip-rule="evenodd" d="M31.4685 145.273C26.351 146.425 19.127 149.945 15.7119 152.95C13.0654 155.279 11.9938 157.21 11.8444 159.919C11.6023 164.306 14.2361 167.129 19.0597 167.652C20.4734 167.805 20.5298 167.846 20.7037 168.843C20.9225 170.095 22.8975 172.25 24.5206 173.008C26.2188 173.802 29.4336 174.219 32.4643 174.039C35.0345 173.886 35.1378 173.903 35.253 174.487C35.3187 174.82 35.5221 175.842 35.7045 176.757C36.1403 178.944 37.8973 182.172 39.2386 183.25C41.2987 184.906 42.8528 184.191 43.211 181.423L43.3879 180.054L44.9759 180.318C48.941 180.976 54.227 177.953 54.227 175.027C54.227 174.408 54.5443 174.023 55.7207 173.219C58.6866 171.192 60.0785 168.462 60.0691 164.689C60.0618 161.751 59.3942 159.379 57.7657 156.505C54.834 151.331 47.9106 146.596 41.1387 145.135C38.545 144.575 34.2975 144.636 31.4685 145.273ZM39.6874 145.825C40.5702 145.978 41.8497 146.241 42.5306 146.409L43.7689 146.714L42.4673 147.322C40.8223 148.09 38.7716 149.896 38.7716 150.576C38.7716 151.334 39.0486 151.223 40.1829 150.009C40.7408 149.412 41.8203 148.648 42.5812 148.311C44.5892 147.421 46.045 147.652 48.9555 149.324C51.1871 150.606 55.7337 154.235 54.3228 153.608C53.2585 153.136 50.8335 153.261 49.5631 153.854C48.4206 154.387 48.4 154.387 47.7788 153.857C46.9645 153.162 46.0641 152.908 45.6762 153.263C45.4686 153.453 45.6505 153.678 46.2378 153.956C47.4227 154.517 48.0667 155.225 48.3676 156.298C48.7228 157.565 49.2267 157.408 49.2267 156.029C49.2267 154.898 49.2564 154.865 50.6271 154.473C52.2927 153.995 53.7488 154.184 55.1707 155.062C56.6062 155.947 57.4596 157.237 58.3605 159.882C59.0454 161.893 59.1288 162.546 59.0176 165.032C58.9109 167.419 58.7618 168.107 58.0975 169.284C57.2605 170.767 55.4922 172.408 53.94 173.143C53.0848 173.548 53.0254 173.668 53.1954 174.643C53.3566 175.565 53.2539 175.834 52.3984 176.726C50.7892 178.403 49.0319 179.184 46.5308 179.331C44.7362 179.436 44.0743 179.349 42.7637 178.832C40.2517 177.843 39.3426 176.403 40.5817 175.377C41.1124 174.937 41.5515 174.904 44.4965 175.079C46.6408 175.206 48.023 175.173 48.4064 174.985C49.0804 174.654 49.4167 173.796 49.0719 173.285C48.7973 172.878 48.1661 173.162 48.1661 173.692C48.1661 174.319 47.3033 174.416 44.5028 174.104C41.5763 173.778 40.7963 173.886 39.7565 174.757C38.3722 175.917 39.2232 178.078 41.5539 179.321C42.4227 179.785 42.4594 179.877 42.2942 181.18C41.9676 183.752 40.586 183.888 38.8086 181.523C37.5003 179.782 36.7552 177.899 36.336 175.276L35.9745 173.012H31.8216C27.0322 173.012 25.09 172.614 23.452 171.298C22.1714 170.268 21.7674 169.628 21.4719 168.158C20.9004 165.315 24.443 162.192 28.239 162.192C30.3421 162.192 31.3249 162.779 31.0821 163.891C30.8 165.181 29.9818 166.072 28.2638 166.96C26.8213 167.705 26.1225 168.573 26.9649 168.573C27.4777 168.573 29.5369 167.54 29.9648 167.067C30.5139 166.462 30.7339 166.486 36.356 167.777C43.9771 169.528 48.36 169.259 51.3408 166.856C52.6187 165.827 54.3797 163.074 54.5913 161.776C54.7567 160.76 53.8449 161.191 53.4163 162.331C52.8451 163.851 51.3093 165.856 50.1707 166.569C48.9304 167.345 46.0335 168.018 43.9355 168.019C41.893 168.019 37.2564 167.209 37.2564 166.852C37.2564 166.373 37.9298 165.385 38.578 164.914C39.1753 164.48 39.1829 164.432 38.6825 164.257C37.9964 164.015 37.0749 164.758 36.6149 165.923L36.2688 166.799L33.9593 166.276C32.6892 165.988 31.6219 165.727 31.5873 165.695C31.5531 165.664 31.6913 165.122 31.8946 164.492C32.3358 163.124 33.8211 161.935 36.5873 160.736C38.2246 160.026 38.7641 159.925 40.4063 160.021C42.1906 160.125 42.6076 160.278 44.4059 161.489C44.9804 161.876 45.2396 161.501 44.8538 160.842C44.6719 160.53 43.6486 159.894 42.5797 159.427C40.4775 158.508 39.0668 157.235 39.088 156.275C39.0953 155.944 39.2801 155.214 39.4989 154.653C39.7208 154.084 39.7874 153.472 39.6499 153.268C39.3317 152.797 38.9595 153.165 38.5098 154.396C38.0022 155.786 38.0883 156.88 38.7868 157.914L39.4077 158.834L38.1064 159.155C36.4091 159.573 34.9478 160.267 33.2159 161.477L31.8116 162.459L30.67 161.743C29.6845 161.125 29.2981 161.046 27.8401 161.163C24.846 161.403 22.031 163.238 20.824 165.736C20.2276 166.97 20.2264 166.971 18.9685 166.788C17.0938 166.515 14.7058 165.421 14.0121 164.516C13.046 163.257 12.633 161.722 12.7627 159.876C12.9175 157.671 13.8873 155.855 15.888 154.023C17.2911 152.739 22.088 149.601 22.3217 149.814C22.3723 149.861 22.1968 150.449 21.9323 151.121C21.6347 151.876 21.4501 153.247 21.4495 154.708L21.4486 157.073L20.2609 157.699C19.6079 158.043 19.0736 158.438 19.0736 158.577C19.0736 159.124 19.6821 159.12 20.7064 158.567C21.4813 158.149 22.1823 158.01 23.2296 158.069C25.0721 158.173 25.2715 157.486 23.5099 157.105L22.3395 156.851L22.4571 154.173C22.5596 151.842 22.6862 151.32 23.4335 150.152C24.1675 149.005 24.606 148.679 26.4558 147.9C27.6459 147.399 29.3502 146.792 30.243 146.551L31.8667 146.113L31.3694 146.731C30.5418 147.761 29.719 149.527 29.5099 150.724C29.4011 151.346 29.1563 151.852 28.966 151.847C27.9659 151.825 27.5589 151.968 27.5589 152.343C27.5589 152.647 27.9071 152.761 28.8469 152.766C29.5554 152.769 30.7282 153.018 31.4534 153.319C32.1786 153.621 32.9034 153.793 33.0641 153.702C33.5147 153.447 32.4616 152.541 31.3103 152.193C30.1421 151.841 30.1151 151.723 30.7539 149.754C31.2834 148.122 32.7131 146.474 34.0687 145.933C35.1745 145.492 37.5107 145.447 39.6874 145.825Z" fill="#9E9E9E" stroke="#9E9E9E"/>
<circle cx="35" cy="35" r="33" fill="#0047A3" stroke="#0047A3" stroke-width="4"/>
<path d="M28.7616 20.6733L27.6511 21.6815L28.7616 20.6733ZM26.5405 19.6898L26.5405 21.1898L26.5405 19.6898ZM18.752 19.6898L18.752 21.1898L18.752 19.6898ZM18.752 51.7091H52.1316V48.7091H18.752V51.7091ZM56.6316 47.2091V30.7435H53.6316V47.2091H56.6316ZM52.1316 26.2435H35.1806V29.2435H52.1316V26.2435ZM36.2912 26.7352L29.8722 19.665L27.6511 21.6815L34.0701 28.7518L36.2912 26.7352ZM26.5405 18.1898L18.752 18.1898L18.752 21.1898L26.5405 21.1898L26.5405 18.1898ZM14.252 22.6898V27.7435H17.252V22.6898H14.252ZM14.252 27.7435V47.2091H17.252V27.7435H14.252ZM35.1806 26.2435H15.752V29.2435H35.1806V26.2435ZM56.6316 30.7435C56.6316 28.2582 54.6169 26.2435 52.1316 26.2435V29.2435C52.96 29.2435 53.6316 29.9151 53.6316 30.7435H56.6316ZM52.1316 51.7091C54.6169 51.7091 56.6316 49.6943 56.6316 47.2091H53.6316C53.6316 48.0375 52.96 48.7091 52.1316 48.7091V51.7091ZM18.752 48.7091C17.9235 48.7091 17.252 48.0375 17.252 47.2091H14.252C14.252 49.6943 16.2667 51.7091 18.752 51.7091V48.7091ZM29.8722 19.665C29.0193 18.7255 27.8094 18.1898 26.5405 18.1898L26.5405 21.1898C26.9634 21.1898 27.3667 21.3684 27.6511 21.6815L29.8722 19.665ZM18.752 18.1898C16.2667 18.1898 14.252 20.2045 14.252 22.6898H17.252C17.252 21.8614 17.9235 21.1898 18.752 21.1898L18.752 18.1898Z" fill="white"/>
<path d="M36 124L44.6603 109L27.3397 109L36 124ZM34.5 75L34.5 110.5L37.5 110.5L37.5 75L34.5 75Z" fill="#0047A3"/>
</svg>
