<svg width="268" height="176" viewBox="0 0 268 176" fill="none" xmlns="http://www.w3.org/2000/svg">
<circle cx="134" cy="35" r="33" stroke="#9E9E9E" stroke-width="4"/>
<path fill-rule="evenodd" clip-rule="evenodd" d="M129.469 16.2726C124.351 17.4253 117.127 20.9451 113.712 23.9503C111.065 26.279 109.994 28.2097 109.844 30.9188C109.602 35.3064 112.236 38.1293 117.06 38.6523C118.473 38.8054 118.53 38.8462 118.704 39.8425C118.922 41.0945 120.897 43.2502 122.521 44.0084C124.219 44.8016 127.434 45.2186 130.464 45.0388C133.034 44.8862 133.138 44.9029 133.253 45.4866C133.319 45.8201 133.522 46.8419 133.704 47.7574C134.14 49.9438 135.897 53.1718 137.239 54.2499C139.299 55.9059 140.853 55.1912 141.211 52.4233L141.388 51.0541L142.976 51.3177C146.941 51.9755 152.227 48.9526 152.227 46.027C152.227 45.4075 152.544 45.0233 153.721 44.2193C156.687 42.1923 158.079 39.4618 158.069 35.689C158.062 32.7507 157.394 30.3787 155.766 27.5047C152.834 22.3309 145.911 17.5962 139.139 16.1347C136.545 15.5751 132.297 15.6356 129.469 16.2726ZM137.687 16.8247C138.57 16.9781 139.85 17.2408 140.531 17.4087L141.769 17.7138L140.467 18.3217C138.822 19.0902 136.772 20.8957 136.772 21.5757C136.772 22.3339 137.049 22.2227 138.183 21.0095C138.741 20.4124 139.82 19.6481 140.581 19.311C142.589 18.421 144.045 18.6524 146.956 20.3239C149.187 21.6059 153.734 25.2348 152.323 24.6083C151.258 24.1356 148.833 24.2607 147.563 24.8536C146.421 25.3868 146.4 25.3868 145.779 24.8569C144.964 24.1622 144.064 23.9081 143.676 24.2632C143.469 24.4532 143.65 24.6777 144.238 24.956C145.423 25.5167 146.067 26.2252 146.368 27.298C146.723 28.5654 147.227 28.4075 147.227 27.0289C147.227 25.8981 147.256 25.8651 148.627 25.4725C150.293 24.9954 151.749 25.1843 153.171 26.0615C154.606 26.9471 155.46 28.2369 156.361 30.8819C157.045 32.8933 157.129 33.5456 157.018 36.0322C156.911 38.4187 156.762 39.1067 156.098 40.2842C155.26 41.767 153.492 43.4083 151.94 44.1433C151.085 44.548 151.025 44.6679 151.195 45.6425C151.357 46.5653 151.254 46.8335 150.398 47.7258C148.789 49.4034 147.032 50.1835 144.531 50.3306C142.736 50.436 142.074 50.3486 140.764 49.8323C138.252 48.843 137.343 47.4034 138.582 46.3772C139.112 45.9371 139.551 45.9039 142.496 46.0786C144.641 46.2057 146.023 46.1727 146.406 45.9849C147.08 45.6544 147.417 44.7955 147.072 44.2847C146.797 43.878 146.166 44.1621 146.166 44.6923C146.166 45.3187 145.303 45.4156 142.503 45.104C139.576 44.7783 138.796 44.8857 137.757 45.7568C136.372 46.9168 137.223 49.078 139.554 50.3214C140.423 50.785 140.459 50.8771 140.294 52.1797C139.968 54.7518 138.586 54.888 136.809 52.5229C135.5 50.7822 134.755 48.899 134.336 46.2764L133.975 44.012H129.822C125.032 44.012 123.09 43.6142 121.452 42.2975C120.171 41.2682 119.767 40.6276 119.472 39.1581C118.9 36.3155 122.443 33.1921 126.239 33.1921C128.342 33.1921 129.325 33.7792 129.082 34.8906C128.8 36.1809 127.982 37.0723 126.264 37.9598C124.821 38.705 124.122 39.5731 124.965 39.5731C125.478 39.5731 127.537 38.5397 127.965 38.0675C128.514 37.4618 128.734 37.4862 134.356 38.7774C141.977 40.528 146.36 40.2586 149.341 37.8563C150.619 36.8265 152.38 34.0741 152.591 32.776C152.757 31.7603 151.845 32.1909 151.416 33.3308C150.845 34.8509 149.309 36.8565 148.171 37.5686C146.93 38.3446 144.034 39.0182 141.936 39.0185C139.893 39.0188 135.256 38.2092 135.256 37.8522C135.256 37.3728 135.93 36.3851 136.578 35.9143C137.175 35.4801 137.183 35.4321 136.683 35.2565C135.996 35.0154 135.075 35.7578 134.615 36.9225L134.269 37.7989L131.959 37.2757C130.689 36.988 129.622 36.7266 129.587 36.6953C129.553 36.6636 129.691 36.1221 129.895 35.4918C130.336 34.1235 131.821 32.9347 134.587 31.7359C136.225 31.0262 136.764 30.9252 138.406 31.0209C140.191 31.125 140.608 31.2781 142.406 32.4888C142.98 32.8756 143.24 32.501 142.854 31.8416C142.672 31.5303 141.649 30.8936 140.58 30.4267C138.477 29.5081 137.067 28.2349 137.088 27.2753C137.095 26.9438 137.28 26.2138 137.499 25.6531C137.721 25.0841 137.787 24.4724 137.65 24.2682C137.332 23.7971 136.96 24.1653 136.51 25.396C136.002 26.7865 136.088 27.8796 136.787 28.9141L137.408 29.8341L136.106 30.1548C134.409 30.5734 132.948 31.2673 131.216 32.4775L129.812 33.459L128.67 32.7432C127.684 32.1251 127.298 32.0458 125.84 32.1628C122.846 32.4031 120.031 34.238 118.824 36.7358C118.228 37.9701 118.226 37.9706 116.968 37.7878C115.094 37.5154 112.706 36.4212 112.012 35.5165C111.046 34.2566 110.633 32.7224 110.763 30.8758C110.918 28.6711 111.887 26.8547 113.888 25.0231C115.291 23.7389 120.088 20.6005 120.322 20.8142C120.372 20.8605 120.197 21.4486 119.932 22.1209C119.635 22.8758 119.45 24.2474 119.449 25.7084L119.449 28.0732L118.261 28.6991C117.608 29.0431 117.074 29.4385 117.074 29.5774C117.074 30.1243 117.682 30.1204 118.706 29.5672C119.481 29.1485 120.182 29.0101 121.23 29.0692C123.072 29.1729 123.272 28.486 121.51 28.1046L120.34 27.8513L120.457 25.1726C120.56 22.8422 120.686 22.3195 121.434 21.1523C122.168 20.0054 122.606 19.6789 124.456 18.8999C125.646 18.3988 127.35 17.7918 128.243 17.551L129.867 17.1132L129.369 17.7313C128.542 18.7606 127.719 20.527 127.51 21.7241C127.401 22.3464 127.156 22.8519 126.966 22.8475C125.966 22.8247 125.559 22.9681 125.559 23.3432C125.559 23.647 125.907 23.7611 126.847 23.7655C127.555 23.7688 128.728 24.018 129.453 24.3192C130.179 24.6205 130.903 24.7928 131.064 24.7018C131.515 24.4469 130.462 23.5413 129.31 23.1934C128.142 22.8405 128.115 22.7229 128.754 20.754C129.283 19.1215 130.713 17.4736 132.069 16.9329C133.174 16.4917 135.511 16.4468 137.687 16.8247Z" fill="#9E9E9E" stroke="#9E9E9E"/>
<circle cx="231.551" cy="138.551" r="33.5514" fill="#884A07" stroke="#884A07" stroke-width="4"/>
<rect x="214.754" y="144.016" width="12.6667" height="11.2581" stroke="white"/>
<rect x="232.325" y="144.016" width="15.9206" height="11.2581" stroke="white"/>
<path d="M232.325 122.726H248.246V138.5H232.325V122.726Z" stroke="white"/>
<rect x="214.254" y="123.516" width="1.29032" height="13.6667" rx="0.645161" transform="rotate(-90 214.254 123.516)" fill="white"/>
<rect x="214.254" y="127.387" width="1.29032" height="13.6667" rx="0.645162" transform="rotate(-90 214.254 127.387)" fill="white"/>
<rect x="214.254" y="131.258" width="1.29032" height="13.6667" rx="0.645161" transform="rotate(-90 214.254 131.258)" fill="white"/>
<rect x="214.254" y="135.129" width="1.29032" height="13.6667" rx="0.645161" transform="rotate(-90 214.254 135.129)" fill="white"/>
<rect x="214.254" y="139" width="1.29032" height="13.6667" rx="0.645161" transform="rotate(-90 214.254 139)" fill="white"/>
<rect x="211.5" y="119.5" width="40" height="39" stroke="white"/>
<circle cx="35.5514" cy="139.551" r="33.5514" fill="#884A07" stroke="#884A07" stroke-width="4"/>
<path d="M58.6386 139.644C58.8374 139.84 58.8374 140.16 58.6386 140.356L48.5084 150.34C48.3137 150.531 48.0011 150.531 47.8065 150.34L45.8086 148.371C45.6099 148.175 45.6099 147.854 45.8086 147.658L53.2183 140.356C53.417 140.16 53.417 139.84 53.2183 139.644L45.8086 132.342C45.6099 132.146 45.6099 131.825 45.8086 131.629L47.8065 129.66C48.0011 129.469 48.3137 129.469 48.5084 129.66L58.6386 139.644ZM18.7816 139.644C18.5829 139.84 18.583 140.16 18.7817 140.356L26.1914 147.658C26.3901 147.854 26.3901 148.175 26.1914 148.371L24.1935 150.34C23.9989 150.531 23.6863 150.531 23.4916 150.34L13.3614 140.356C13.1626 140.16 13.1626 139.84 13.3614 139.644L23.4915 129.661C23.6862 129.469 23.9989 129.469 24.1935 129.661L26.1898 131.629C26.3883 131.825 26.3883 132.146 26.1897 132.341L18.7816 139.644ZM31.881 156.673C31.8085 156.87 31.6213 157 31.412 157H28.3994C28.0513 157 27.8097 156.653 27.9303 156.327L40.119 123.327C40.1915 123.13 40.3787 123 40.588 123H43.6006C43.9487 123 44.1903 123.347 44.0697 123.673L31.881 156.673Z" fill="white"/>
<path d="M76 137L91 145.66L91 128.34L76 137ZM88.7778 138.5L101.556 138.5L101.556 135.5L88.7778 135.5L88.7778 138.5ZM107.944 138.5L120.722 138.5L120.722 135.5L107.944 135.5L107.944 138.5ZM127.111 138.5L139.889 138.5L139.889 135.5L127.111 135.5L127.111 138.5ZM146.278 138.5L159.056 138.5L159.056 135.5L146.278 135.5L146.278 138.5ZM165.444 138.5L178.222 138.5L178.222 135.5L165.444 135.5L165.444 138.5ZM184.611 138.5L191 138.5L191 135.5L184.611 135.5L184.611 138.5Z" fill="#884A07"/>
<path d="M232 38L233.5 38L233.5 36.5L232 36.5L232 38ZM232 99L240.66 84L223.34 84L232 99ZM174 39.5L180.444 39.5L180.444 36.5L174 36.5L174 39.5ZM186.889 39.5L199.778 39.5L199.778 36.5L186.889 36.5L186.889 39.5ZM206.222 39.5L219.111 39.5L219.111 36.5L206.222 36.5L206.222 39.5ZM225.556 39.5L232 39.5L232 36.5L225.556 36.5L225.556 39.5ZM230.5 38L230.5 44.7778L233.5 44.7778L233.5 38L230.5 38ZM230.5 51.5556L230.5 65.1111L233.5 65.1111L233.5 51.5556L230.5 51.5556ZM230.5 71.8889L230.5 85.4444L233.5 85.4444L233.5 71.8889L230.5 71.8889Z" fill="#884A07"/>
<path d="M36 38L34.5 38L34.5 36.5L36 36.5L36 38ZM36 99L27.3397 84L44.6603 84L36 99ZM94 39.5L87.5556 39.5L87.5556 36.5L94 36.5L94 39.5ZM81.1111 39.5L68.2222 39.5L68.2222 36.5L81.1111 36.5L81.1111 39.5ZM61.7778 39.5L48.8889 39.5L48.8889 36.5L61.7778 36.5L61.7778 39.5ZM42.4444 39.5L36 39.5L36 36.5L42.4444 36.5L42.4444 39.5ZM37.5 38L37.5 44.7778L34.5 44.7778L34.5 38L37.5 38ZM37.5 51.5556L37.5 65.1111L34.5 65.1111L34.5 51.5556L37.5 51.5556ZM37.5 71.8889L37.5 85.4444L34.5 85.4444L34.5 71.8889L37.5 71.8889Z" fill="#884A07"/>
</svg>
