<svg width="300" height="175" viewBox="0 0 300 175" fill="none" xmlns="http://www.w3.org/2000/svg">
<circle cx="151" cy="36" r="33" stroke="#9E9E9E" stroke-width="4"/>
<path d="M166.423 38.8426H165.923V39.3426V47.5432L158.116 39.0192L157.968 38.8572L157.749 38.8569L148.716 38.8426H148.715C148.132 38.8426 147.529 38.2585 147.529 37.3565V37.35V37.3431V37.3361V37.3288V37.3212V37.3134V37.3053V37.297V37.2884V37.2796V37.2705V37.2612V37.2516V37.2418V37.2318V37.2215V37.211V37.2003V37.1893V37.1781V37.1666V37.1549V37.143V37.1308V37.1185V37.1058V37.093V37.0799V37.0666V37.0531V37.0393V37.0254V37.0112V36.9968V36.9821V36.9673V36.9522V36.9369V36.9214V36.9057V36.8898V36.8736V36.8573V36.8407V36.8239V36.8069V36.7897V36.7723V36.7547V36.7369V36.7189V36.7007V36.6823V36.6636V36.6448V36.6258V36.6066V36.5872V36.5676V36.5478V36.5278V36.5076V36.4872V36.4667V36.4459V36.425V36.4039V36.3826V36.3611V36.3394V36.3175V36.2955V36.2733V36.2509V36.2283V36.2055V36.1826V36.1595V36.1362V36.1127V36.0891V36.0653V36.0413V36.0172V35.9929V35.9684V35.9438V35.919V35.894V35.8689V35.8436V35.8182V35.7926V35.7668V35.7409V35.7148V35.6886V35.6622V35.6356V35.6089V35.5821V35.5551V35.5279V35.5007V35.4732V35.4456V35.4179V35.39V35.362V35.3339V35.3056V35.2771V35.2486V35.2198V35.191V35.162V35.1329V35.1036V35.0743V35.0447V35.0151V34.9853V34.9554V34.9254V34.8953V34.865V34.8346V34.804V34.7734V34.7426V34.7118V34.6807V34.6496V34.6184V34.587V34.5556V34.524V34.4923V34.4605V34.4286V34.3966V34.3644V34.3322V34.2998V34.2674V34.2348V34.2022V34.1694V34.1366V34.1036V34.0706V34.0374V34.0042V33.9708V33.9374V33.9038V33.8702V33.8365V33.8027V33.7688V33.7348V33.7007V33.6666V33.6323V33.598V33.5636V33.5291V33.4946V33.4599V33.4252V33.3904V33.3555V33.3205V33.2855V33.2504V33.2152V33.18V33.1446V33.1093V33.0738V33.0383V33.0027V32.967V32.9313V32.8955V32.8597V32.8238V32.7878V32.7518V32.7157V32.6796V32.6434V32.6071V32.5708V32.5345V32.4981V32.4616V32.4251V32.3886V32.352V32.3153V32.2786V32.2419V32.2051V32.1683V32.1314V32.0945V32.0576V32.0206V31.9836V31.9466V31.9095V31.8724V31.8352V31.798V31.7608V31.7236V31.6863V31.649V31.6117V31.5743V31.537V31.4996V31.4621V31.4247V31.3873V31.3498V31.3123V31.2748V31.2372V31.1997V31.1621V31.1246V31.087V31.0494V31.0118V30.9742V30.9366V30.899V30.8613V30.8237V30.7861V30.7484V30.7108V30.6732V30.6355V30.5979V30.5603V30.5226V30.485V30.4474V30.4098V30.3722V30.3346V30.297V30.2594V30.2219V30.1843V30.1468V30.1093V30.0718V30.0343V29.9969V29.9594V29.922V29.8846V29.8472V29.8099V29.7726V29.7353V29.698V29.6608V29.6236V29.5864V29.5492V29.5121V29.475V29.438V29.401V29.364V29.327V29.2901V29.2533V29.2165V29.1797V29.1429V29.1062V29.0696V29.033V28.9964V28.9599V28.9235V28.8871V28.8507V28.8144V28.7782V28.742V28.7058V28.6698V28.6337V28.5978V28.5619V28.526V28.4902V28.4545V28.4189V28.3833V28.3478V28.3123V28.2769V28.2416V28.2063V28.1712V28.136V28.101V28.0661V28.0312V27.9964V27.9616V27.927V27.8924V27.8579V27.8235V27.7892V27.7549V27.7208V27.6867V27.6527V27.6188V27.585V27.5513V27.5177V27.4841V27.4507V27.4174V27.3841V27.351V27.3179V27.2849V27.2521V27.2193V27.1867V27.1541V27.1217V27.0893V27.0571V27.0249V26.9929V26.961V26.9292V26.8975V26.8659V26.8344V26.8031V26.7719V26.7407V26.7097V26.6788V26.6481V26.6174V26.5869V26.5565V26.5262V26.4961V26.466V26.4361V26.4064V26.3767V26.3472V26.3178V26.2886V26.2594V26.2304V26.2016V26.1729V26.1443V26.1159V26.0876V26.0594V26.0314V26.0035V25.9758V25.9482V25.9208V25.8935V25.8663V25.8393V25.8125V25.7858V25.7592V25.7328V25.7066V25.6805V25.6546V25.6288V25.6032V25.5778V25.5525V25.5273V25.5024V25.4776V25.4529V25.4285V25.4042V25.38V25.356V25.3322V25.3086V25.2852V25.2619V25.2388V25.2158V25.1931V25.1705V25.1481V25.1259V25.1038V25.0819V25.0603V25.0388V25.0175V24.9963V24.9754V24.9546V24.9341V24.9137V24.8935V24.8735V24.8537V24.8341V24.8147V24.7955V24.7765V24.7576V24.739V24.7206V24.7024V24.6844V24.6665V24.6489V24.6315V24.6143V24.5973V24.5806V24.564V24.5476V24.5315V24.5155V24.4998V24.4843V24.469V24.4539V24.4391V24.4244V24.41V24.3958V24.3819V24.3681V24.3546V24.3413V24.3282V24.3154V24.3027V24.2903V24.2782V24.2663V24.2546V24.2431V24.2319V24.2209V24.2101V24.1996V24.1893V24.1793V24.1695V24.1599V24.1506V24.1416V24.1327V24.1242V24.1158V24.1078V24.0999V24.0924V24.085V24.0779V24.0711V24.0646V24.0582V24.0522V24.0464V24.0409V24.0356V24.0306V24.0258V24.0213V24.0171V24.0131V24.0094V24.006V24.0028V23.9999V23.9973V23.995V23.9929V23.9911V23.9896V23.9883V23.9873V23.9866V23.9862C147.529 23.9861 147.529 23.9861 147.029 23.9861H147.529C147.529 23.0841 148.132 22.5 148.715 22.5H168.952C169.535 22.5 170.139 23.0841 170.139 23.9861H170.639C170.139 23.9861 170.139 23.9861 170.139 23.9862V23.9866V23.9873V23.9883V23.9896V23.9911V23.9929V23.995V23.9973V23.9999V24.0028V24.006V24.0094V24.0131V24.0171V24.0213V24.0258V24.0306V24.0356V24.0409V24.0464V24.0522V24.0582V24.0646V24.0711V24.0779V24.085V24.0924V24.0999V24.1078V24.1158V24.1242V24.1327V24.1416V24.1506V24.1599V24.1695V24.1793V24.1893V24.1996V24.2101V24.2209V24.2319V24.2431V24.2546V24.2663V24.2782V24.2903V24.3027V24.3154V24.3282V24.3413V24.3546V24.3681V24.3819V24.3958V24.41V24.4244V24.4391V24.4539V24.469V24.4843V24.4998V24.5155V24.5315V24.5476V24.564V24.5806V24.5973V24.6143V24.6315V24.6489V24.6665V24.6844V24.7024V24.7206V24.739V24.7576V24.7765V24.7955V24.8147V24.8341V24.8537V24.8735V24.8935V24.9137V24.9341V24.9546V24.9754V24.9963V25.0175V25.0388V25.0603V25.0819V25.1038V25.1259V25.1481V25.1705V25.1931V25.2158V25.2388V25.2619V25.2852V25.3086V25.3322V25.356V25.38V25.4042V25.4285V25.4529V25.4776V25.5024V25.5273V25.5525V25.5778V25.6032V25.6288V25.6546V25.6805V25.7066V25.7328V25.7592V25.7858V25.8125V25.8393V25.8663V25.8935V25.9208V25.9482V25.9758V26.0035V26.0314V26.0594V26.0876V26.1159V26.1443V26.1729V26.2016V26.2304V26.2594V26.2886V26.3178V26.3472V26.3767V26.4064V26.4361V26.466V26.4961V26.5262V26.5565V26.5869V26.6174V26.6481V26.6788V26.7097V26.7407V26.7719V26.8031V26.8344V26.8659V26.8975V26.9292V26.961V26.9929V27.0249V27.0571V27.0893V27.1217V27.1541V27.1867V27.2193V27.2521V27.2849V27.3179V27.351V27.3841V27.4174V27.4507V27.4841V27.5177V27.5513V27.585V27.6188V27.6527V27.6867V27.7208V27.7549V27.7892V27.8235V27.8579V27.8924V27.927V27.9616V27.9964V28.0312V28.0661V28.101V28.136V28.1712V28.2063V28.2416V28.2769V28.3123V28.3478V28.3833V28.4189V28.4545V28.4902V28.526V28.5619V28.5978V28.6337V28.6698V28.7058V28.742V28.7782V28.8144V28.8507V28.8871V28.9235V28.9599V28.9964V29.033V29.0696V29.1062V29.1429V29.1797V29.2165V29.2533V29.2901V29.327V29.364V29.401V29.438V29.475V29.5121V29.5492V29.5864V29.6236V29.6608V29.698V29.7353V29.7726V29.8099V29.8472V29.8846V29.922V29.9594V29.9969V30.0343V30.0718V30.1093V30.1468V30.1843V30.2219V30.2594V30.297V30.3346V30.3722V30.4098V30.4474V30.485V30.5226V30.5603V30.5979V30.6355V30.6732V30.7108V30.7484V30.7861V30.8237V30.8613V30.899V30.9366V30.9742V31.0118V31.0494V31.087V31.1246V31.1621V31.1997V31.2372V31.2748V31.3123V31.3498V31.3873V31.4247V31.4621V31.4996V31.537V31.5743V31.6117V31.649V31.6863V31.7236V31.7608V31.798V31.8352V31.8724V31.9095V31.9466V31.9836V32.0206V32.0576V32.0945V32.1314V32.1683V32.2051V32.2419V32.2786V32.3153V32.352V32.3886V32.4251V32.4616V32.4981V32.5345V32.5708V32.6071V32.6434V32.6796V32.7157V32.7518V32.7878V32.8238V32.8597V32.8955V32.9313V32.967V33.0027V33.0383V33.0738V33.1093V33.1446V33.18V33.2152V33.2504V33.2855V33.3205V33.3555V33.3904V33.4252V33.4599V33.4946V33.5291V33.5636V33.598V33.6323V33.6666V33.7007V33.7348V33.7688V33.8027V33.8365V33.8702V33.9038V33.9374V33.9708V34.0042V34.0374V34.0706V34.1036V34.1366V34.1694V34.2022V34.2348V34.2674V34.2998V34.3322V34.3644V34.3966V34.4286V34.4605V34.4923V34.524V34.5556V34.587V34.6184V34.6496V34.6807V34.7118V34.7426V34.7734V34.804V34.8346V34.865V34.8953V34.9254V34.9554V34.9853V35.0151V35.0447V35.0743V35.1036V35.1329V35.162V35.191V35.2198V35.2486V35.2771V35.3056V35.3339V35.362V35.39V35.4179V35.4456V35.4732V35.5007V35.5279V35.5551V35.5821V35.6089V35.6356V35.6622V35.6886V35.7148V35.7409V35.7668V35.7926V35.8182V35.8436V35.8689V35.894V35.919V35.9438V35.9684V35.9929V36.0172V36.0413V36.0653V36.0891V36.1127V36.1362V36.1595V36.1826V36.2055V36.2283V36.2509V36.2733V36.2955V36.3175V36.3394V36.3611V36.3826V36.4039V36.425V36.4459V36.4667V36.4872V36.5076V36.5278V36.5478V36.5676V36.5872V36.6066V36.6258V36.6448V36.6636V36.6823V36.7007V36.7189V36.7369V36.7547V36.7723V36.7897V36.8069V36.8239V36.8407V36.8573V36.8736V36.8898V36.9057V36.9214V36.9369V36.9522V36.9673V36.9821V36.9968V37.0112V37.0254V37.0393V37.0531V37.0666V37.0799V37.093V37.1058V37.1185V37.1308V37.143V37.1549V37.1666V37.1781V37.1893V37.2003V37.211V37.2215V37.2318V37.2418V37.2516V37.2612V37.2705V37.2796V37.2884V37.297V37.3053V37.3134V37.3212V37.3288V37.3361V37.3431V37.35V37.3565C170.139 38.2585 169.535 38.8426 168.952 38.8426H168.947H168.941H168.936H168.93H168.925H168.919H168.914H168.908H168.903H168.897H168.891H168.886H168.88H168.874H168.869H168.863H168.857H168.852H168.846H168.84H168.834H168.829H168.823H168.817H168.811H168.805H168.8H168.794H168.788H168.782H168.776H168.77H168.764H168.758H168.753H168.747H168.741H168.735H168.729H168.723H168.717H168.711H168.705H168.699H168.693H168.687H168.68H168.674H168.668H168.662H168.656H168.65H168.644H168.638H168.632H168.625H168.619H168.613H168.607H168.601H168.595H168.588H168.582H168.576H168.57H168.563H168.557H168.551H168.545H168.538H168.532H168.526H168.519H168.513H168.507H168.501H168.494H168.488H168.482H168.475H168.469H168.462H168.456H168.45H168.443H168.437H168.431H168.424H168.418H168.411H168.405H168.398H168.392H168.386H168.379H168.373H168.366H168.36H168.353H168.347H168.34H168.334H168.327H168.321H168.314H168.308H168.301H168.295H168.288H168.282H168.275H168.269H168.262H168.256H168.249H168.242H168.236H168.229H168.223H168.216H168.21H168.203H168.197H168.19H168.183H168.177H168.17H168.164H168.157H168.151H168.144H168.137H168.131H168.124H168.118H168.111H168.104H168.098H168.091H168.085H168.078H168.071H168.065H168.058H168.052H168.045H168.038H168.032H168.025H168.018H168.012H168.005H167.999H167.992H167.985H167.979H167.972H167.966H167.959H167.952H167.946H167.939H167.933H167.926H167.919H167.913H167.906H167.9H167.893H167.886H167.88H167.873H167.867H167.86H167.854H167.847H167.84H167.834H167.827H167.821H167.814H167.808H167.801H167.794H167.788H167.781H167.775H167.768H167.762H167.755H167.749H167.742H167.736H167.729H167.723H167.716H167.71H167.703H167.697H167.69H167.684H167.677H167.671H167.664H167.658H167.651H167.645H167.638H167.632H167.626H167.619H167.613H167.606H167.6H167.593H167.587H167.581H167.574H167.568H167.562H167.555H167.549H167.543H167.536H167.53H167.524H167.517H167.511H167.505H167.498H167.492H167.486H167.479H167.473H167.467H167.461H167.454H167.448H167.442H167.436H167.43H167.423H167.417H167.411H167.405H167.399H167.393H167.387H167.38H167.374H167.368H167.362H167.356H167.35H167.344H167.338H167.332H167.326H167.32H167.314H167.308H167.302H167.296H167.29H167.284H167.278H167.272H167.266H167.26H167.254H167.248H167.243H167.237H167.231H167.225H167.219H167.213H167.208H167.202H167.196H167.19H167.185H167.179H167.173H167.167H167.162H167.156H167.15H167.145H167.139H167.134H167.128H167.122H167.117H167.111H167.106H167.1H167.095H167.089H167.084H167.078H167.073H167.067H167.062H167.056H167.051H167.046H167.04H167.035H167.03H167.024H167.019H167.014H167.008H167.003H166.998H166.993H166.988H166.982H166.977H166.972H166.967H166.962H166.957H166.952H166.947H166.942H166.937H166.932H166.927H166.922H166.917H166.912H166.907H166.902H166.897H166.892H166.887H166.882H166.878H166.873H166.868H166.863H166.859H166.854H166.849H166.845H166.84H166.835H166.831H166.826H166.822H166.817H166.813H166.808H166.804H166.799H166.795H166.79H166.786H166.781H166.777H166.773H166.768H166.764H166.76H166.756H166.751H166.747H166.743H166.739H166.735H166.731H166.727H166.722H166.718H166.714H166.71H166.706H166.702H166.698H166.695H166.691H166.687H166.683H166.679H166.675H166.672H166.668H166.664H166.66H166.657H166.653H166.65H166.646H166.642H166.639H166.635H166.632H166.628H166.625H166.621H166.618H166.615H166.611H166.608H166.605H166.601H166.598H166.595H166.592H166.589H166.586H166.582H166.579H166.576H166.573H166.57H166.567H166.564H166.561H166.558H166.556H166.553H166.55H166.547H166.544H166.542H166.539H166.536H166.534H166.531H166.528H166.526H166.523H166.521H166.518H166.516H166.514H166.511H166.509H166.507H166.504H166.502H166.5H166.497H166.495H166.493H166.491H166.489H166.487H166.485H166.483H166.481H166.479H166.477H166.475H166.473H166.472H166.47H166.468H166.466H166.465H166.463H166.461H166.46H166.458H166.457H166.455H166.454H166.452H166.451H166.45H166.448H166.447H166.446H166.444H166.443H166.442H166.441H166.44H166.439H166.438H166.437H166.436H166.435H166.434H166.433H166.432H166.431H166.431H166.43H166.429H166.429H166.428H166.427H166.427H166.426H166.426H166.425H166.425H166.425H166.424H166.424H166.424H166.423H166.423H166.423H166.423H166.423H166.423Z" stroke="#9E9E9E" stroke-linejoin="round"/>
<path fill-rule="evenodd" clip-rule="evenodd" d="M157.589 25.4993C157.589 25.5711 157.671 27.0522 157.734 28.1838C157.775 28.9234 157.786 29.1346 157.817 29.7712C157.835 30.1454 157.856 30.5681 157.864 30.7107C157.872 30.8532 157.894 31.2687 157.913 31.6339C157.931 31.9992 157.955 32.5395 157.965 32.6868C157.965 32.6868 157.982 32.825 158.093 32.825C158.164 32.825 158.928 32.825 158.928 32.825C158.928 32.825 159.453 32.825 159.771 32.825C159.838 32.825 159.876 32.7581 159.88 32.6868C159.884 32.6155 159.917 31.9814 159.953 31.2776C159.989 30.5738 160.026 29.8741 160.034 29.7226C160.043 29.5712 160.057 29.3088 160.067 29.1395C160.076 28.9702 160.099 28.5256 160.117 28.1514C160.135 27.7773 160.156 27.3545 160.165 27.212C160.173 27.0694 160.195 26.6394 160.213 26.2563C160.231 25.8732 160.262 25.6001 160.262 25.4836C160.262 25.4836 160.294 25.2196 160.104 25.2196C159.915 25.2196 159.459 25.2196 158.934 25.2196H157.733C157.559 25.2196 157.589 25.4993 157.589 25.4993Z" fill="#9E9E9E"/>
<path d="M160.156 35.58C160.156 36.2798 159.603 36.8471 158.928 36.8471C158.254 36.8471 157.707 36.2798 157.707 35.58C157.707 34.8802 158.254 34.3129 158.928 34.3129C159.603 34.3129 160.156 34.8802 160.156 35.58Z" fill="#9E9E9E"/>
<path fill-rule="evenodd" clip-rule="evenodd" d="M135.204 55.1899V45.7309H132.681C131.752 45.7309 131 44.8457 131 43.7506V30.4195C131 29.3244 131.752 28.4392 132.681 28.4392H152.859C153.789 28.4392 154.541 29.3244 154.541 30.4195V43.7506C154.541 44.8457 153.789 45.7309 152.859 45.7309L143.853 45.7451L135.204 55.1899ZM140.214 31.873C140.794 31.6592 141.333 31.5222 142.077 31.3991C142.572 31.3172 143.441 31.2673 144.321 31.4308C145.88 31.7201 146.717 32.8137 146.717 34.1278C146.717 35.2474 146.386 35.7277 144.843 36.84C143.787 37.6009 143.652 38.1634 143.582 38.449L143.576 38.4747C143.576 38.4747 143.548 38.8383 143.373 38.8446C143.17 38.8521 142.534 38.8446 142.534 38.8446C142.534 38.8446 141.911 38.8521 141.679 38.8446C141.445 38.8372 141.463 38.5765 141.481 38.3067L141.485 38.2482C141.504 37.9589 141.867 36.7543 142.996 35.945C144.335 34.9855 144.654 34.4605 144.316 33.7698C143.954 33.0301 142.445 32.9842 140.747 33.6613C140.715 33.6738 140.685 33.6862 140.656 33.6983C140.553 33.7401 140.456 33.7799 140.324 33.8207C140.121 33.8836 139.809 33.3044 139.579 32.8773L139.55 32.8234C139.36 32.4759 139.228 32.2356 140.214 31.873ZM142.534 42.5627C143.246 42.5627 143.83 42.0143 143.83 41.3378C143.83 40.6614 143.246 40.113 142.534 40.113C141.822 40.113 141.244 40.6614 141.244 41.3378C141.244 42.0143 141.822 42.5627 142.534 42.5627Z" fill="#9E9E9E"/>
<circle cx="261" cy="139" r="33" stroke="#9E9E9E" stroke-width="4"/>
<path d="M277 157H247V120H264.753L277 133.682V157Z" stroke="#9E9E9E" stroke-width="2"/>
<rect x="251" y="140" width="2" height="21" rx="1" transform="rotate(-90 251 140)" fill="#9E9E9E"/>
<rect x="251" y="146" width="2" height="21" rx="1" transform="rotate(-90 251 146)" fill="#9E9E9E"/>
<rect x="251" y="152" width="2" height="21" rx="1" transform="rotate(-90 251 152)" fill="#9E9E9E"/>
<circle cx="39" cy="139" r="33" fill="#884A07" stroke="#884A07" stroke-width="4"/>
<path fill-rule="evenodd" clip-rule="evenodd" d="M38.0001 119.783C36.8007 119.854 35.509 120.054 34.3652 120.346C30.267 121.393 26.6435 123.736 23.9861 127.058C20.7724 131.076 19.2991 136.179 19.8738 141.302C20.4457 146.401 23.0152 151.038 27.0691 154.287C29.6269 156.338 32.6739 157.703 35.9101 158.251C41.3495 159.17 46.9248 157.724 51.222 154.279C56.7483 149.849 59.4215 142.859 58.2492 135.904C56.9185 128.01 50.756 121.675 42.8921 120.117C41.343 119.81 39.577 119.689 38.0001 119.783ZM38.3787 125.188V129.05L38.0228 129.049C37.0486 129.049 35.0352 128.878 33.7291 128.685C33.0699 128.588 32.3596 128.463 32.3361 128.439C32.2968 128.4 32.8148 127.155 33.1854 126.399C34.5343 123.646 36.2641 121.879 38.091 121.386C38.2076 121.355 38.3201 121.328 38.3409 121.327C38.371 121.326 38.3787 122.117 38.3787 125.188ZM40.4385 121.468C42.1392 122.031 43.7887 123.769 45.0538 126.334C45.4466 127.13 45.9776 128.397 45.9359 128.439C45.9124 128.463 45.2021 128.588 44.5429 128.685C43.2306 128.879 41.2276 129.048 40.234 129.049L39.8933 129.05V125.186V121.323L40.0069 121.343C40.0694 121.354 40.2636 121.411 40.4385 121.468ZM34.1093 122.272C32.8416 123.672 31.7963 125.468 30.9729 127.663C30.8393 128.019 30.8007 128.094 30.7553 128.086C30.4101 128.03 29.0446 127.59 28.3677 127.316C27.7157 127.053 26.5957 126.484 26.5957 126.416C26.5957 126.376 27.1717 125.834 27.5953 125.477C29.0939 124.21 30.747 123.22 32.5629 122.5C33.1236 122.278 34.3166 121.878 34.4342 121.872C34.4555 121.872 34.3093 122.051 34.1093 122.272ZM44.3074 122.009C46.6855 122.745 48.706 123.837 50.5859 125.402C51.0369 125.777 51.6764 126.371 51.6764 126.415C51.6764 126.481 50.6802 126.992 49.9912 127.279C49.3208 127.558 47.9104 128.018 47.5167 128.086C47.4713 128.094 47.4334 128.021 47.302 127.671C46.4453 125.394 45.3492 123.535 44.0289 122.121C43.9005 121.983 43.81 121.871 43.8277 121.871C43.8454 121.871 44.0613 121.933 44.3074 122.009ZM25.8487 127.728C26.8692 128.365 28.3427 128.976 29.8822 129.399C30.1154 129.463 30.3164 129.523 30.3287 129.533C30.341 129.544 30.3235 129.647 30.2897 129.763C29.7704 131.547 29.3545 133.966 29.1859 136.183C29.1408 136.777 29.08 137.951 29.0797 138.235L29.0795 138.379H25.1681H21.2567L21.2776 138.038C21.4843 134.672 22.65 131.42 24.636 128.671C24.8715 128.345 25.5091 127.535 25.5303 127.535C25.5362 127.535 25.6795 127.622 25.8487 127.728ZM53.0747 127.936C54.7042 129.966 55.8669 132.301 56.4933 134.803C56.7503 135.829 56.9288 136.986 56.9946 138.054L57.0148 138.379H53.1036H49.1925L49.1922 138.25C49.1917 138.014 49.1325 136.794 49.1008 136.365C48.9326 134.092 48.5708 131.91 48.0436 129.989C47.9773 129.747 47.9327 129.542 47.9444 129.532C47.9561 129.523 48.1566 129.463 48.3898 129.399C49.9604 128.967 51.4983 128.323 52.5094 127.673C52.626 127.598 52.7284 127.536 52.7369 127.536C52.7454 127.535 52.8974 127.716 53.0747 127.936ZM32.4425 129.986C34.1167 130.286 36.5446 130.532 37.8638 130.534C38.0221 130.534 38.2027 130.543 38.2652 130.553L38.3787 130.572V134.476V138.379H34.4687H30.5586L30.5759 138.054C30.5853 137.874 30.6008 137.558 30.6101 137.349C30.7163 134.991 31.1236 132.422 31.7356 130.253C31.824 129.94 31.854 129.869 31.8933 129.881C31.9201 129.889 32.1672 129.936 32.4425 129.986ZM46.537 130.254C47.1444 132.399 47.5639 135.057 47.6617 137.38C47.6712 137.605 47.6866 137.921 47.696 138.084L47.7131 138.379H43.8032H39.8933V134.475V130.572L39.9879 130.553C40.04 130.542 40.2206 130.534 40.3893 130.534C41.9033 130.533 44.8257 130.211 46.4092 129.871C46.4193 129.869 46.4769 130.041 46.537 130.254ZM29.0797 140.038C29.08 140.322 29.1408 141.496 29.1859 142.09C29.3537 144.295 29.76 146.667 30.2799 148.474C30.3225 148.622 30.3526 148.747 30.3469 148.752C30.3412 148.756 30.1321 148.818 29.8822 148.889C28.3452 149.324 26.9433 149.911 25.9747 150.523C25.8081 150.629 25.6473 150.73 25.6174 150.749C25.5734 150.777 25.5533 150.771 25.5114 150.72C24.405 149.364 23.7932 148.436 23.1273 147.103C22.7996 146.447 22.7211 146.271 22.463 145.611C21.7974 143.909 21.3896 142.06 21.2776 140.235L21.2567 139.894H25.1681H29.0795L29.0797 140.038ZM38.3787 143.797V147.701L38.2652 147.72C38.2027 147.73 38.0221 147.739 37.8638 147.739C36.9178 147.74 34.884 147.914 33.5777 148.106C33.1632 148.166 32.0487 148.359 31.9136 148.393C31.8495 148.409 31.8391 148.387 31.7356 148.021C31.1268 145.871 30.7146 143.265 30.6104 140.908C30.6009 140.692 30.5852 140.375 30.5755 140.204L30.5579 139.894H34.4683H38.3787V143.797ZM47.696 140.189C47.6866 140.351 47.6712 140.668 47.6617 140.893C47.5641 143.212 47.1465 145.856 46.536 148.021C46.4329 148.387 46.4225 148.409 46.3585 148.393C46.2233 148.359 45.1088 148.166 44.6944 148.106C43.3881 147.914 41.3542 147.74 40.4082 147.739C40.2499 147.739 40.0694 147.73 40.0069 147.72L39.8933 147.701V143.797V139.894H43.8032H47.7131L47.696 140.189ZM56.9944 140.235C56.8041 143.341 55.791 146.36 54.054 148.996C53.6494 149.61 52.7941 150.73 52.7052 150.763C52.6906 150.768 52.5997 150.719 52.5032 150.654C51.5221 149.992 50.0393 149.356 48.3898 148.889C48.1399 148.818 47.9308 148.756 47.9251 148.752C47.9194 148.747 47.9491 148.623 47.9913 148.476C48.5133 146.654 48.91 144.343 49.0847 142.105C49.1275 141.556 49.1915 140.317 49.1922 140.022L49.1925 139.894H53.1039H57.0153L56.9944 140.235ZM38.3787 153.087V156.95L38.2652 156.93C37.9048 156.864 37.2247 156.58 36.7885 156.312C36.2411 155.977 35.5564 155.374 35.0478 154.782C34.2043 153.798 33.4019 152.455 32.7592 150.95C32.5497 150.459 32.317 149.853 32.3323 149.838C32.3497 149.82 33.0738 149.69 33.6231 149.605C34.9444 149.402 36.8082 149.239 37.932 149.228L38.3787 149.223V153.087ZM41.1243 149.254C42.5579 149.335 43.9229 149.481 45.0952 149.679C45.75 149.789 45.9514 149.827 45.9514 149.841C45.9514 149.863 45.6631 150.598 45.5581 150.844C44.4877 153.353 43.1483 155.199 41.6851 156.181C41.1889 156.514 40.4449 156.844 39.9917 156.933L39.8933 156.952V153.088V149.223H40.2383C40.428 149.223 40.8267 149.237 41.1243 149.254ZM30.9398 150.518C31.3665 151.689 31.9875 152.984 32.5968 153.974C33.0886 154.773 33.5591 155.401 34.1522 156.05C34.5378 156.471 34.5723 156.46 33.7246 156.186C31.5855 155.494 29.7144 154.494 28.001 153.127C27.4384 152.678 26.6259 151.948 26.6259 151.891C26.6259 151.862 27.0087 151.636 27.4287 151.417C27.8727 151.185 28.494 150.919 29.0795 150.708C29.5603 150.536 30.6641 150.199 30.7606 150.195C30.8107 150.193 30.8419 150.25 30.9398 150.518ZM48.1034 150.359C49.075 150.643 49.8231 150.923 50.5928 151.292C50.9174 151.448 51.586 151.82 51.644 151.877C51.6648 151.897 51.4799 152.081 51.051 152.465C49.0676 154.244 46.6948 155.566 44.1446 156.312C43.9755 156.362 43.8276 156.402 43.816 156.402C43.8043 156.402 43.923 156.262 44.0798 156.092C44.7933 155.315 45.3191 154.596 45.8908 153.615C46.3634 152.805 46.9547 151.54 47.3031 150.594C47.3952 150.344 47.4666 150.193 47.4928 150.193C47.516 150.193 47.7907 150.267 48.1034 150.359Z" fill="white"/>
<path d="M262 39L263.5 39L263.5 37.5L262 37.5L262 39ZM262 97L270.66 82L253.34 82L262 97ZM193 40.5L198.75 40.5L198.75 37.5L193 37.5L193 40.5ZM204.5 40.5L216 40.5L216 37.5L204.5 37.5L204.5 40.5ZM221.75 40.5L233.25 40.5L233.25 37.5L221.75 37.5L221.75 40.5ZM239 40.5L250.5 40.5L250.5 37.5L239 37.5L239 40.5ZM256.25 40.5L262 40.5L262 37.5L256.25 37.5L256.25 40.5ZM260.5 39L260.5 45.4444L263.5 45.4444L263.5 39L260.5 39ZM260.5 51.8889L260.5 64.7778L263.5 64.7778L263.5 51.8889L260.5 51.8889ZM260.5 71.2222L260.5 84.1111L263.5 84.1111L263.5 71.2222L260.5 71.2222Z" fill="#9E9E9E"/>
<path d="M40 39L38.5 39L38.5 37.5L40 37.5L40 39ZM40 97L31.3397 82L48.6603 82L40 97ZM109 40.5L103.25 40.5L103.25 37.5L109 37.5L109 40.5ZM97.5 40.5L86 40.5L86 37.5L97.5 37.5L97.5 40.5ZM80.25 40.5L68.75 40.5L68.75 37.5L80.25 37.5L80.25 40.5ZM63 40.5L51.5 40.5L51.5 37.5L63 37.5L63 40.5ZM45.75 40.5L40 40.5L40 37.5L45.75 37.5L45.75 40.5ZM41.5 39L41.5 45.4444L38.5 45.4444L38.5 39L41.5 39ZM41.5 51.8889L41.5 64.7778L38.5 64.7778L38.5 51.8889L41.5 51.8889ZM41.5 71.2222L41.5 84.1111L38.5 84.1111L38.5 71.2222L41.5 71.2222Z" fill="#884A07"/>
</svg>
