<svg width="230" height="283" viewBox="0 0 230 283" fill="none" xmlns="http://www.w3.org/2000/svg">
<circle cx="35" cy="144" r="33" fill="#884A07" stroke="#884A07" stroke-width="4"/>
<path fill-rule="evenodd" clip-rule="evenodd" d="M30.4685 125.273C25.351 126.425 18.127 129.945 14.7119 132.95C12.0654 135.279 10.9938 137.21 10.8444 139.919C10.6023 144.306 13.2361 147.129 18.0597 147.652C19.4734 147.805 19.5298 147.846 19.7037 148.843C19.9225 150.095 21.8975 152.25 23.5206 153.008C25.2188 153.802 28.4336 154.219 31.4643 154.039C34.0345 153.886 34.1378 153.903 34.253 154.487C34.3187 154.82 34.5221 155.842 34.7045 156.757C35.1403 158.944 36.8973 162.172 38.2386 163.25C40.2987 164.906 41.8528 164.191 42.211 161.423L42.3879 160.054L43.9759 160.318C47.941 160.976 53.227 157.953 53.227 155.027C53.227 154.408 53.5443 154.023 54.7207 153.219C57.6866 151.192 59.0785 148.462 59.0691 144.689C59.0618 141.751 58.3942 139.379 56.7657 136.505C53.834 131.331 46.9106 126.596 40.1387 125.135C37.545 124.575 33.2975 124.636 30.4685 125.273ZM38.6874 125.825C39.5702 125.978 40.8497 126.241 41.5306 126.409L42.7689 126.714L41.4673 127.322C39.8223 128.09 37.7716 129.896 37.7716 130.576C37.7716 131.334 38.0486 131.223 39.1829 130.009C39.7408 129.412 40.8203 128.648 41.5812 128.311C43.5892 127.421 45.045 127.652 47.9555 129.324C50.1871 130.606 54.7337 134.235 53.3228 133.608C52.2585 133.136 49.8335 133.261 48.5631 133.854C47.4206 134.387 47.4 134.387 46.7788 133.857C45.9645 133.162 45.0641 132.908 44.6762 133.263C44.4686 133.453 44.6505 133.678 45.2378 133.956C46.4227 134.517 47.0667 135.225 47.3676 136.298C47.7228 137.565 48.2267 137.408 48.2267 136.029C48.2267 134.898 48.2564 134.865 49.6271 134.473C51.2927 133.995 52.7488 134.184 54.1707 135.062C55.6062 135.947 56.4596 137.237 57.3605 139.882C58.0454 141.893 58.1288 142.546 58.0176 145.032C57.9109 147.419 57.7618 148.107 57.0975 149.284C56.2605 150.767 54.4922 152.408 52.94 153.143C52.0848 153.548 52.0254 153.668 52.1954 154.643C52.3566 155.565 52.2539 155.834 51.3984 156.726C49.7892 158.403 48.0319 159.184 45.5308 159.331C43.7362 159.436 43.0743 159.349 41.7637 158.832C39.2517 157.843 38.3426 156.403 39.5817 155.377C40.1124 154.937 40.5515 154.904 43.4965 155.079C45.6408 155.206 47.023 155.173 47.4064 154.985C48.0804 154.654 48.4167 153.796 48.0719 153.285C47.7973 152.878 47.1661 153.162 47.1661 153.692C47.1661 154.319 46.3033 154.416 43.5028 154.104C40.5763 153.778 39.7963 153.886 38.7565 154.757C37.3722 155.917 38.2232 158.078 40.5539 159.321C41.4227 159.785 41.4594 159.877 41.2942 161.18C40.9676 163.752 39.586 163.888 37.8086 161.523C36.5003 159.782 35.7552 157.899 35.336 155.276L34.9745 153.012H30.8216C26.0322 153.012 24.09 152.614 22.452 151.298C21.1714 150.268 20.7674 149.628 20.4719 148.158C19.9004 145.315 23.443 142.192 27.239 142.192C29.3421 142.192 30.3249 142.779 30.0821 143.891C29.8 145.181 28.9818 146.072 27.2638 146.96C25.8213 147.705 25.1225 148.573 25.9649 148.573C26.4777 148.573 28.5369 147.54 28.9648 147.067C29.5139 146.462 29.7339 146.486 35.356 147.777C42.9771 149.528 47.36 149.259 50.3408 146.856C51.6187 145.827 53.3797 143.074 53.5913 141.776C53.7567 140.76 52.8449 141.191 52.4163 142.331C51.8451 143.851 50.3093 145.856 49.1707 146.569C47.9304 147.345 45.0335 148.018 42.9355 148.019C40.893 148.019 36.2564 147.209 36.2564 146.852C36.2564 146.373 36.9298 145.385 37.578 144.914C38.1753 144.48 38.1829 144.432 37.6825 144.257C36.9964 144.015 36.0749 144.758 35.6149 145.923L35.2688 146.799L32.9593 146.276C31.6892 145.988 30.6219 145.727 30.5873 145.695C30.5531 145.664 30.6913 145.122 30.8946 144.492C31.3358 143.124 32.8211 141.935 35.5873 140.736C37.2246 140.026 37.7641 139.925 39.4063 140.021C41.1906 140.125 41.6076 140.278 43.4059 141.489C43.9804 141.876 44.2396 141.501 43.8538 140.842C43.6719 140.53 42.6486 139.894 41.5797 139.427C39.4775 138.508 38.0668 137.235 38.088 136.275C38.0953 135.944 38.2801 135.214 38.4989 134.653C38.7208 134.084 38.7874 133.472 38.6499 133.268C38.3317 132.797 37.9595 133.165 37.5098 134.396C37.0022 135.786 37.0883 136.88 37.7868 137.914L38.4077 138.834L37.1064 139.155C35.4091 139.573 33.9478 140.267 32.2159 141.477L30.8116 142.459L29.67 141.743C28.6845 141.125 28.2981 141.046 26.8401 141.163C23.846 141.403 21.031 143.238 19.824 145.736C19.2276 146.97 19.2264 146.971 17.9685 146.788C16.0938 146.515 13.7058 145.421 13.0121 144.516C12.046 143.257 11.633 141.722 11.7627 139.876C11.9175 137.671 12.8873 135.855 14.888 134.023C16.2911 132.739 21.088 129.601 21.3217 129.814C21.3723 129.861 21.1968 130.449 20.9323 131.121C20.6347 131.876 20.4501 133.247 20.4495 134.708L20.4486 137.073L19.2609 137.699C18.6079 138.043 18.0736 138.438 18.0736 138.577C18.0736 139.124 18.6821 139.12 19.7064 138.567C20.4813 138.149 21.1823 138.01 22.2296 138.069C24.0721 138.173 24.2715 137.486 22.5099 137.105L21.3395 136.851L21.4571 134.173C21.5596 131.842 21.6862 131.32 22.4335 130.152C23.1675 129.005 23.606 128.679 25.4558 127.9C26.6459 127.399 28.3502 126.792 29.243 126.551L30.8667 126.113L30.3694 126.731C29.5418 127.761 28.719 129.527 28.5099 130.724C28.4011 131.346 28.1563 131.852 27.966 131.847C26.9659 131.825 26.5589 131.968 26.5589 132.343C26.5589 132.647 26.9071 132.761 27.8469 132.766C28.5554 132.769 29.7282 133.018 30.4534 133.319C31.1786 133.621 31.9034 133.793 32.0641 133.702C32.5147 133.447 31.4616 132.541 30.3103 132.193C29.1421 131.841 29.1151 131.723 29.7539 129.754C30.2834 128.122 31.7131 126.474 33.0687 125.933C34.1745 125.492 36.5107 125.447 38.6874 125.825Z" fill="white" stroke="white"/>
<circle cx="195" cy="35" r="33" stroke="#9E9E9E" stroke-width="4"/>
<rect x="178.471" y="40.3878" width="12.4547" height="11.068" stroke="#9E9E9E"/>
<rect x="195.77" y="40.3878" width="15.6582" height="11.068" stroke="#9E9E9E"/>
<path d="M195.77 19.4276H211.428V34.9417H195.77V19.4276Z" stroke="#9E9E9E"/>
<rect x="177.971" y="20.198" width="1.27031" height="13.4547" rx="0.635156" transform="rotate(-90 177.971 20.198)" fill="#9E9E9E"/>
<rect x="177.971" y="24.0089" width="1.27031" height="13.4547" rx="0.635156" transform="rotate(-90 177.971 24.0089)" fill="#9E9E9E"/>
<rect x="177.971" y="27.8198" width="1.27031" height="13.4547" rx="0.635156" transform="rotate(-90 177.971 27.8198)" fill="#9E9E9E"/>
<rect x="177.971" y="31.6308" width="1.27031" height="13.4547" rx="0.635155" transform="rotate(-90 177.971 31.6308)" fill="#9E9E9E"/>
<rect x="177.971" y="35.4417" width="1.27031" height="13.4547" rx="0.635155" transform="rotate(-90 177.971 35.4417)" fill="#9E9E9E"/>
<rect x="175.268" y="16.2519" width="39.3641" height="38.3797" stroke="#9E9E9E"/>
<circle cx="195" cy="248" r="33" stroke="#9E9E9E" stroke-width="4"/>
<path d="M217.724 248.086C217.922 248.281 217.922 248.602 217.724 248.798L207.761 258.616C207.567 258.807 207.254 258.807 207.06 258.616L205.104 256.688C204.905 256.492 204.905 256.172 205.104 255.976L212.387 248.798C212.586 248.602 212.586 248.281 212.387 248.086L205.104 240.908C204.905 240.712 204.905 240.391 205.104 240.195L207.06 238.268C207.254 238.076 207.567 238.076 207.761 238.268L217.724 248.086ZM178.496 248.086C178.297 248.281 178.297 248.602 178.496 248.798L185.78 255.976C185.978 256.172 185.978 256.492 185.78 256.688L183.824 258.616C183.629 258.807 183.316 258.807 183.122 258.616L173.16 248.798C172.961 248.602 172.961 248.281 173.16 248.086L183.122 238.268C183.316 238.076 183.629 238.076 183.824 238.268L185.778 240.195C185.977 240.391 185.976 240.712 185.778 240.907L178.496 248.086ZM191.388 264.851C191.316 265.048 191.129 265.178 190.919 265.178H187.97C187.622 265.178 187.38 264.831 187.501 264.505L199.495 232.032C199.567 231.836 199.755 231.705 199.964 231.705H202.913C203.261 231.705 203.503 232.052 203.382 232.379L191.388 264.851Z" fill="#9E9E9E"/>
<path d="M196 213L204.66 198H187.34L196 213ZM194.5 73V78.8333H197.5V73H194.5ZM194.5 84.6667V96.3333H197.5V84.6667H194.5ZM194.5 102.167V113.833H197.5V102.167H194.5ZM194.5 119.667V131.333H197.5V119.667H194.5ZM194.5 137.167V148.833H197.5V137.167H194.5ZM194.5 154.667V166.333H197.5V154.667H194.5ZM194.5 172.167V183.833H197.5V172.167H194.5ZM194.5 189.667V201.333H197.5V189.667H194.5Z" fill="#9E9E9E"/>
<path d="M154 224L146.229 208.521L136.709 222.991L154 224ZM78.8244 172.747C78.1323 172.292 77.2022 172.483 76.7469 173.176C76.2916 173.868 76.4835 174.798 77.1756 175.253L78.8244 172.747ZM144.691 216.08L134.558 209.414L132.909 211.92L143.042 218.586L144.691 216.08ZM129.491 206.08L119.358 199.414L117.709 201.92L127.842 208.586L129.491 206.08ZM114.291 196.08L104.158 189.414L102.509 191.92L112.642 198.586L114.291 196.08ZM99.0911 186.08L88.9578 179.414L87.3089 181.92L97.4422 188.586L99.0911 186.08ZM83.8911 176.08L78.8244 172.747L77.1756 175.253L82.2422 178.586L83.8911 176.08Z" fill="#9E9E9E"/>
<path d="M154 66L146.229 81.4792L136.709 67.0093L154 66ZM77.1756 114.747L82.2422 111.414L83.8911 113.92L78.8244 117.253L77.1756 114.747ZM87.3089 108.08L97.4422 101.414L99.0911 103.92L88.9578 110.586L87.3089 108.08ZM102.509 98.0802L112.642 91.4135L114.291 93.9198L104.158 100.586L102.509 98.0802ZM117.709 88.0802L127.842 81.4135L129.491 83.9198L119.358 90.5865L117.709 88.0802ZM132.909 78.0802L143.042 71.4135L144.691 73.9198L134.558 80.5865L132.909 78.0802Z" fill="#9E9E9E"/>
</svg>
