<svg width="199" height="70" viewBox="0 0 199 70" fill="none" xmlns="http://www.w3.org/2000/svg">
<path fill-rule="evenodd" clip-rule="evenodd" d="M159.469 16.2726C154.351 17.4253 147.127 20.9451 143.712 23.9503C141.065 26.2791 139.994 28.2097 139.844 30.9189C139.602 35.3065 142.236 38.1294 147.06 38.6523C148.473 38.8055 148.53 38.8462 148.704 39.8425C148.922 41.0946 150.897 43.2502 152.521 44.0085C154.219 44.8016 157.434 45.2186 160.464 45.0388C163.034 44.8863 163.138 44.9029 163.253 45.4866C163.319 45.8201 163.522 46.8419 163.704 47.7574C164.14 49.9439 165.897 53.1718 167.239 54.2499C169.299 55.9059 170.853 55.1912 171.211 52.4233L171.388 51.0542L172.976 51.3177C176.941 51.9755 182.227 48.9526 182.227 46.0271C182.227 45.4076 182.544 45.0233 183.721 44.2193C186.687 42.1924 188.079 39.4619 188.069 35.6891C188.062 32.7508 187.394 30.3787 185.766 27.5048C182.834 22.3309 175.911 17.5962 169.139 16.1347C166.545 15.5751 162.297 15.6356 159.469 16.2726ZM167.687 16.8247C168.57 16.9781 169.85 17.2408 170.531 17.4087L171.769 17.7139L170.467 18.3217C168.822 19.0902 166.772 20.8957 166.772 21.5757C166.772 22.334 167.049 22.2227 168.183 21.0095C168.741 20.4125 169.82 19.6481 170.581 19.311C172.589 18.421 174.045 18.6524 176.956 20.324C179.187 21.606 183.734 25.2348 182.323 24.6084C181.258 24.1356 178.833 24.2607 177.563 24.8536C176.421 25.3868 176.4 25.3868 175.779 24.8569C174.964 24.1623 174.064 23.9081 173.676 24.2632C173.469 24.4533 173.65 24.6777 174.238 24.956C175.423 25.5167 176.067 26.2252 176.368 27.2981C176.723 28.5654 177.227 28.4075 177.227 27.029C177.227 25.8982 177.256 25.8651 178.627 25.4726C180.293 24.9954 181.749 25.1843 183.171 26.0616C184.606 26.9471 185.46 28.2369 186.361 30.882C187.045 32.8934 187.129 33.5456 187.018 36.0322C186.911 38.4187 186.762 39.1068 186.098 40.2842C185.26 41.7671 183.492 43.4084 181.94 44.1433C181.085 44.5481 181.025 44.6679 181.195 45.6425C181.357 46.5653 181.254 46.8336 180.398 47.7258C178.789 49.4034 177.032 50.1836 174.531 50.3306C172.736 50.436 172.074 50.3486 170.764 49.8323C168.252 48.843 167.343 47.4034 168.582 46.3772C169.112 45.9372 169.551 45.9039 172.496 46.0787C174.641 46.2057 176.023 46.1727 176.406 45.9849C177.08 45.6545 177.417 44.7955 177.072 44.2848C176.797 43.8781 176.166 44.1622 176.166 44.6923C176.166 45.3188 175.303 45.4156 172.503 45.104C169.576 44.7783 168.796 44.8857 167.757 45.7568C166.372 46.9168 167.223 49.078 169.554 50.3215C170.423 50.785 170.459 50.8772 170.294 52.1797C169.968 54.7518 168.586 54.888 166.809 52.5229C165.5 50.7823 164.755 48.8991 164.336 46.2765L163.975 44.0121H159.822C155.032 44.0121 153.09 43.6142 151.452 42.2975C150.171 41.2682 149.767 40.6276 149.472 39.1581C148.9 36.3155 152.443 33.1922 156.239 33.1922C158.342 33.1922 159.325 33.7792 159.082 34.8906C158.8 36.1809 157.982 37.0723 156.264 37.9598C154.821 38.705 154.122 39.5731 154.965 39.5731C155.478 39.5731 157.537 38.5397 157.965 38.0675C158.514 37.4619 158.734 37.4863 164.356 38.7774C171.977 40.5281 176.36 40.2587 179.341 37.8564C180.619 36.8265 182.38 34.0741 182.591 32.776C182.757 31.7603 181.845 32.1909 181.416 33.3309C180.845 34.8509 179.309 36.8565 178.171 37.5687C176.93 38.3447 174.034 39.0183 171.936 39.0185C169.893 39.0188 165.256 38.2093 165.256 37.8522C165.256 37.3728 165.93 36.3851 166.578 35.9143C167.175 35.4801 167.183 35.4322 166.683 35.2565C165.996 35.0154 165.075 35.7579 164.615 36.9225L164.269 37.7989L161.959 37.2757C160.689 36.988 159.622 36.7267 159.587 36.6953C159.553 36.6637 159.691 36.1221 159.895 35.4918C160.336 34.1235 161.821 32.9347 164.587 31.7359C166.225 31.0262 166.764 30.9252 168.406 31.021C170.191 31.125 170.608 31.2781 172.406 32.4889C172.98 32.8756 173.24 32.5011 172.854 31.8416C172.672 31.5303 171.649 30.8936 170.58 30.4267C168.477 29.5081 167.067 28.235 167.088 27.2753C167.095 26.9438 167.28 26.2139 167.499 25.6532C167.721 25.0842 167.787 24.4724 167.65 24.2682C167.332 23.7971 166.96 24.1653 166.51 25.396C166.002 26.7865 166.088 27.8796 166.787 28.9141L167.408 29.8341L166.106 30.1548C164.409 30.5735 162.948 31.2673 161.216 32.4775L159.812 33.459L158.67 32.7433C157.684 32.1251 157.298 32.0458 155.84 32.1629C152.846 32.4031 150.031 34.2381 148.824 36.7358C148.228 37.9701 148.226 37.9707 146.968 37.7878C145.094 37.5154 142.706 36.4212 142.012 35.5165C141.046 34.2567 140.633 32.7225 140.763 30.8759C140.918 28.6711 141.887 26.8547 143.888 25.0231C145.291 23.7389 150.088 20.6006 150.322 20.8142C150.372 20.8605 150.197 21.4487 149.932 22.1209C149.635 22.8758 149.45 24.2474 149.449 25.7084L149.449 28.0732L148.261 28.6991C147.608 29.0431 147.074 29.4385 147.074 29.5775C147.074 30.1243 147.682 30.1204 148.706 29.5672C149.481 29.1486 150.182 29.0101 151.23 29.0692C153.072 29.173 153.272 28.4861 151.51 28.1046L150.34 27.8513L150.457 25.1727C150.56 22.8422 150.686 22.3195 151.434 21.1524C152.168 20.0055 152.606 19.6789 154.456 18.8999C155.646 18.3988 157.35 17.7918 158.243 17.551L159.867 17.1132L159.369 17.7313C158.542 18.7606 157.719 20.527 157.51 21.7242C157.401 22.3464 157.156 22.8519 156.966 22.8475C155.966 22.8247 155.559 22.9682 155.559 23.3433C155.559 23.6471 155.907 23.7611 156.847 23.7655C157.555 23.7689 158.728 24.018 159.453 24.3193C160.179 24.6206 160.903 24.7929 161.064 24.7019C161.515 24.4469 160.462 23.5414 159.31 23.1935C158.142 22.8406 158.115 22.7229 158.754 20.754C159.283 19.1216 160.713 17.4736 162.069 16.9329C163.174 16.4918 165.511 16.4468 167.687 16.8247Z" fill="#9E9E9E" stroke="#9E9E9E"/>
<circle cx="164" cy="35" r="33" stroke="#9E9E9E" stroke-width="4"/>
<circle cx="35" cy="35" r="33" fill="#0047A3" stroke="#0047A3" stroke-width="4"/>
<path d="M28.7616 20.6733L27.6511 21.6815L28.7616 20.6733ZM26.5405 19.6898L26.5405 21.1898L26.5405 19.6898ZM18.752 19.6898L18.752 21.1898L18.752 19.6898ZM18.752 51.709H52.1316V48.709H18.752V51.709ZM56.6316 47.209V30.7435H53.6316V47.209H56.6316ZM52.1316 26.2435H35.1806V29.2435H52.1316V26.2435ZM36.2912 26.7352L29.8722 19.665L27.6511 21.6815L34.0701 28.7518L36.2912 26.7352ZM26.5405 18.1898L18.752 18.1898L18.752 21.1898L26.5405 21.1898L26.5405 18.1898ZM14.252 22.6898V27.7435H17.252V22.6898H14.252ZM14.252 27.7435V47.209H17.252V27.7435H14.252ZM35.1806 26.2435H15.752V29.2435H35.1806V26.2435ZM56.6316 30.7435C56.6316 28.2582 54.6169 26.2435 52.1316 26.2435V29.2435C52.96 29.2435 53.6316 29.9151 53.6316 30.7435H56.6316ZM52.1316 51.709C54.6169 51.709 56.6316 49.6943 56.6316 47.209H53.6316C53.6316 48.0375 52.96 48.709 52.1316 48.709V51.709ZM18.752 48.709C17.9235 48.709 17.252 48.0375 17.252 47.209H14.252C14.252 49.6943 16.2667 51.709 18.752 51.709V48.709ZM29.8722 19.665C29.0193 18.7255 27.8094 18.1898 26.5405 18.1898L26.5405 21.1898C26.9634 21.1898 27.3667 21.3684 27.6511 21.6815L29.8722 19.665ZM18.752 18.1898C16.2667 18.1898 14.252 20.2045 14.252 22.6898H17.252C17.252 21.8614 17.9235 21.1898 18.752 21.1898L18.752 18.1898Z" fill="white"/>
<path d="M124 35L109 26.3397L109 43.6603L124 35ZM75 36.5L110.5 36.5L110.5 33.5L75 33.5L75 36.5Z" fill="#0047A3"/>
</svg>
