<svg width="230" height="230" viewBox="0 0 230 230" fill="none" xmlns="http://www.w3.org/2000/svg">
<circle cx="35" cy="115" r="33" stroke="#9E9E9E" stroke-width="4"/>
<path d="M50.4222 117.843H49.9222V118.343V126.543L42.116 118.019L41.9677 117.857L41.748 117.857L32.7155 117.843H32.7148C32.1318 117.843 31.5283 117.258 31.5283 116.357V116.35V116.343V116.336V116.329V116.321V116.313V116.305V116.297V116.288V116.28V116.27V116.261V116.252V116.242V116.232V116.222V116.211V116.2V116.189V116.178V116.167V116.155V116.143V116.131V116.118V116.106V116.093V116.08V116.067V116.053V116.039V116.025V116.011V115.997V115.982V115.967V115.952V115.937V115.921V115.906V115.89V115.874V115.857V115.841V115.824V115.807V115.79V115.772V115.755V115.737V115.719V115.701V115.682V115.664V115.645V115.626V115.607V115.587V115.568V115.548V115.528V115.508V115.487V115.467V115.446V115.425V115.404V115.383V115.361V115.339V115.318V115.295V115.273V115.251V115.228V115.206V115.183V115.159V115.136V115.113V115.089V115.065V115.041V115.017V114.993V114.968V114.944V114.919V114.894V114.869V114.844V114.818V114.793V114.767V114.741V114.715V114.689V114.662V114.636V114.609V114.582V114.555V114.528V114.501V114.473V114.446V114.418V114.39V114.362V114.334V114.306V114.277V114.249V114.22V114.191V114.162V114.133V114.104V114.074V114.045V114.015V113.985V113.955V113.925V113.895V113.865V113.835V113.804V113.773V113.743V113.712V113.681V113.65V113.618V113.587V113.556V113.524V113.492V113.46V113.429V113.397V113.364V113.332V113.3V113.267V113.235V113.202V113.169V113.137V113.104V113.071V113.037V113.004V112.971V112.937V112.904V112.87V112.836V112.803V112.769V112.735V112.701V112.667V112.632V112.598V112.564V112.529V112.495V112.46V112.425V112.39V112.355V112.321V112.285V112.25V112.215V112.18V112.145V112.109V112.074V112.038V112.003V111.967V111.931V111.896V111.86V111.824V111.788V111.752V111.716V111.68V111.643V111.607V111.571V111.534V111.498V111.462V111.425V111.389V111.352V111.315V111.279V111.242V111.205V111.168V111.131V111.095V111.058V111.021V110.984V110.947V110.909V110.872V110.835V110.798V110.761V110.724V110.686V110.649V110.612V110.574V110.537V110.5V110.462V110.425V110.387V110.35V110.312V110.275V110.237V110.2V110.162V110.125V110.087V110.049V110.012V109.974V109.937V109.899V109.861V109.824V109.786V109.748V109.711V109.673V109.636V109.598V109.56V109.523V109.485V109.447V109.41V109.372V109.335V109.297V109.259V109.222V109.184V109.147V109.109V109.072V109.034V108.997V108.959V108.922V108.885V108.847V108.81V108.773V108.735V108.698V108.661V108.624V108.586V108.549V108.512V108.475V108.438V108.401V108.364V108.327V108.29V108.253V108.216V108.18V108.143V108.106V108.07V108.033V107.996V107.96V107.923V107.887V107.851V107.814V107.778V107.742V107.706V107.67V107.634V107.598V107.562V107.526V107.49V107.455V107.419V107.383V107.348V107.312V107.277V107.242V107.206V107.171V107.136V107.101V107.066V107.031V106.996V106.962V106.927V106.892V106.858V106.824V106.789V106.755V106.721V106.687V106.653V106.619V106.585V106.551V106.518V106.484V106.451V106.417V106.384V106.351V106.318V106.285V106.252V106.219V106.187V106.154V106.122V106.089V106.057V106.025V105.993V105.961V105.929V105.898V105.866V105.834V105.803V105.772V105.741V105.71V105.679V105.648V105.617V105.587V105.556V105.526V105.496V105.466V105.436V105.406V105.377V105.347V105.318V105.289V105.259V105.23V105.202V105.173V105.144V105.116V105.088V105.059V105.031V105.004V104.976V104.948V104.921V104.893V104.866V104.839V104.812V104.786V104.759V104.733V104.707V104.681V104.655V104.629V104.603V104.578V104.552V104.527V104.502V104.478V104.453V104.428V104.404V104.38V104.356V104.332V104.309V104.285V104.262V104.239V104.216V104.193V104.17V104.148V104.126V104.104V104.082V104.06V104.039V104.017V103.996V103.975V103.955V103.934V103.914V103.894V103.874V103.854V103.834V103.815V103.795V103.776V103.758V103.739V103.721V103.702V103.684V103.667V103.649V103.632V103.614V103.597V103.581V103.564V103.548V103.531V103.516V103.5V103.484V103.469V103.454V103.439V103.424V103.41V103.396V103.382V103.368V103.355V103.341V103.328V103.315V103.303V103.29V103.278V103.266V103.255V103.243V103.232V103.221V103.21V103.2V103.189V103.179V103.169V103.16V103.151V103.142V103.133V103.124V103.116V103.108V103.1V103.092V103.085V103.078V103.071V103.065V103.058V103.052V103.046V103.041V103.036V103.031V103.026V103.021V103.017V103.013V103.009V103.006V103.003V103V102.997V102.995V102.993V102.991V102.99V102.988V102.987V102.987V102.986C31.5283 102.986 31.5283 102.986 31.0283 102.986H31.5283C31.5283 102.084 32.1318 101.5 32.7148 101.5H52.9519C53.5348 101.5 54.1383 102.084 54.1383 102.986H54.6383C54.1383 102.986 54.1383 102.986 54.1383 102.986V102.987V102.987V102.988V102.99V102.991V102.993V102.995V102.997V103V103.003V103.006V103.009V103.013V103.017V103.021V103.026V103.031V103.036V103.041V103.046V103.052V103.058V103.065V103.071V103.078V103.085V103.092V103.1V103.108V103.116V103.124V103.133V103.142V103.151V103.16V103.169V103.179V103.189V103.2V103.21V103.221V103.232V103.243V103.255V103.266V103.278V103.29V103.303V103.315V103.328V103.341V103.355V103.368V103.382V103.396V103.41V103.424V103.439V103.454V103.469V103.484V103.5V103.516V103.531V103.548V103.564V103.581V103.597V103.614V103.632V103.649V103.667V103.684V103.702V103.721V103.739V103.758V103.776V103.795V103.815V103.834V103.854V103.874V103.894V103.914V103.934V103.955V103.975V103.996V104.017V104.039V104.06V104.082V104.104V104.126V104.148V104.17V104.193V104.216V104.239V104.262V104.285V104.309V104.332V104.356V104.38V104.404V104.428V104.453V104.478V104.502V104.527V104.552V104.578V104.603V104.629V104.655V104.681V104.707V104.733V104.759V104.786V104.812V104.839V104.866V104.893V104.921V104.948V104.976V105.004V105.031V105.059V105.088V105.116V105.144V105.173V105.202V105.23V105.259V105.289V105.318V105.347V105.377V105.406V105.436V105.466V105.496V105.526V105.556V105.587V105.617V105.648V105.679V105.71V105.741V105.772V105.803V105.834V105.866V105.898V105.929V105.961V105.993V106.025V106.057V106.089V106.122V106.154V106.187V106.219V106.252V106.285V106.318V106.351V106.384V106.417V106.451V106.484V106.518V106.551V106.585V106.619V106.653V106.687V106.721V106.755V106.789V106.824V106.858V106.892V106.927V106.962V106.996V107.031V107.066V107.101V107.136V107.171V107.206V107.242V107.277V107.312V107.348V107.383V107.419V107.455V107.49V107.526V107.562V107.598V107.634V107.67V107.706V107.742V107.778V107.814V107.851V107.887V107.923V107.96V107.996V108.033V108.07V108.106V108.143V108.18V108.216V108.253V108.29V108.327V108.364V108.401V108.438V108.475V108.512V108.549V108.586V108.624V108.661V108.698V108.735V108.773V108.81V108.847V108.885V108.922V108.959V108.997V109.034V109.072V109.109V109.147V109.184V109.222V109.259V109.297V109.335V109.372V109.41V109.447V109.485V109.523V109.56V109.598V109.636V109.673V109.711V109.748V109.786V109.824V109.861V109.899V109.937V109.974V110.012V110.049V110.087V110.125V110.162V110.2V110.237V110.275V110.312V110.35V110.387V110.425V110.462V110.5V110.537V110.574V110.612V110.649V110.686V110.724V110.761V110.798V110.835V110.872V110.909V110.947V110.984V111.021V111.058V111.095V111.131V111.168V111.205V111.242V111.279V111.315V111.352V111.389V111.425V111.462V111.498V111.534V111.571V111.607V111.643V111.68V111.716V111.752V111.788V111.824V111.86V111.896V111.931V111.967V112.003V112.038V112.074V112.109V112.145V112.18V112.215V112.25V112.285V112.321V112.355V112.39V112.425V112.46V112.495V112.529V112.564V112.598V112.632V112.667V112.701V112.735V112.769V112.803V112.836V112.87V112.904V112.937V112.971V113.004V113.037V113.071V113.104V113.137V113.169V113.202V113.235V113.267V113.3V113.332V113.364V113.397V113.429V113.46V113.492V113.524V113.556V113.587V113.618V113.65V113.681V113.712V113.743V113.773V113.804V113.835V113.865V113.895V113.925V113.955V113.985V114.015V114.045V114.074V114.104V114.133V114.162V114.191V114.22V114.249V114.277V114.306V114.334V114.362V114.39V114.418V114.446V114.473V114.501V114.528V114.555V114.582V114.609V114.636V114.662V114.689V114.715V114.741V114.767V114.793V114.818V114.844V114.869V114.894V114.919V114.944V114.968V114.993V115.017V115.041V115.065V115.089V115.113V115.136V115.159V115.183V115.206V115.228V115.251V115.273V115.295V115.318V115.339V115.361V115.383V115.404V115.425V115.446V115.467V115.487V115.508V115.528V115.548V115.568V115.587V115.607V115.626V115.645V115.664V115.682V115.701V115.719V115.737V115.755V115.772V115.79V115.807V115.824V115.841V115.857V115.874V115.89V115.906V115.921V115.937V115.952V115.967V115.982V115.997V116.011V116.025V116.039V116.053V116.067V116.08V116.093V116.106V116.118V116.131V116.143V116.155V116.167V116.178V116.189V116.2V116.211V116.222V116.232V116.242V116.252V116.261V116.27V116.28V116.288V116.297V116.305V116.313V116.321V116.329V116.336V116.343V116.35V116.357C54.1383 117.258 53.5348 117.843 52.9519 117.843H52.9464H52.9409H52.9354H52.9299H52.9244H52.9188H52.9133H52.9077H52.9021H52.8965H52.8909H52.8852H52.8796H52.8739H52.8683H52.8626H52.8569H52.8512H52.8454H52.8397H52.8339H52.8282H52.8224H52.8166H52.8108H52.805H52.7991H52.7933H52.7874H52.7816H52.7757H52.7698H52.7639H52.758H52.752H52.7461H52.7401H52.7342H52.7282H52.7222H52.7162H52.7102H52.7042H52.6982H52.6921H52.6861H52.68H52.6739H52.6678H52.6618H52.6557H52.6495H52.6434H52.6373H52.6311H52.625H52.6188H52.6127H52.6065H52.6003H52.5941H52.5879H52.5817H52.5754H52.5692H52.563H52.5567H52.5504H52.5442H52.5379H52.5316H52.5253H52.519H52.5127H52.5064H52.5001H52.4937H52.4874H52.481H52.4747H52.4683H52.462H52.4556H52.4492H52.4428H52.4364H52.43H52.4236H52.4172H52.4108H52.4043H52.3979H52.3915H52.385H52.3786H52.3721H52.3657H52.3592H52.3527H52.3462H52.3398H52.3333H52.3268H52.3203H52.3138H52.3073H52.3008H52.2943H52.2877H52.2812H52.2747H52.2682H52.2616H52.2551H52.2485H52.242H52.2354H52.2289H52.2223H52.2158H52.2092H52.2026H52.1961H52.1895H52.1829H52.1763H52.1698H52.1632H52.1566H52.15H52.1434H52.1368H52.1302H52.1237H52.1171H52.1105H52.1039H52.0973H52.0907H52.0841H52.0775H52.0709H52.0642H52.0576H52.051H52.0444H52.0378H52.0312H52.0246H52.018H52.0114H52.0048H51.9982H51.9916H51.985H51.9783H51.9717H51.9651H51.9585H51.9519H51.9453H51.9387H51.9321H51.9255H51.9189H51.9123H51.9057H51.8991H51.8925H51.886H51.8794H51.8728H51.8662H51.8596H51.853H51.8465H51.8399H51.8333H51.8267H51.8202H51.8136H51.8071H51.8005H51.7939H51.7874H51.7809H51.7743H51.7678H51.7612H51.7547H51.7482H51.7417H51.7351H51.7286H51.7221H51.7156H51.7091H51.7026H51.6961H51.6896H51.6831H51.6767H51.6702H51.6637H51.6573H51.6508H51.6444H51.6379H51.6315H51.6251H51.6186H51.6122H51.6058H51.5994H51.593H51.5866H51.5802H51.5738H51.5675H51.5611H51.5547H51.5484H51.542H51.5357H51.5294H51.523H51.5167H51.5104H51.5041H51.4978H51.4915H51.4853H51.479H51.4727H51.4665H51.4602H51.454H51.4478H51.4416H51.4354H51.4292H51.423H51.4168H51.4106H51.4045H51.3983H51.3922H51.386H51.3799H51.3738H51.3677H51.3616H51.3555H51.3494H51.3434H51.3373H51.3313H51.3253H51.3193H51.3132H51.3072H51.3013H51.2953H51.2893H51.2834H51.2774H51.2715H51.2656H51.2597H51.2538H51.2479H51.2421H51.2362H51.2304H51.2245H51.2187H51.2129H51.2071H51.2013H51.1956H51.1898H51.1841H51.1783H51.1726H51.1669H51.1612H51.1556H51.1499H51.1443H51.1386H51.133H51.1274H51.1218H51.1163H51.1107H51.1052H51.0996H51.0941H51.0886H51.0831H51.0777H51.0722H51.0668H51.0613H51.0559H51.0505H51.0452H51.0398H51.0345H51.0291H51.0238H51.0185H51.0132H51.008H51.0027H50.9975H50.9923H50.9871H50.9819H50.9767H50.9716H50.9665H50.9613H50.9563H50.9512H50.9461H50.9411H50.9361H50.931H50.9261H50.9211H50.9161H50.9112H50.9063H50.9014H50.8965H50.8917H50.8868H50.882H50.8772H50.8724H50.8677H50.8629H50.8582H50.8535H50.8488H50.8441H50.8395H50.8349H50.8303H50.8257H50.8211H50.8166H50.812H50.8075H50.8031H50.7986H50.7942H50.7897H50.7853H50.781H50.7766H50.7723H50.768H50.7637H50.7594H50.7551H50.7509H50.7467H50.7425H50.7384H50.7342H50.7301H50.726H50.7219H50.7179H50.7139H50.7099H50.7059H50.7019H50.698H50.6941H50.6902H50.6863H50.6825H50.6787H50.6749H50.6711H50.6674H50.6637H50.66H50.6563H50.6527H50.649H50.6454H50.6419H50.6383H50.6348H50.6313H50.6278H50.6244H50.621H50.6176H50.6142H50.6108H50.6075H50.6042H50.601H50.5977H50.5945H50.5913H50.5882H50.585H50.5819H50.5788H50.5758H50.5727H50.5697H50.5668H50.5638H50.5609H50.558H50.5551H50.5523H50.5495H50.5467H50.5439H50.5412H50.5385H50.5358H50.5332H50.5306H50.528H50.5254H50.5229H50.5204H50.5179H50.5155H50.5131H50.5107H50.5083H50.506H50.5037H50.5015H50.4992H50.497H50.4948H50.4927H50.4906H50.4885H50.4864H50.4844H50.4824H50.4804H50.4785H50.4766H50.4747H50.4729H50.4711H50.4693H50.4675H50.4658H50.4641H50.4625H50.4609H50.4593H50.4577H50.4562H50.4547H50.4532H50.4518H50.4504H50.449H50.4477H50.4464H50.4451H50.4439H50.4427H50.4415H50.4404H50.4393H50.4382H50.4372H50.4362H50.4352H50.4343H50.4334H50.4325H50.4317H50.4309H50.4301H50.4294H50.4287H50.4281H50.4274H50.4268H50.4263H50.4258H50.4253H50.4248H50.4244H50.424H50.4237H50.4234H50.4231H50.4229H50.4227H50.4225H50.4224H50.4223H50.4222Z" stroke="#9E9E9E" stroke-linejoin="round"/>
<path fill-rule="evenodd" clip-rule="evenodd" d="M41.589 104.499C41.589 104.571 41.6708 106.052 41.7336 107.184C41.7746 107.923 41.7857 108.135 41.8162 108.771C41.8342 109.145 41.8556 109.568 41.8638 109.711C41.8719 109.853 41.8937 110.269 41.912 110.634C41.9304 110.999 41.954 111.54 41.9645 111.687C41.9645 111.687 41.9819 111.825 42.0926 111.825C42.1637 111.825 42.9279 111.825 42.9279 111.825C42.9279 111.825 43.4523 111.825 43.7707 111.825C43.838 111.825 43.8755 111.758 43.8796 111.687C43.8838 111.616 43.9166 110.981 43.9527 110.278C43.9888 109.574 44.0252 108.874 44.0337 108.723C44.0422 108.571 44.0569 108.309 44.0664 108.139C44.0759 107.97 44.0984 107.526 44.1163 107.151C44.1343 106.777 44.1558 106.354 44.164 106.212C44.1724 106.069 44.1941 105.639 44.2123 105.256C44.2306 104.873 44.2619 104.6 44.2619 104.484C44.2619 104.484 44.2933 104.22 44.1038 104.22C43.9143 104.22 43.4588 104.22 42.9337 104.22H41.7327C41.5583 104.22 41.589 104.499 41.589 104.499Z" fill="#9E9E9E"/>
<path d="M44.1553 114.58C44.1553 115.28 43.6023 115.847 42.9279 115.847C42.2534 115.847 41.7067 115.28 41.7067 114.58C41.7067 113.88 42.2534 113.313 42.9279 113.313C43.6023 113.313 44.1553 113.88 44.1553 114.58Z" fill="#9E9E9E"/>
<path fill-rule="evenodd" clip-rule="evenodd" d="M19.2037 134.19V124.731H16.6815C15.7516 124.731 15 123.846 15 122.751V109.42C15 108.324 15.7516 107.439 16.6815 107.439H36.8592C37.789 107.439 38.5406 108.324 38.5406 109.42V122.751C38.5406 123.846 37.789 124.731 36.8592 124.731L27.8532 124.745L19.2037 134.19ZM24.2136 110.873C24.7942 110.659 25.333 110.522 26.0767 110.399C26.5718 110.317 27.4407 110.267 28.3215 110.431C29.8797 110.72 30.7175 111.814 30.7175 113.128C30.7175 114.247 30.3855 114.728 28.8429 115.84C27.7875 116.601 27.6515 117.163 27.5825 117.449L27.5762 117.475C27.5762 117.475 27.5475 117.838 27.373 117.845C27.1697 117.852 26.5338 117.845 26.5338 117.845C26.5338 117.845 25.9115 117.852 25.6792 117.845C25.4449 117.837 25.4629 117.577 25.4814 117.307L25.4853 117.248C25.5039 116.959 25.8671 115.754 26.9965 114.945C28.3353 113.986 28.6538 113.461 28.316 112.77C27.9542 112.03 26.4451 111.984 24.7469 112.661C24.7155 112.674 24.6853 112.686 24.6556 112.698C24.5534 112.74 24.456 112.78 24.3242 112.821C24.121 112.884 23.809 112.304 23.579 111.877L23.5497 111.823C23.3596 111.476 23.2282 111.236 24.2136 110.873ZM26.5338 121.563C27.246 121.563 27.83 121.014 27.83 120.338C27.83 119.661 27.246 119.113 26.5338 119.113C25.8215 119.113 25.2442 119.661 25.2442 120.338C25.2442 121.014 25.8215 121.563 26.5338 121.563Z" fill="#9E9E9E"/>
<path d="M35 187L35 188.5L33.5 188.5L33.5 187L35 187ZM155 187L140 195.66L140 178.34L155 187ZM36.5 155L36.5 160.333L33.5 160.333L33.5 155L36.5 155ZM36.5 165.667L36.5 176.333L33.5 176.333L33.5 165.667L36.5 165.667ZM36.5 181.667L36.5 187L33.5 187L33.5 181.667L36.5 181.667ZM35 185.5L40.7143 185.5L40.7143 188.5L35 188.5L35 185.5ZM46.4286 185.5L57.8571 185.5L57.8571 188.5L46.4286 188.5L46.4286 185.5ZM63.5714 185.5L75 185.5L75 188.5L63.5714 188.5L63.5714 185.5ZM80.7143 185.5L92.1429 185.5L92.1429 188.5L80.7143 188.5L80.7143 185.5ZM97.8571 185.5L109.286 185.5L109.286 188.5L97.8571 188.5L97.8571 185.5ZM115 185.5L126.429 185.5L126.429 188.5L115 188.5L115 185.5ZM132.143 185.5L143.571 185.5L143.571 188.5L132.143 188.5L132.143 185.5Z" fill="#9E9E9E"/>
<path d="M35 43L35 41.5L33.5 41.5L33.5 43L35 43ZM155 43L140 34.3397L140 51.6603L155 43ZM36.5 75L36.5 69.6667L33.5 69.6667L33.5 75L36.5 75ZM36.5 64.3333L36.5 53.6667L33.5 53.6667L33.5 64.3333L36.5 64.3333ZM36.5 48.3333L36.5 43L33.5 43L33.5 48.3333L36.5 48.3333ZM35 44.5L40.7143 44.5L40.7143 41.5L35 41.5L35 44.5ZM46.4286 44.5L57.8571 44.5L57.8571 41.5L46.4286 41.5L46.4286 44.5ZM63.5714 44.5L75 44.5L75 41.5L63.5714 41.5L63.5714 44.5ZM80.7143 44.5L92.1429 44.5L92.1429 41.5L80.7143 41.5L80.7143 44.5ZM97.8571 44.5L109.286 44.5L109.286 41.5L97.8571 41.5L97.8571 44.5ZM115 44.5L126.429 44.5L126.429 41.5L115 41.5L115 44.5ZM132.143 44.5L143.571 44.5L143.571 41.5L132.143 41.5L132.143 44.5Z" fill="#884A07"/>
<circle cx="195" cy="186" r="33" stroke="#9E9E9E" stroke-width="4"/>
<path d="M211 204H181V167H198.753L211 180.682V204Z" stroke="#9E9E9E" stroke-width="2"/>
<rect x="185" y="187" width="2" height="21" rx="1" transform="rotate(-90 185 187)" fill="#9E9E9E"/>
<rect x="185" y="193" width="2" height="21" rx="1" transform="rotate(-90 185 193)" fill="#9E9E9E"/>
<rect x="185" y="199" width="2" height="21" rx="1" transform="rotate(-90 185 199)" fill="#9E9E9E"/>
<circle cx="195" cy="43" r="33" fill="#884A07" stroke="#884A07" stroke-width="4"/>
<path fill-rule="evenodd" clip-rule="evenodd" d="M194 23.7828C192.801 23.854 191.509 24.0542 190.365 24.3463C186.267 25.3929 182.643 27.7362 179.986 31.0584C176.772 35.076 175.299 40.1792 175.874 45.3023C176.446 50.401 179.015 55.0381 183.069 58.2874C185.627 60.3376 188.674 61.7035 191.91 62.2506C197.349 63.1701 202.925 61.724 207.222 58.279C212.748 53.8487 215.422 46.8587 214.249 39.9044C212.918 32.0098 206.756 25.6746 198.892 24.1167C197.343 23.8099 195.577 23.6893 194 23.7828ZM194.379 29.1877V33.0497L194.023 33.0494C193.049 33.0486 191.035 32.878 189.729 32.6855C189.07 32.5883 188.36 32.4628 188.336 32.4392C188.297 32.3999 188.815 31.1555 189.185 30.3993C190.534 27.6463 192.264 25.8787 194.091 25.3864C194.208 25.355 194.32 25.3285 194.341 25.3275C194.371 25.326 194.379 26.1172 194.379 29.1877ZM196.439 25.4685C198.139 26.0306 199.789 27.7695 201.054 30.3341C201.447 31.1301 201.978 32.3975 201.936 32.4392C201.912 32.4628 201.202 32.5883 200.543 32.6855C199.231 32.8789 197.228 33.048 196.234 33.0493L195.893 33.0497V29.1863V25.3228L196.007 25.3431C196.069 25.3543 196.264 25.4108 196.439 25.4685ZM190.109 26.2722C188.842 27.6717 187.796 29.4682 186.973 31.6627C186.839 32.0188 186.801 32.094 186.755 32.0865C186.41 32.0301 185.045 31.5896 184.368 31.3165C183.716 31.0534 182.596 30.4844 182.596 30.4164C182.596 30.376 183.172 29.8345 183.595 29.4766C185.094 28.2104 186.747 27.2199 188.563 26.5C189.124 26.2777 190.317 25.8777 190.434 25.8725C190.455 25.8716 190.309 26.0515 190.109 26.2722ZM200.307 26.0093C202.685 26.745 204.706 27.8368 206.586 29.4019C207.037 29.7774 207.676 30.3715 207.676 30.415C207.676 30.4813 206.68 30.9921 205.991 31.2789C205.321 31.5581 203.91 32.0181 203.517 32.086C203.471 32.0939 203.433 32.0208 203.302 31.6715C202.445 29.3936 201.349 27.5347 200.029 26.1207C199.901 25.9833 199.81 25.8708 199.828 25.8708C199.845 25.8708 200.061 25.9331 200.307 26.0093ZM181.849 31.7276C182.869 32.3655 184.343 32.976 185.882 33.3986C186.115 33.4627 186.316 33.5234 186.329 33.5335C186.341 33.5436 186.323 33.6468 186.29 33.7628C185.77 35.5474 185.355 37.9665 185.186 40.1832C185.141 40.7768 185.08 41.9506 185.08 42.2354L185.079 42.3793H181.168H177.257L177.278 42.0385C177.484 38.6718 178.65 35.4202 180.636 32.6711C180.871 32.3451 181.509 31.5352 181.53 31.5352C181.536 31.5352 181.679 31.6218 181.849 31.7276ZM209.075 31.9365C210.704 33.966 211.867 36.3013 212.493 38.8028C212.75 39.8293 212.929 40.9865 212.995 42.0536L213.015 42.3793H209.104H205.193L205.192 42.2505C205.192 42.014 205.133 40.7943 205.101 40.3649C204.933 38.092 204.571 35.9099 204.044 33.9889C203.977 33.7474 203.933 33.542 203.944 33.5324C203.956 33.5229 204.157 33.4627 204.39 33.3986C205.96 32.9672 207.498 32.323 208.509 31.6731C208.626 31.5981 208.728 31.5364 208.737 31.536C208.745 31.5356 208.897 31.7158 209.075 31.9365ZM188.443 33.9858C190.117 34.2863 192.545 34.5319 193.864 34.5342C194.022 34.5344 194.203 34.5431 194.265 34.5534L194.379 34.5722V38.4757V42.3793H190.469H186.559L186.576 42.0536C186.585 41.8745 186.601 41.5576 186.61 41.3494C186.716 38.9907 187.124 36.4223 187.736 34.2531C187.824 33.9399 187.854 33.8691 187.893 33.8811C187.92 33.8893 188.167 33.9364 188.443 33.9858ZM202.537 34.2538C203.144 36.3994 203.564 39.0575 203.662 41.3797C203.671 41.6046 203.687 41.9215 203.696 42.0839L203.713 42.3793H199.803H195.893V38.4755V34.5718L195.988 34.5529C196.04 34.5425 196.221 34.5339 196.389 34.5338C197.903 34.533 200.826 34.2116 202.409 33.8715C202.419 33.8694 202.477 34.0414 202.537 34.2538ZM185.08 44.0377C185.08 44.3224 185.141 45.4963 185.186 46.0899C185.354 48.2955 185.76 50.667 186.28 52.474C186.322 52.622 186.353 52.747 186.347 52.7517C186.341 52.7564 186.132 52.8182 185.882 52.889C184.345 53.3243 182.943 53.9107 181.975 54.5233C181.808 54.6286 181.647 54.7302 181.617 54.7491C181.573 54.7768 181.553 54.7712 181.511 54.72C180.405 53.3639 179.793 52.4357 179.127 51.103C178.8 50.447 178.721 50.2709 178.463 49.6108C177.797 47.909 177.39 46.0597 177.278 44.2346L177.257 43.8938H181.168H185.079L185.08 44.0377ZM194.379 47.7973V51.7009L194.265 51.7196C194.203 51.73 194.022 51.7386 193.864 51.7388C192.918 51.7399 190.884 51.914 189.578 52.1057C189.163 52.1665 188.049 52.3587 187.914 52.3926C187.85 52.4086 187.839 52.3869 187.736 52.0214C187.127 49.8708 186.715 47.2646 186.61 44.9085C186.601 44.692 186.585 44.3751 186.575 44.2043L186.558 43.8938H190.468H194.379V47.7973ZM203.696 44.1891C203.687 44.3515 203.671 44.6685 203.662 44.8934C203.564 47.2125 203.147 49.8562 202.536 52.0214C202.433 52.387 202.423 52.4087 202.358 52.3926C202.223 52.3587 201.109 52.1665 200.694 52.1057C199.388 51.914 197.354 51.7399 196.408 51.7388C196.25 51.7386 196.069 51.73 196.007 51.7196L195.893 51.7009V47.7973V43.8938H199.803H203.713L203.696 44.1891ZM212.994 44.2346C212.804 47.3412 211.791 50.36 210.054 52.9961C209.649 53.6101 208.794 54.7304 208.705 54.7626C208.691 54.7679 208.6 54.719 208.503 54.6539C207.522 53.9924 206.039 53.3562 204.39 52.889C204.14 52.8182 203.931 52.7564 203.925 52.7517C203.919 52.747 203.949 52.6229 203.991 52.4759C204.513 50.6542 204.91 48.3426 205.085 46.105C205.128 45.5561 205.191 44.3175 205.192 44.0225L205.193 43.8938H209.104H213.015L212.994 44.2346ZM194.379 57.0868V60.9502L194.265 60.9296C193.905 60.8642 193.225 60.5798 192.788 60.3123C192.241 59.9766 191.556 59.3745 191.048 58.7817C190.204 57.7985 189.402 56.455 188.759 54.9499C188.55 54.4592 188.317 53.853 188.332 53.8376C188.35 53.8202 189.074 53.69 189.623 53.6055C190.944 53.4023 192.808 53.2389 193.932 53.2278L194.379 53.2233V57.0868ZM197.124 53.2539C198.558 53.335 199.923 53.481 201.095 53.6787C201.75 53.7892 201.951 53.8274 201.951 53.8413C201.951 53.8628 201.663 54.5977 201.558 54.8439C200.488 57.3533 199.148 59.199 197.685 60.1809C197.189 60.5139 196.445 60.8443 195.992 60.933L195.893 60.9523V57.0878V53.2233H196.238C196.428 53.2233 196.827 53.2371 197.124 53.2539ZM186.94 54.5184C187.366 55.6888 187.987 56.984 188.597 57.974C189.089 58.773 189.559 59.4009 190.152 60.0498C190.538 60.4715 190.572 60.4605 189.725 60.1862C187.586 59.494 185.714 58.4939 184.001 57.1271C183.438 56.6783 182.626 55.9478 182.626 55.8908C182.626 55.8618 183.009 55.6358 183.429 55.4167C183.873 55.1852 184.494 54.9186 185.079 54.7084C185.56 54.5358 186.664 54.1989 186.761 54.1953C186.811 54.1934 186.842 54.2497 186.94 54.5184ZM204.103 54.3588C205.075 54.6429 205.823 54.9234 206.593 55.2923C206.917 55.4478 207.586 55.8197 207.644 55.8769C207.665 55.8974 207.48 56.0809 207.051 56.4655C205.068 58.2441 202.695 59.5657 200.145 60.3122C199.976 60.3617 199.828 60.4022 199.816 60.4022C199.804 60.4022 199.923 60.2625 200.08 60.0917C200.793 59.3148 201.319 58.5957 201.891 57.6155C202.363 56.8051 202.955 55.5402 203.303 54.5943C203.395 54.3441 203.467 54.1931 203.493 54.1929C203.516 54.1928 203.791 54.2674 204.103 54.3588Z" fill="white"/>
</svg>
