<svg width="50" height="50" viewBox="0 0 50 50" fill="none" xmlns="http://www.w3.org/2000/svg">
<path d="M35 4.64286H45V45.3571C45 47.231 43.5076 48.75 41.6667 48.75H8.33333C6.49238 48.75 5 47.231 5 45.3571V4.64286H15M15 1.25H35V8.03571C35 9.90954 33.5076 11.4286 31.6667 11.4286H18.3333C16.4924 11.4286 15 9.90954 15 8.03571V1.25Z" stroke="#444444" stroke-width="2"/>
<path fill-rule="evenodd" clip-rule="evenodd" d="M14.5337 23.667L21.8999 13.917L23.666 16.2421L14.5337 28.167L9.66602 21.8108L11.416 19.542L14.5337 23.667Z" fill="#444444"/>
<path fill-rule="evenodd" clip-rule="evenodd" d="M14.5337 39.5L21.8999 29.75L23.666 32.0751L14.5337 44L9.66602 37.6438L11.416 35.375L14.5337 39.5Z" fill="#444444"/>
<path d="M36.1107 22.833C36.663 22.833 37.1107 22.3853 37.1107 21.833C37.1107 21.2807 36.663 20.833 36.1107 20.833V22.833ZM26.7773 20.833C26.2251 20.833 25.7773 21.2807 25.7773 21.833C25.7773 22.3853 26.2251 22.833 26.7773 22.833V20.833ZM36.1107 38.6663C36.663 38.6663 37.1107 38.2186 37.1107 37.6663C37.1107 37.1141 36.663 36.6663 36.1107 36.6663V38.6663ZM26.7773 36.6663C26.2251 36.6663 25.7773 37.1141 25.7773 37.6663C25.7773 38.2186 26.2251 38.6663 26.7773 38.6663V36.6663ZM36.1107 20.833H26.7773V22.833H36.1107V20.833ZM36.1107 36.6663H26.7773V38.6663H36.1107V36.6663Z" fill="#444444"/>
</svg>
