<svg width="90" height="60" viewBox="0 0 90 60" fill="none" xmlns="http://www.w3.org/2000/svg">
<circle cx="34.5" cy="47.5" r="11.5" stroke="#444444" stroke-width="2"/>
<path d="M34.5 41L29 45.48M34.5 41L40 45.48M34.5 41V55" stroke="#444444" stroke-width="2" stroke-linecap="round"/>
<path fill-rule="evenodd" clip-rule="evenodd" d="M23.68 0L24.68 1.02375L36.0232 12.6364L37 13.6364V14.6364V32.3001C36.3477 32.1676 35.68 32.0776 35 32.0328V14.6364L23.68 14.6364H22.68V13.6364V2H2V48H19.0328C19.0776 48.68 19.1676 49.3477 19.3001 50H2H0V48V2V0H2H22.68H23.68ZM22.9291 36.8788C22.3611 37.4998 21.8446 38.1687 21.3865 38.8788H10.36C9.80772 38.8788 9.36 38.4311 9.36 37.8788C9.36 37.3265 9.80772 36.8788 10.36 36.8788H22.9291ZM24.68 3.88596L33.2274 12.6364L24.68 12.6364V3.88596ZM10.36 21.7273C9.80772 21.7273 9.36 22.175 9.36 22.7273C9.36 23.2796 9.80772 23.7273 10.36 23.7273H26.64C27.1923 23.7273 27.64 23.2796 27.64 22.7273C27.64 22.175 27.1923 21.7273 26.64 21.7273H10.36ZM10.36 29.5053C9.80772 29.5053 9.36 29.953 9.36 30.5053C9.36 31.0575 9.80772 31.5053 10.36 31.5053L26.64 31.5053C27.1923 31.5053 27.64 31.0575 27.64 30.5053C27.64 29.953 27.1923 29.5053 26.64 29.5053L10.36 29.5053Z" fill="#444444"/>
<path fill-rule="evenodd" clip-rule="evenodd" d="M78.8118 35.8308C79.5071 35.8308 80.1746 36.1074 80.6656 36.5996L89.1646 45.119C90.2794 46.2365 90.2783 48.0459 89.1621 49.1621C88.0459 50.2783 86.2365 50.2794 85.119 49.1646L76.5996 40.6656C76.1074 40.1746 75.8308 39.5071 75.8308 38.8118C75.8308 38.1351 75.5683 37.484 75.0986 36.9969C72.007 39.6545 67.9934 41.2545 63.6273 41.2545C53.8916 41.2545 46 33.363 46 23.6273C46 13.8916 53.8916 6 63.6273 6C73.363 6 81.2545 13.8916 81.2545 23.6273C81.2545 27.9934 79.6545 32.007 76.9969 35.0986C77.484 35.5683 78.1351 35.8308 78.8118 35.8308ZM63.6 37.5333C71.2952 37.5333 77.5333 31.2952 77.5333 23.6C77.5333 15.9048 71.2952 9.66667 63.6 9.66667C55.9048 9.66667 49.6667 15.9048 49.6667 23.6C49.6667 31.2952 55.9048 37.5333 63.6 37.5333Z" fill="#444444"/>
</svg>
