<svg width="120" height="80" viewBox="0 0 120 80" fill="none" xmlns="http://www.w3.org/2000/svg">
<path d="M106.46 29.2157L118.801 41.6818H106.46V29.2157ZM105.46 28.5V42.1818V42.6818H105.96H119.5V79.5H81.5V28.5H105.46ZM91.14 52.7121C90.8639 52.7121 90.64 52.936 90.64 53.2121C90.64 53.4883 90.8639 53.7121 91.14 53.7121H109.86C110.136 53.7121 110.36 53.4883 110.36 53.2121C110.36 52.936 110.136 52.7121 109.86 52.7121H91.14ZM91.14 60.5909C90.8639 60.5909 90.64 60.8148 90.64 61.0909C90.64 61.3671 90.8639 61.5909 91.14 61.5909L109.86 61.5909C110.136 61.5909 110.36 61.3671 110.36 61.0909C110.36 60.8148 110.136 60.5909 109.86 60.5909L91.14 60.5909ZM91.14 68.06C90.8639 68.06 90.64 68.2839 90.64 68.56C90.64 68.8361 90.8639 69.06 91.14 69.06H109.86C110.136 69.06 110.36 68.8361 110.36 68.56C110.36 68.2839 110.136 68.06 109.86 68.06H91.14Z" stroke="#444444" stroke-linecap="round"/>
<path d="M25.2742 29.6025L37.5111 41.963H25.2742V29.6025ZM24.2742 28.8867V42.463V42.963H24.7742H38.2097V79.4996H0.5V28.8867H24.2742Z" stroke="#444444" stroke-linecap="round"/>
<path d="M8.0257 45.0942C8.0257 47.6221 7.27094 50.8535 10.2783 51.8388C12.2445 52.4829 12.627 50.1075 13.3464 48.7479C14.1621 47.2062 15.2459 45.413 17.1734 45.5428C18.5996 45.6388 19.53 48.5818 19.854 49.5716C20.4749 51.4686 20.7119 53.4595 20.6614 55.4516C20.6328 56.575 20.2741 57.0961 19.1354 57.3192C18.2538 57.492 17.0741 57.5567 16.2126 57.254C15.4105 56.9722 15.4659 56.0725 15.4456 55.3538C15.3762 52.8995 16.7485 51.161 19.0627 50.3708C21.2387 49.6278 23.3368 49.5834 25.6107 49.645C27.5375 49.6971 29.1857 51.456 30.2935 52.9071C30.6173 53.3312 31.3045 54.1483 31.0686 54.7503C30.7832 55.4786 29.3877 55.6755 28.7756 55.8431C26.0768 56.5821 22.8648 57.2633 20.1527 56.2509C16.291 54.8093 12.0011 56.4687 8.17103 54.6361C7.22254 54.1823 8.13312 56.5934 8.20333 57.0012C8.44049 58.3786 8.62562 59.7445 8.81695 61.1278C8.89533 61.6945 8.97059 62.5926 9.47901 62.971C10.0971 63.431 11.3368 63.385 12.0223 63.395C13.9387 63.4231 15.6884 62.9255 17.1654 61.6742C18.9465 60.1653 20.4646 58.3809 22.3084 56.9441C23.2773 56.1891 24.5118 56.3977 25.6672 56.3977C27.6084 56.3977 28.2899 57.7729 29.0017 59.4723C29.5186 60.7064 29.785 61.9655 29.8898 63.2972C29.9581 64.1641 30.1847 65.401 29.7768 66.225C29.1706 67.4496 27.093 67.3858 25.974 67.4646C24.0118 67.6029 21.9797 67.6489 20.0154 67.5299C17.3667 67.3693 16.7997 65.1996 15.3245 63.4277C14.5977 62.5546 13.1184 60.8534 11.8931 60.663C11.3578 60.5798 10.6634 61.7315 10.4317 62.0739C9.30569 63.7378 8.58836 65.6622 8.60702 67.7174C8.61589 68.6936 9.48139 70.8427 10.4479 69.479C12.0964 67.1531 14.2361 64.6002 16.8747 63.4114C18.6095 62.6298 20.4845 61.8563 22.4134 61.8292C24.3506 61.802 24.9145 63.1168 25.5461 64.8141C26.5089 67.4015 26.7294 71.1932 23.786 72.5128C21.1771 73.6825 17.5952 73.8922 14.9693 72.6923C14.1005 72.2953 12.7514 71.5218 12.9831 70.3517C13.1401 69.5588 14.8858 69.6611 15.373 69.6177C17.2306 69.4521 19.1494 69.3546 21.0085 69.5687C23.7261 69.8818 26.2532 70.6066 27.9117 72.8962C28.5424 73.7668 28.7419 75.3346 27.3465 75.3346C26.6061 75.3346 25.7728 75.5735 25.6833 74.6333C25.2791 70.3871 26.398 65.6837 27.4354 61.5764C27.599 60.9284 27.9757 58.7686 29.1067 59.2684C29.7137 59.5367 30.1132 59.9962 29.4054 60.5162C28.482 61.1945 27.219 61.4855 26.1435 61.7966C24.238 62.3478 22.3154 62.7764 20.3626 63.1178C18.305 63.4775 15.0329 63.349 14.2426 65.7438C13.7624 67.1989 13.2836 69.0031 13.2576 70.5555C13.2494 71.0413 12.9689 72.8505 13.2899 73.2468C14.0625 74.2007 14.6157 74.4737 15.7605 73.834C16.7453 73.2837 17.4544 72.8872 17.5852 71.6647C17.7729 69.911 16.0369 68.6148 14.8401 67.6033C13.2801 66.2848 11.849 64.5002 9.64856 65.1893C8.0846 65.679 8.08444 66.5101 8.0257 67.9784C7.965 69.4961 7.88037 71.0099 7.88037 72.5292C7.88037 73.1372 7.75588 73.9083 7.88845 74.5109C7.93754 74.7341 8.17924 73.6664 8.18718 73.6383C8.612 72.1364 9.50379 70.7433 10.1168 69.3159C10.9949 67.2714 11.7429 65.1614 12.5229 63.077C13.7261 59.8614 14.1296 56.781 14.1296 53.372C14.1296 52.9806 13.8589 51.3433 14.2265 51.0395C14.6657 50.6765 15.5229 50.5198 16.035 50.3055C17.3777 49.7437 18.8294 49.5815 20.2738 49.5145C21.7566 49.4456 23.389 49.3561 24.8759 49.5063C25.0791 49.5268 26.0162 49.8536 26.1597 49.5797C26.3382 49.2392 26.1002 48.4828 26.0789 48.1443C26.0247 47.2818 26.0467 46.4147 26.0467 45.5509C26.0467 45.12 25.888 44.9566 25.433 45.1268C24.8688 45.3379 24.6719 46.1081 24.4803 46.6111C24.0534 47.7322 23.7494 48.8789 23.7214 50.0853C23.6995 51.0285 23.4274 52.4153 24.4803 52.8745C24.9078 53.061 26.0293 53.8936 26.5149 53.5433C27.4545 52.8653 27.7153 51.132 28.2266 50.1506C28.389 49.8389 28.7488 49.5487 28.9533 49.2046" stroke="#444444" stroke-width="0.5" stroke-linecap="round"/>
<path fill-rule="evenodd" clip-rule="evenodd" d="M97.6492 15.0526L109.225 0L112 3.58958L97.6492 22L90 12.1869L92.75 8.68421L97.6492 15.0526Z" fill="#025200"/>
<path d="M11 3L28 20M11 20L28 3" stroke="#AE0000" stroke-width="5" stroke-linecap="round"/>
<path d="M50 53C49.4477 53 49 53.4477 49 54C49 54.5523 49.4477 55 50 55V53ZM71 54L61 48.2265V59.7735L71 54ZM50 55H62V53H50V55Z" fill="#444444"/>
</svg>
