<svg width="50" height="50" viewBox="0 0 50 50" fill="none" xmlns="http://www.w3.org/2000/svg">
<path d="M16.7656 28.2656L15.5879 24.498C15.5137 24.2676 15.375 23.7441 15.1719 22.9277H15.125C14.9688 23.6113 14.832 24.1387 14.7148 24.5098L13.502 28.2656H12.377L10.625 21.8438H11.6445C12.0586 23.457 12.373 24.6855 12.5879 25.5293C12.8066 26.373 12.9316 26.9414 12.9629 27.2344H13.0098C13.0527 27.0117 13.1211 26.7246 13.2148 26.373C13.3125 26.0176 13.3965 25.7363 13.4668 25.5293L14.6445 21.8438H15.6992L16.8477 25.5293C17.0664 26.2012 17.2148 26.7656 17.293 27.2227H17.3398C17.3555 27.082 17.3965 26.8652 17.4629 26.5723C17.5332 26.2793 17.9414 24.7031 18.6875 21.8438H19.6953L17.9199 28.2656H16.7656ZM26.1055 28.2656L24.9277 24.498C24.8535 24.2676 24.7148 23.7441 24.5117 22.9277H24.4648C24.3086 23.6113 24.1719 24.1387 24.0547 24.5098L22.8418 28.2656H21.7168L19.9648 21.8438H20.9844C21.3984 23.457 21.7129 24.6855 21.9277 25.5293C22.1465 26.373 22.2715 26.9414 22.3027 27.2344H22.3496C22.3926 27.0117 22.4609 26.7246 22.5547 26.373C22.6523 26.0176 22.7363 25.7363 22.8066 25.5293L23.9844 21.8438H25.0391L26.1875 25.5293C26.4062 26.2012 26.5547 26.7656 26.6328 27.2227H26.6797C26.6953 27.082 26.7363 26.8652 26.8027 26.5723C26.873 26.2793 27.2812 24.7031 28.0273 21.8438H29.0352L27.2598 28.2656H26.1055ZM35.4453 28.2656L34.2676 24.498C34.1934 24.2676 34.0547 23.7441 33.8516 22.9277H33.8047C33.6484 23.6113 33.5117 24.1387 33.3945 24.5098L32.1816 28.2656H31.0566L29.3047 21.8438H30.3242C30.7383 23.457 31.0527 24.6855 31.2676 25.5293C31.4863 26.373 31.6113 26.9414 31.6426 27.2344H31.6895C31.7324 27.0117 31.8008 26.7246 31.8945 26.373C31.9922 26.0176 32.0762 25.7363 32.1465 25.5293L33.3242 21.8438H34.3789L35.5273 25.5293C35.7461 26.2012 35.8945 26.7656 35.9727 27.2227H36.0195C36.0352 27.082 36.0762 26.8652 36.1426 26.5723C36.2129 26.2793 36.6211 24.7031 37.3672 21.8438H38.375L36.5996 28.2656H35.4453Z" fill="#444444"/>
<path fill-rule="evenodd" clip-rule="evenodd" d="M18.8466 0.766599C20.3218 0.389894 21.9877 0.131674 23.5345 0.0399099C25.5682 -0.0807231 27.8458 0.074756 29.8436 0.470525C39.9857 2.47972 47.9334 10.65 49.6497 20.8314C51.1615 29.8003 47.7139 38.815 40.5867 44.5287C35.0446 48.9716 27.8542 50.8366 20.8391 49.6507C16.6654 48.9452 12.7357 47.1836 9.43683 44.5396C4.20859 40.349 0.894729 34.3687 0.15709 27.7929C-0.584064 21.1859 1.31609 14.6044 5.46077 9.42296C8.88796 5.13841 13.5611 2.11638 18.8466 0.766599ZM24.0228 11.9912V7.01038C24.0228 3.0505 24.0128 2.03004 23.974 2.03196C23.9472 2.03325 23.8021 2.06747 23.6517 2.10802C21.2956 2.74294 19.0647 5.02251 17.325 8.57298C16.8471 9.5482 16.1789 11.1531 16.2297 11.2038C16.26 11.2342 17.1761 11.3961 18.0262 11.5214C19.7106 11.7696 22.3074 11.9898 23.5638 11.9908L24.0228 11.9912ZM32.6317 8.48887C31 5.18143 28.8727 2.93881 26.6793 2.21392C26.4537 2.13939 26.2032 2.06661 26.1226 2.05219L25.9761 2.02602V7.00862V11.9912L26.4156 11.9906C27.6969 11.9889 30.2802 11.7709 31.9727 11.5214C32.8229 11.3961 33.7389 11.2342 33.7693 11.2038C33.8231 11.15 33.1382 9.5155 32.6317 8.48887ZM14.4715 10.2024C15.5335 7.37224 16.8816 5.05532 18.5166 3.25036C18.7745 2.96569 18.963 2.73372 18.9356 2.73493C18.7839 2.74161 17.2453 3.25751 16.5222 3.54417C14.1803 4.47259 12.0482 5.75006 10.1154 7.38302C9.56915 7.84453 8.82628 8.54294 8.82628 8.59501C8.82628 8.68279 10.2708 9.41651 11.1116 9.75583C11.9847 10.1081 13.7458 10.6761 14.1909 10.749C14.2495 10.7586 14.2992 10.6617 14.4715 10.2024ZM39.7663 7.28664C37.3418 5.26815 34.7359 3.86009 31.669 2.91131C31.3516 2.8131 31.0731 2.73275 31.0503 2.73275C31.0275 2.73275 31.1442 2.8778 31.3098 3.05503C33.0126 4.87859 34.4262 7.27594 35.5312 10.2137C35.7006 10.6643 35.7494 10.7585 35.8081 10.7483C36.3158 10.6607 38.1348 10.0674 38.9993 9.70743C39.8879 9.33745 41.1727 8.67873 41.1727 8.59322C41.1727 8.53708 40.348 7.7709 39.7663 7.28664ZM13.0649 12.4412C11.0795 11.8961 9.17908 11.1087 7.86296 10.286C7.6447 10.1496 7.45988 10.0379 7.4523 10.0379C7.42499 10.0379 6.60262 11.0824 6.29888 11.5029C3.73758 15.0483 2.23414 19.2419 1.96763 23.5837L1.94067 24.0232H6.98515H7V25.9765H6.98515H1.94067L1.96763 26.416C2.11209 28.7698 2.63796 31.1548 3.49643 33.3496C3.82934 34.2008 3.93052 34.428 4.35318 35.274C5.212 36.9928 6.00101 38.1898 7.42796 39.9387C7.48191 40.0048 7.50793 40.012 7.56469 39.9762L8.02543 39.685C9.27467 38.895 11.0826 38.1388 13.0649 37.5773C13.3872 37.486 13.6569 37.4064 13.6643 37.4003C13.6716 37.3942 13.6327 37.2331 13.5778 37.0421C13.1549 35.5723 12.7903 33.8128 12.5243 32H14.4902C14.7375 33.5568 15.0651 35.0802 15.4552 36.4584C15.5887 36.9298 15.6021 36.9578 15.6847 36.9371C15.859 36.8934 17.2963 36.6456 17.8309 36.5672C19.5156 36.32 22.1387 36.0954 23.3587 36.094C23.5628 36.0937 23.7958 36.0826 23.8763 36.0693L24.0228 36.0451V32H25.9761V36.0451L26.1226 36.0693C26.2032 36.0826 26.4361 36.0937 26.6402 36.094C27.8603 36.0954 30.4833 36.32 32.168 36.5672C32.7026 36.6456 34.1399 36.8934 34.3142 36.9371C34.3968 36.9579 34.4102 36.9299 34.5432 36.4584C34.9316 35.081 35.2594 33.5534 35.5071 32H37.4738C37.2087 33.8119 36.8468 35.5552 36.4201 37.0446C36.3657 37.2342 36.3273 37.3942 36.3347 37.4003C36.342 37.4064 36.6118 37.486 36.934 37.5773C39.0614 38.1799 40.9737 39.0004 42.239 39.8535C42.3635 39.9375 42.4808 40.0006 42.4996 39.9938C42.6142 39.9521 43.7173 38.5074 44.2391 37.7156C46.4793 34.3158 47.7859 30.4226 48.0314 26.416L48.0583 25.9765H43.0138H42V24.0232H43.0134H48.0576L48.0316 23.6033C47.9467 22.227 47.7165 20.7346 47.3851 19.4108C46.5772 16.1846 45.0777 13.1729 42.9761 10.5555C42.7475 10.2708 42.5514 10.0384 42.5404 10.0389C42.5294 10.0395 42.3974 10.1191 42.247 10.2157C40.9431 11.0539 38.9596 11.8847 36.934 12.4411C36.6332 12.5238 36.3747 12.6014 36.3596 12.6137C36.3445 12.626 36.4021 12.8909 36.4875 13.2024C36.8157 14.398 37.0941 15.6721 37.3188 17H35.3369C35.1159 15.7911 34.8485 14.6178 34.5445 13.544C34.4669 13.2701 34.3927 13.0482 34.3796 13.0511C32.3374 13.4896 28.5684 13.9042 26.6158 13.9052C26.3983 13.9053 26.1654 13.9163 26.0982 13.9298L25.9761 13.9542V17H24.0228V13.9547L23.8763 13.9304C23.7958 13.9171 23.5628 13.906 23.3587 13.9056C21.6574 13.9027 18.5261 13.586 16.3669 13.1984C16.0119 13.1347 15.6932 13.0739 15.6587 13.0634C15.6079 13.0479 15.5692 13.1392 15.4552 13.5432C15.1478 14.6328 14.8804 15.8006 14.6604 17H12.6822C12.9319 15.5173 13.2432 14.1041 13.5905 12.9108C13.634 12.7612 13.6566 12.6282 13.6407 12.6151C13.6248 12.602 13.3657 12.5238 13.0649 12.4412ZM24.0228 47.9737V42.9911V38.0085L23.4466 38.0142C21.9973 38.0286 19.5936 38.2393 17.8895 38.5015C17.1811 38.6105 16.2472 38.7784 16.2248 38.8007C16.205 38.8205 16.5051 39.6024 16.7753 40.2353C17.6042 42.1764 18.639 43.909 19.7269 45.177C20.3828 45.9415 21.2659 46.718 21.9719 47.151C22.5345 47.496 23.4117 47.8627 23.8763 47.9471L24.0228 47.9737ZM32.685 38.5959C31.1731 38.3408 29.4127 38.1525 27.5637 38.048C27.18 38.0263 26.6657 38.0085 26.421 38.0085H25.9761V42.9924V47.9764L26.1031 47.9515C26.6876 47.8371 27.647 47.411 28.2871 46.9815C30.174 45.7153 31.9015 43.3348 33.282 40.0985C33.4174 39.781 33.7893 38.8332 33.7893 38.8055C33.7893 38.7876 33.5295 38.7383 32.685 38.5959ZM16.5659 44.1354C15.7801 42.8585 14.9792 41.1882 14.4289 39.6788C14.3026 39.3322 14.2623 39.2596 14.1978 39.262C14.0733 39.2668 12.6498 39.7012 12.0297 39.9238C11.2745 40.1949 10.4732 40.5387 9.90058 40.8373C9.35894 41.1198 8.86534 41.4113 8.86534 41.4487C8.86534 41.5223 9.91316 42.4643 10.6387 43.0431C12.8485 44.8059 15.2617 46.0956 18.0205 46.9884C18.6203 47.1825 18.8776 47.2743 18.9056 47.2279C18.9286 47.1897 18.7964 47.0579 18.572 46.8124C17.8069 45.9756 17.2001 45.1658 16.5659 44.1354ZM39.7752 40.6768C38.7825 40.2011 37.8177 39.8393 36.5646 39.473C36.1614 39.3551 35.8071 39.2588 35.7772 39.259C35.7434 39.2593 35.6513 39.454 35.5325 39.7766C35.0832 40.9965 34.3206 42.6278 33.7111 43.673C32.9738 44.9372 32.2956 45.8646 31.3755 46.8666C31.1733 47.0868 31.0201 47.267 31.0352 47.267C31.0502 47.267 31.241 47.2147 31.459 47.1509C34.7479 46.1881 37.8081 44.4837 40.3662 42.1899C40.9193 41.6938 41.1577 41.4572 41.131 41.4308C41.0561 41.357 40.1938 40.8774 39.7752 40.6768Z" fill="#444444"/>
</svg>
