<svg id="Layer_1" data-name="Layer 1" xmlns="http://www.w3.org/2000/svg" viewBox="0 0 500 500"><title>stakeholderAnalysis</title><line x1="95.4883" y1="223.8671" x2="439.5019" y2="223.8671" style="fill:none;stroke:#8c8c8c;stroke-miterlimit:10"/><line x1="273.4892" y1="406.3662" x2="273.4892" y2="62.3526" style="fill:none;stroke:#8c8c8c;stroke-miterlimit:10"/><line x1="95.4892" y1="405.8671" x2="95.4892" y2="51.2896" style="fill:none;stroke:#12499f;stroke-miterlimit:10;stroke-width:5px"/><polygon points="115.938 67.857 112.276 71.268 95.494 53.209 78.707 71.268 75.045 67.857 95.494 45.867 115.938 67.857" style="fill:#12499f"/><line x1="92.9918" y1="406.3671" x2="447.5693" y2="406.367" style="fill:none;stroke:#12499f;stroke-miterlimit:10;stroke-width:5px"/><polygon points="431.002 426.816 427.591 423.154 445.65 406.372 427.591 389.585 431.002 385.923 452.992 406.372 431.002 426.816" style="fill:#12499f"/><path d="M215.1387,445.3359l-.1055-1.6171,2.2148-.5274a3.6737,3.6737,0,0,0,.1055-.8789q.0345-.7031.07-1.8633t.0352-2.6015v-5.625q0-1.5118-.0352-2.6719t-.07-1.8809a2.6839,2.6839,0,0,0-.1055-.8261l-2.2148-.5274.1055-1.6172h8.8242l.1055,1.6172-2.2149.5274a3.2909,3.2909,0,0,0-.123.8437q-.0528.7032-.07,1.8633t-.0176,2.6719v5.625q0,1.4414.0176,2.6015t.07,1.8633a3.96,3.96,0,0,0,.123.8789l2.2149.5274-.1055,1.6171Z" style="fill:#12499f"/><path d="M226.1426,445.3359l-.1055-1.5117,2.18-.5625a4.54,4.54,0,0,0,.07-.58q.0345-.4394.07-1.1953t.0352-1.8105l.0351-2.6719q0-1.125-.07-2.0391a12.7622,12.7622,0,0,0-.2461-1.7226l-2.25-.4922v-1.4414l5.7657-1.5117.8437.5976-.2109,1.9688.1054.0351a8.0374,8.0374,0,0,1,2.4082-2.0039,5.8169,5.8169,0,0,1,2.7246-.6679,4.92,4.92,0,0,1,2.6192.7207,5.0763,5.0763,0,0,1,1.8808,2.1269,7.6484,7.6484,0,0,1,.7032,3.4453v3.6563q0,1.1953.0351,2.2324a5.9623,5.9623,0,0,0,.1407,1.3535l2.18.5625-.1054,1.5117h-8.2969l-.1055-1.5117,2.0391-.5625a4.89,4.89,0,0,0,.1055-.8086q.0343-.5272.0527-1.23t.0176-1.4414v-3.2344a4.913,4.913,0,0,0-.44-2.2324,2.9549,2.9549,0,0,0-1.1426-1.2657,3.05,3.05,0,0,0-1.5468-.4043,3.7933,3.7933,0,0,0-1.8106.44,4.4269,4.4269,0,0,0-1.459,1.2832V439.57q0,1.3359.0528,2.3731a5.7215,5.7215,0,0,0,.1582,1.3183l2.18.5625-.1055,1.5117Z" style="fill:#12499f"/><path d="M258.3809,442.6289a4.3,4.3,0,0,1-1.8633,2.2149,5.85,5.85,0,0,1-6.7324-.5625,5.3577,5.3577,0,0,1-1.4942-4.1485l.1055-8.0156h-2.461v-1.02l5.4844-4.5h1.02l-.07,4.6406-.07,8.4375a3.0417,3.0417,0,0,0,.7383,2.2851,2.8875,2.8875,0,0,0,2.0742.7032A3.4818,3.4818,0,0,0,256.43,442.4a3.7116,3.7116,0,0,0,1.1426-.7207Zm-7.84-10.5117V430.043h6.8906v2.0742Z" style="fill:#12499f"/><path d="M266.8184,445.6172a7.8208,7.8208,0,0,1-3.92-.9844,7.0783,7.0783,0,0,1-2.7246-2.7246,7.9634,7.9634,0,0,1-.9843-3.99,8.3119,8.3119,0,0,1,1.09-4.3067,7.9978,7.9978,0,0,1,2.8477-2.8828,7.028,7.028,0,0,1,3.7617-1.0019,5.8973,5.8973,0,0,1,4.6758,1.9336,7.38,7.38,0,0,1,1.6171,4.957v.7734H262.7754v-1.7578h7.3125l-.4922.7383v-1.0547a4.4205,4.4205,0,0,0-.791-2.7773,2.6248,2.6248,0,0,0-2.1973-1.02,2.8538,2.8538,0,0,0-1.67.5274,3.6184,3.6184,0,0,0-1.2129,1.582,6.649,6.649,0,0,0-.457,2.6367v.6328a6.0088,6.0088,0,0,0,1.3535,4.1309,4.5748,4.5748,0,0,0,3.6035,1.5293,5.1656,5.1656,0,0,0,2.1621-.44,5.9791,5.9791,0,0,0,1.916-1.4941l1.02.9141a6.9365,6.9365,0,0,1-2.7071,3.0586A7.3175,7.3175,0,0,1,266.8184,445.6172Z" style="fill:#12499f"/><path d="M275.1152,445.3359l-.1054-1.5117,2.18-.5625a4.5855,4.5855,0,0,0,.07-.5976q.0351-.4571.07-1.2129t.0351-1.7754l.0352-2.6719q0-1.09-.07-2.0215a12.7008,12.7008,0,0,0-.2461-1.74l-2.25-.4922v-1.4414l5.66-1.5117.8086.5625-.1406,2.8125.1055.0351a7.0718,7.0718,0,0,1,2.0742-2.6718,3.78,3.78,0,0,1,2.1094-.7032,2.5178,2.5178,0,0,1,1.5644.4922,1.774,1.774,0,0,1,.65,1.5117,1.911,1.911,0,0,1-.7031,1.5821,2.6176,2.6176,0,0,1-1.6875.5625,3.5491,3.5491,0,0,1-1.4238-.2813,4.7789,4.7789,0,0,1-1.3536-.9492l.879.1055a6.2421,6.2421,0,0,0-1.09,1.0722,7.7214,7.7214,0,0,0-.9492,1.5293l.0351,2.918q.0353,1.16.07,2.1621t.07,1.7227q.0351.7206.07,1.0019l3.0586.4922-.1055,1.582Z" style="fill:#12499f"/><path d="M296.209,445.6172a7.82,7.82,0,0,1-3.92-.9844,7.077,7.077,0,0,1-2.7246-2.7246,7.9624,7.9624,0,0,1-.9844-3.99,8.3128,8.3128,0,0,1,1.09-4.3067,7.9978,7.9978,0,0,1,2.8477-2.8828,7.0284,7.0284,0,0,1,3.7617-1.0019,5.897,5.897,0,0,1,4.6758,1.9336,7.38,7.38,0,0,1,1.6172,4.957v.7734H292.166v-1.7578h7.3125l-.4922.7383v-1.0547a4.42,4.42,0,0,0-.791-2.7773,2.6247,2.6247,0,0,0-2.1973-1.02,2.8541,2.8541,0,0,0-1.67.5274,3.6184,3.6184,0,0,0-1.2129,1.582,6.649,6.649,0,0,0-.457,2.6367v.6328a6.0088,6.0088,0,0,0,1.3535,4.1309,4.575,4.575,0,0,0,3.6035,1.5293,5.1656,5.1656,0,0,0,2.1621-.44,5.98,5.98,0,0,0,1.9161-1.4941l1.0195.9141a6.9369,6.9369,0,0,1-2.707,3.0586A7.3181,7.3181,0,0,1,296.209,445.6172Z" style="fill:#12499f"/><path d="M310.5176,445.6172a12.7791,12.7791,0,0,1-2.8125-.3164,8.8742,8.8742,0,0,1-2.3555-.8438l-.1758-4.0078h2.0742l.7383,2.5313a5.0568,5.0568,0,0,0,2.7774.8086,2.8,2.8,0,0,0,1.7578-.4922,1.5672,1.5672,0,0,0,.6328-1.3008,1.911,1.911,0,0,0-.6328-1.4414,8.47,8.47,0,0,0-2.5664-1.3359,9.7852,9.7852,0,0,1-3.586-2.0743,3.8572,3.8572,0,0,1-1.0195-2.7422,3.7736,3.7736,0,0,1,.8438-2.4257,5.5562,5.5562,0,0,1,2.3379-1.6524,9.2792,9.2792,0,0,1,3.4628-.5976,13.06,13.06,0,0,1,2.2149.1933,7.2215,7.2215,0,0,1,1.8633.5449l.3867,3.9375h-2.0742l-.8086-2.4609a3.0963,3.0963,0,0,0-.8438-.334,4.0462,4.0462,0,0,0-.9844-.123,2.883,2.883,0,0,0-1.7929.51,1.5855,1.5855,0,0,0-.668,1.3184,1.7921,1.7921,0,0,0,.791,1.4766,14.9986,14.9986,0,0,0,2.83,1.4765,9.5764,9.5764,0,0,1,3.2871,2.0391,3.7069,3.7069,0,0,1,.9668,2.6016,3.9836,3.9836,0,0,1-1.8633,3.41A8.1688,8.1688,0,0,1,310.5176,445.6172Z" style="fill:#12499f"/><path d="M330.873,442.6289a4.299,4.299,0,0,1-1.8632,2.2149,5.85,5.85,0,0,1-6.7325-.5625,5.36,5.36,0,0,1-1.4941-4.1485l.1055-8.0156h-2.461v-1.02l5.4844-4.5h1.0195l-.07,4.6406-.07,8.4375a3.0417,3.0417,0,0,0,.7383,2.2851,2.8875,2.8875,0,0,0,2.0742.7032,3.4818,3.4818,0,0,0,1.3184-.2637,3.7116,3.7116,0,0,0,1.1426-.7207Zm-7.84-10.5117V430.043h6.8906v2.0742Z" style="fill:#12499f"/><path d="M71.4771,285.2881l-1.6172.1055-.5274-2.0743a2.7358,2.7358,0,0,0-.7734-.1054q-.6328-.0338-1.7578-.07-1.125-.0337-2.6367-.0352l-6.1524-.0352q-1.4414,0-2.5488.0352c-.7383.0234-1.3242.0479-1.7578.07a2.3353,2.3353,0,0,0-.7559.1055l-.4922,2.2148-1.6172-.1054v-8.4727q0-4.0414,1.5469-6.1172a5.23,5.23,0,0,1,4.4649-2.0742,6.0179,6.0179,0,0,1,3.4453,1.02,6.8616,6.8616,0,0,1,2.373,2.8653,10.1783,10.1783,0,0,1,.8613,4.3418,11.2848,11.2848,0,0,1-.07,1.2832c-.0468.41-.1054.8037-.1758,1.1777H61.0005a6.5984,6.5984,0,0,0,.334-1.125,6.4494,6.4494,0,0,0,.123-1.3008,3.66,3.66,0,0,0-1.0547-2.8125,4.3825,4.3825,0,0,0-3.0937-.9844,4.088,4.088,0,0,0-4.6406,4.43v1.23q.246,0,.9492.0176t1.81.0351q1.1075.019,2.584.0176l6.1524-.0352q1.5117,0,2.6367-.0351t1.74-.0879a7.029,7.029,0,0,0,.7559-.0879l.4922-2.8476,1.6875.1054Z" style="fill:#12499f"/><path d="M71.7583,258.9912a8.5325,8.5325,0,0,1-1.002,4.2012,7.2389,7.2389,0,0,1-2.7773,2.83,7.9974,7.9974,0,0,1-4.06,1.0195,7.9013,7.9013,0,0,1-4.3067-1.1426,7.652,7.652,0,0,1-2.7773-3.0234,8.6768,8.6768,0,0,1-.9668-4.0254,8.0345,8.0345,0,0,1,.9844-4.0254,6.93,6.93,0,0,1,2.7421-2.707,8.7718,8.7718,0,0,1,8.1739.0879,7.9642,7.9642,0,0,1,2.9179,2.83A7.5016,7.5016,0,0,1,71.7583,258.9912Zm-2.0391-.3516a2.4794,2.4794,0,0,0-.6152-1.6875,3.97,3.97,0,0,0-1.7754-1.09,8.57,8.57,0,0,0-2.707-.3867A10.0827,10.0827,0,0,0,59.7,256.53a3.16,3.16,0,0,0-1.8984,2.8125,2.7274,2.7274,0,0,0,1.4414,2.4082,7.19,7.19,0,0,0,3.832.8965,10.313,10.313,0,0,0,3.41-.5274,5.9366,5.9366,0,0,0,2.373-1.4238A2.8845,2.8845,0,0,0,69.7192,258.64Z" style="fill:#12499f"/><path d="M71.6177,231.499,58.2231,237.37l-.5625,1.7227-1.5117-.1055v-7.875l1.5117-.07.5625,1.8281,9.2461-3.7617v.9492L58.2231,226.12l-.5625,1.8281-1.5117-.07V222.042l1.5117-.07.5625,1.6523,13.3946,6.4688Zm0,10.8633-13.3946,6.0469-.5625,1.6523-1.5117-.07v-7.875l1.5117-.07.5625,1.7227,9.2461-3.9727v1.09l-9.3515-4.2539,2.25-1.23,11.25,5.59Z" style="fill:#12499f"/><path d="M71.7583,213.7451a7.8191,7.8191,0,0,1-.9844,3.92,7.0736,7.0736,0,0,1-2.7246,2.7246,7.9621,7.9621,0,0,1-3.99.9844,8.3131,8.3131,0,0,1-4.3067-1.09,7.99,7.99,0,0,1-2.8828-2.8477,7.0284,7.0284,0,0,1-1.0019-3.7617,5.897,5.897,0,0,1,1.9336-4.6758,7.3823,7.3823,0,0,1,4.957-1.6172h.7734v10.4063H61.7739v-7.3125l.7383.4922H61.4575a4.42,4.42,0,0,0-2.7773.791,2.6252,2.6252,0,0,0-1.02,2.1973,2.8529,2.8529,0,0,0,.5274,1.67,3.6116,3.6116,0,0,0,1.582,1.2129,6.6493,6.6493,0,0,0,2.6367.457H63.04a6.0087,6.0087,0,0,0,4.1308-1.3535A4.5743,4.5743,0,0,0,68.7,212.3389a5.17,5.17,0,0,0-.4394-2.1621,5.9823,5.9823,0,0,0-1.4942-1.9161l.9141-1.02a6.9394,6.9394,0,0,1,3.0586,2.707A7.3172,7.3172,0,0,1,71.7583,213.7451Z" style="fill:#12499f"/><path d="M71.4771,205.4482l-1.5118.1055-.5625-2.18a4.6606,4.6606,0,0,0-.5976-.07q-.457-.0343-1.2129-.07t-1.7754-.0352l-2.6719-.0351q-1.09,0-2.0215.07a12.7786,12.7786,0,0,0-1.74.2461l-.4922,2.25H57.45l-1.5117-5.66.5625-.8086,2.8125.1407.0351-.1055a7.0718,7.0718,0,0,1-2.6718-2.0742,3.78,3.78,0,0,1-.7032-2.1094,2.5174,2.5174,0,0,1,.4922-1.5644,1.7742,1.7742,0,0,1,1.5118-.65,1.9107,1.9107,0,0,1,1.582.7031,2.6173,2.6173,0,0,1,.5625,1.6875,3.5491,3.5491,0,0,1-.2813,1.4238,4.77,4.77,0,0,1-.9492,1.3535l.1055-.8789a6.2456,6.2456,0,0,0,1.0722,1.09,7.7307,7.7307,0,0,0,1.5293.9492l2.918-.0352q1.16-.0344,2.1621-.07,1.002-.0344,1.7227-.07.7206-.0343,1.0019-.07l.4922-3.0586,1.5821.1055Z" style="fill:#12499f"/><path d="M164.1147,307.0088l-3.3906-8.8594h-.0547q.096,1.0533.0957,2.502v6.3574h-1.0732v-9.9942h1.75l3.165,8.2442h.0547l3.1924-8.2442H169.59v9.9942h-1.1621v-6.44q0-1.1073.0957-2.4062h-.0547l-3.4179,8.8457Z" style="fill:#9a9897"/><path d="M178.6274,303.2559a4.1307,4.1307,0,0,1-.9228,2.86,3.2485,3.2485,0,0,1-2.55,1.0293,3.3768,3.3768,0,0,1-1.7842-.4717,3.1137,3.1137,0,0,1-1.2031-1.3535,4.7161,4.7161,0,0,1-.4238-2.0644,4.1268,4.1268,0,0,1,.916-2.8545,3.2417,3.2417,0,0,1,2.5429-1.0215,3.1694,3.1694,0,0,1,2.4986,1.0459A4.1146,4.1146,0,0,1,178.6274,303.2559Zm-5.708,0a3.5551,3.5551,0,0,0,.5743,2.1875,2.2785,2.2785,0,0,0,3.38.0029,3.5325,3.5325,0,0,0,.5777-2.19,3.4831,3.4831,0,0,0-.5777-2.1709,2.03,2.03,0,0,0-1.7055-.7412,1.9986,1.9986,0,0,0-1.6817.7314A3.5191,3.5191,0,0,0,172.9194,303.2559Z" style="fill:#9a9897"/><path d="M185.7437,307.0088v-4.8467a1.9571,1.9571,0,0,0-.417-1.3672,1.6988,1.6988,0,0,0-1.3057-.4511,2.1541,2.1541,0,0,0-1.7227.6357,3.2082,3.2082,0,0,0-.5468,2.0986v3.9307h-1.1348v-7.4922h.9229l.1845,1.0254h.0547a2.3105,2.3105,0,0,1,.9775-.8574,3.1713,3.1713,0,0,1,1.4014-.3047,2.8484,2.8484,0,0,1,2.0371.6523,2.7809,2.7809,0,0,1,.6836,2.0889v4.8877Z" style="fill:#9a9897"/><path d="M189.1138,297.4863a.756.756,0,0,1,.1914-.5713.7095.7095,0,0,1,.95.0039.74.74,0,0,1,.1982.5674.7539.7539,0,0,1-.1982.5713.6637.6637,0,0,1-.4717.1875.656.656,0,0,1-.4785-.1875A.7709.7709,0,0,1,189.1138,297.4863Zm1.23,9.5225H189.21v-7.4922h1.1347Z" style="fill:#9a9897"/><path d="M195.17,306.209a3.7471,3.7471,0,0,0,.5811-.044,3.7994,3.7994,0,0,0,.4443-.0927v.8681a2.038,2.038,0,0,1-.5435.1465,4.0423,4.0423,0,0,1-.646.0586q-2.1738,0-2.1738-2.29v-4.4571h-1.0732v-.5468l1.0732-.4717.4785-1.6h.6563v1.7363h2.1738v.8818h-2.1738v4.4092a1.5153,1.5153,0,0,0,.3213,1.0391A1.12,1.12,0,0,0,195.17,306.209Z" style="fill:#9a9897"/><path d="M204.16,303.2559a4.13,4.13,0,0,1-.9229,2.86,3.2485,3.2485,0,0,1-2.55,1.0293,3.377,3.377,0,0,1-1.7842-.4717A3.1137,3.1137,0,0,1,197.7,305.32a4.7161,4.7161,0,0,1-.4238-2.0644,4.1273,4.1273,0,0,1,.916-2.8545,3.2418,3.2418,0,0,1,2.543-1.0215,3.1694,3.1694,0,0,1,2.4985,1.0459A4.1142,4.1142,0,0,1,204.16,303.2559Zm-5.708,0a3.5558,3.5558,0,0,0,.5742,2.1875,2.2786,2.2786,0,0,0,3.38.0029,3.5332,3.5332,0,0,0,.5776-2.19,3.4837,3.4837,0,0,0-.5776-2.1709,2.03,2.03,0,0,0-1.7056-.7412,1.9988,1.9988,0,0,0-1.6817.7314A3.5191,3.5191,0,0,0,198.4517,303.2559Z" style="fill:#9a9897"/><path d="M209.5669,299.38a4.44,4.44,0,0,1,.8955.082l-.1572,1.0527a3.8718,3.8718,0,0,0-.82-.1025,1.9971,1.9971,0,0,0-1.5552.7383,2.6925,2.6925,0,0,0-.646,1.8389v4.0195h-1.1348v-7.4922h.9365l.13,1.3877h.0547a3.2963,3.2963,0,0,1,1.0049-1.1279A2.26,2.26,0,0,1,209.5669,299.38Z" style="fill:#9a9897"/><path d="M129.4155,322.7744a10.5967,10.5967,0,0,1,.53-3.3906,8.4241,8.4241,0,0,1,1.5278-2.7686h1.1075a9.6448,9.6448,0,0,0-1.48,2.8985,10.772,10.772,0,0,0-.4956,3.247,10.36,10.36,0,0,0,.5058,3.2061,9.9573,9.9573,0,0,0,1.4561,2.8574h-1.0938a8.06,8.06,0,0,1-1.5312-2.7138A10.3123,10.3123,0,0,1,129.4155,322.7744Z" style="fill:#9a9897"/><path d="M138.7944,326.6094l-3.3906-8.8594h-.0547q.096,1.0531.0957,2.502v6.3574h-1.0732v-9.9942h1.75l3.165,8.2442h.0547l3.1924-8.2442H144.27v9.9942h-1.1621v-6.44q0-1.1074.0957-2.4062h-.0547l-3.4179,8.8457Z" style="fill:#9a9897"/><path d="M146.7446,317.0869a.7562.7562,0,0,1,.1914-.5713.7095.7095,0,0,1,.95.0039.74.74,0,0,1,.1983.5674.7535.7535,0,0,1-.1983.5713.6633.6633,0,0,1-.4716.1875.6562.6562,0,0,1-.4786-.1875A.7713.7713,0,0,1,146.7446,317.0869Zm1.2305,9.5225H146.84v-7.4922h1.1348Z" style="fill:#9a9897"/><path d="M155.5083,326.6094v-4.8467a1.9569,1.9569,0,0,0-.417-1.3672,1.6987,1.6987,0,0,0-1.3057-.4512,2.1539,2.1539,0,0,0-1.7226.6358,3.2076,3.2076,0,0,0-.5469,2.0986v3.9307h-1.1348v-7.4922h.9229l.1846,1.0254h.0547a2.31,2.31,0,0,1,.9775-.8574,3.1707,3.1707,0,0,1,1.4014-.3047,2.8483,2.8483,0,0,1,2.0371.6523,2.7811,2.7811,0,0,1,.6836,2.0889v4.8877Z" style="fill:#9a9897"/><path d="M158.8784,317.0869a.7562.7562,0,0,1,.1914-.5713.7095.7095,0,0,1,.95.0039.74.74,0,0,1,.1983.5674.7539.7539,0,0,1-.1983.5713.6634.6634,0,0,1-.4717.1875.6562.6562,0,0,1-.4785-.1875A.7713.7713,0,0,1,158.8784,317.0869Zm1.2305,9.5225h-1.1348v-7.4922h1.1348Z" style="fill:#9a9897"/><path d="M172.0649,326.6094v-4.874a2.02,2.02,0,0,0-.3828-1.3428,1.48,1.48,0,0,0-1.1894-.4483,1.9217,1.9217,0,0,0-1.5655.6084,2.8907,2.8907,0,0,0-.5058,1.8731v4.1836h-1.1348v-4.874a2.02,2.02,0,0,0-.3828-1.3428,1.489,1.489,0,0,0-1.1963-.4483,1.8515,1.8515,0,0,0-1.562.64,3.4554,3.4554,0,0,0-.4956,2.0947v3.9307h-1.1348v-7.4922h.9229l.1846,1.0254h.0546a2.2339,2.2339,0,0,1,.9058-.8545,2.7676,2.7676,0,0,1,1.3091-.3076,2.2256,2.2256,0,0,1,2.2969,1.2715h.0547a2.3871,2.3871,0,0,1,.9707-.93,3.0143,3.0143,0,0,1,1.4492-.3418,2.5391,2.5391,0,0,1,1.9038.6523,2.9232,2.9232,0,0,1,.6323,2.0889v4.8877Z" style="fill:#9a9897"/><path d="M176.604,319.1172v4.86a1.9569,1.9569,0,0,0,.417,1.3672,1.6987,1.6987,0,0,0,1.3057.4512,2.1294,2.1294,0,0,0,1.7192-.6426,3.242,3.242,0,0,0,.5435-2.0986v-3.9375h1.1347v7.4922h-.9365l-.1641-1.0049h-.0615a2.2624,2.2624,0,0,1-.9673.8476,3.2462,3.2462,0,0,1-1.4116.294,2.8658,2.8658,0,0,1-2.0474-.6494,2.7639,2.7639,0,0,1-.68-2.0781v-4.9014Z" style="fill:#9a9897"/><path d="M193.68,326.6094v-4.874a2.0206,2.0206,0,0,0-.3828-1.3428,1.4805,1.4805,0,0,0-1.19-.4483,1.9216,1.9216,0,0,0-1.5654.6084,2.8906,2.8906,0,0,0-.5059,1.8731v4.1836h-1.1347v-4.874a2.02,2.02,0,0,0-.3829-1.3428,1.4888,1.4888,0,0,0-1.1962-.4483,1.8516,1.8516,0,0,0-1.5621.64,3.4561,3.4561,0,0,0-.4956,2.0947v3.9307H184.13v-7.4922h.9228l.1846,1.0254h.0547a2.233,2.233,0,0,1,.9057-.8545,2.7676,2.7676,0,0,1,1.3091-.3076,2.2256,2.2256,0,0,1,2.2969,1.2715h.0547a2.3877,2.3877,0,0,1,.9707-.93,3.0143,3.0143,0,0,1,1.4492-.3418,2.539,2.539,0,0,1,1.9038.6523,2.9232,2.9232,0,0,1,.6323,2.0889v4.8877Z" style="fill:#9a9897"/><path d="M206.5317,326.6094H200.96v-9.9942h5.5713v1.0323h-4.4091v3.22h4.1425v1.0254h-4.1425V325.57h4.4091Z" style="fill:#9a9897"/><path d="M211.9526,319.999h-1.9072v6.61h-1.1348v-6.61h-1.34v-.5127l1.34-.41v-.417q0-2.7612,2.4131-2.7617a4.9767,4.9767,0,0,1,1.3946.2392l-.294.9092a3.7425,3.7425,0,0,0-1.1211-.2119,1.092,1.092,0,0,0-.95.4277,2.381,2.381,0,0,0-.3076,1.37v.4854h1.9072Zm4.7442,0H214.79v6.61h-1.1348v-6.61h-1.34v-.5127l1.34-.41v-.417q0-2.7612,2.4131-2.7617a4.9761,4.9761,0,0,1,1.3945.2392l-.2939.9092a3.7431,3.7431,0,0,0-1.1211-.2119,1.0917,1.0917,0,0,0-.95.4277,2.381,2.381,0,0,0-.3076,1.37v.4854h1.9072Z" style="fill:#9a9897"/><path d="M224.5376,322.8564a4.13,4.13,0,0,1-.9229,2.86,3.2485,3.2485,0,0,1-2.55,1.0293,3.3764,3.3764,0,0,1-1.7841-.4717,3.1139,3.1139,0,0,1-1.2032-1.3535,4.7162,4.7162,0,0,1-.4238-2.0645,4.1272,4.1272,0,0,1,.916-2.8544,3.2419,3.2419,0,0,1,2.543-1.0215,3.1692,3.1692,0,0,1,2.4985,1.0459A4.1141,4.1141,0,0,1,224.5376,322.8564Zm-5.708,0a3.5554,3.5554,0,0,0,.5742,2.1875,2.2785,2.2785,0,0,0,3.38.003,3.5333,3.5333,0,0,0,.5776-2.19,3.4841,3.4841,0,0,0-.5776-2.1709,2.0305,2.0305,0,0,0-1.7056-.7412,1.9985,1.9985,0,0,0-1.6816.7315A3.519,3.519,0,0,0,218.83,322.8564Z" style="fill:#9a9897"/><path d="M229.9448,318.9805a4.4391,4.4391,0,0,1,.8955.082l-.1572,1.0527a3.8718,3.8718,0,0,0-.82-.1025,1.9971,1.9971,0,0,0-1.5552.7383,2.6928,2.6928,0,0,0-.646,1.8388v4.02h-1.1347v-7.4922h.9365l.13,1.3877h.0546a3.2963,3.2963,0,0,1,1.0049-1.1279A2.26,2.26,0,0,1,229.9448,318.9805Z" style="fill:#9a9897"/><path d="M234.6616,325.81a3.7471,3.7471,0,0,0,.5811-.044,3.7994,3.7994,0,0,0,.4443-.0927v.8681a2.0382,2.0382,0,0,1-.5434.1465,4.0443,4.0443,0,0,1-.646.0586q-2.1739,0-2.1739-2.29V319.999h-1.0732v-.5469l1.0732-.4716.4785-1.6h.6563v1.7363h2.1738v.8818h-2.1738v4.4092a1.5153,1.5153,0,0,0,.3213,1.0391A1.12,1.12,0,0,0,234.6616,325.81Z" style="fill:#9a9897"/><path d="M239.563,322.7744a10.3063,10.3063,0,0,1-.53,3.35,8.01,8.01,0,0,1-1.5278,2.7h-1.0938a9.86,9.86,0,0,0,1.4561-2.8535,10.3988,10.3988,0,0,0,.5058-3.21,10.772,10.772,0,0,0-.4956-3.247,9.6425,9.6425,0,0,0-1.48-2.8985h1.1075a8.39,8.39,0,0,1,1.5312,2.7793A10.6351,10.6351,0,0,1,239.563,322.7744Z" style="fill:#9a9897"/><path d="M320.7441,319.1455H319.377l-3.6436-4.8467-1.0459.93v3.917h-1.1621v-9.9941h1.1621v4.956l4.5322-4.956h1.3741l-4.02,4.3408Z" style="fill:#9a9897"/><path d="M325.1123,319.2822a3.4391,3.4391,0,0,1-2.6211-1.0117,3.9166,3.9166,0,0,1-.9609-2.81,4.3427,4.3427,0,0,1,.8926-2.8779,2.9632,2.9632,0,0,1,2.3955-1.0664,2.8253,2.8253,0,0,1,2.2285.9258,3.5522,3.5522,0,0,1,.82,2.4443v.7178h-5.1611a2.9716,2.9716,0,0,0,.6669,2.0029,2.3019,2.3019,0,0,0,1.78.6836,6.0391,6.0391,0,0,0,2.3926-.5058v1.0117a5.9467,5.9467,0,0,1-1.1377.372A6.33,6.33,0,0,1,325.1123,319.2822Zm-.3076-6.8154a1.8527,1.8527,0,0,0-1.4385.5879,2.71,2.71,0,0,0-.6328,1.6269h3.917a2.49,2.49,0,0,0-.4785-1.6435A1.6822,1.6822,0,0,0,324.8047,312.4668Z" style="fill:#9a9897"/><path d="M332.9668,319.2822a3.4391,3.4391,0,0,1-2.6211-1.0117,3.9166,3.9166,0,0,1-.9609-2.81,4.3432,4.3432,0,0,1,.8925-2.8779,2.9635,2.9635,0,0,1,2.3956-1.0664,2.8253,2.8253,0,0,1,2.2285.9258,3.5527,3.5527,0,0,1,.82,2.4443v.7178h-5.1612a2.9721,2.9721,0,0,0,.667,2.0029,2.3019,2.3019,0,0,0,1.78.6836,6.0391,6.0391,0,0,0,2.3926-.5058v1.0117a5.9467,5.9467,0,0,1-1.1377.372A6.33,6.33,0,0,1,332.9668,319.2822Zm-.3076-6.8154a1.8527,1.8527,0,0,0-1.4385.5879,2.71,2.71,0,0,0-.6328,1.6269h3.917a2.49,2.49,0,0,0-.4785-1.6435A1.6822,1.6822,0,0,0,332.6592,312.4668Z" style="fill:#9a9897"/><path d="M341.1426,319.2822a3.2465,3.2465,0,0,1-1.336-.2695,2.5188,2.5188,0,0,1-1.0156-.8311h-.082a10.0517,10.0517,0,0,1,.082,1.2442v3.083h-1.1347V311.6533h.9228l.1572,1.0254h.0547a2.6465,2.6465,0,0,1,1.0186-.8887,3.0938,3.0938,0,0,1,1.333-.2734,2.77,2.77,0,0,1,2.3008,1.0186,5.4278,5.4278,0,0,1-.0137,5.7255A2.7767,2.7767,0,0,1,341.1426,319.2822Zm-.1641-6.8017a2.011,2.011,0,0,0-1.6611.6357,3.2763,3.2763,0,0,0-.5264,2.0234v.253a3.75,3.75,0,0,0,.5264,2.2588,2.0013,2.0013,0,0,0,1.6885.6806,1.7556,1.7556,0,0,0,1.5214-.7861,3.732,3.732,0,0,0,.55-2.167,3.5875,3.5875,0,0,0-.55-2.1494A1.8083,1.8083,0,0,0,340.9785,312.4805Z" style="fill:#9a9897"/><path d="M350.043,319.1455v-9.9941h1.1621v9.9941Z" style="fill:#9a9897"/><path d="M358.9023,319.1455v-4.8467a1.9546,1.9546,0,0,0-.4169-1.3672,1.6977,1.6977,0,0,0-1.3057-.4511,2.1555,2.1555,0,0,0-1.7227.6357,3.2113,3.2113,0,0,0-.5468,2.0986v3.9307h-1.1348v-7.4922h.9228l.1846,1.0254h.0547a2.3135,2.3135,0,0,1,.9775-.8574,3.1758,3.1758,0,0,1,1.4014-.3047,2.8478,2.8478,0,0,1,2.0371.6523,2.7789,2.7789,0,0,1,.6836,2.0889v4.8877Z" style="fill:#9a9897"/><path d="M365.7451,312.5352h-1.9072v6.61h-1.1348v-6.61h-1.34v-.5127l1.34-.41v-.417q0-2.7612,2.4131-2.7617a4.9766,4.9766,0,0,1,1.3945.2393l-.2939.9091a3.74,3.74,0,0,0-1.1211-.2119,1.0924,1.0924,0,0,0-.95.4278,2.3808,2.3808,0,0,0-.3076,1.37v.4853h1.9072Z" style="fill:#9a9897"/><path d="M373.5791,315.3926a4.1306,4.1306,0,0,1-.9228,2.86,3.2478,3.2478,0,0,1-2.55,1.0293,3.3764,3.3764,0,0,1-1.7841-.4717,3.1164,3.1164,0,0,1-1.2032-1.3535,4.7229,4.7229,0,0,1-.4238-2.0644,4.13,4.13,0,0,1,.916-2.8545,3.2433,3.2433,0,0,1,2.543-1.0215,3.17,3.17,0,0,1,2.499,1.0459A4.1166,4.1166,0,0,1,373.5791,315.3926Zm-5.708,0a3.5558,3.5558,0,0,0,.5742,2.1875,2.2792,2.2792,0,0,0,3.3809.0029,3.5364,3.5364,0,0,0,.5771-2.19,3.487,3.487,0,0,0-.5771-2.1709,2.0319,2.0319,0,0,0-1.7061-.7412,2,2,0,0,0-1.6816.7314A3.5219,3.5219,0,0,0,367.8711,315.3926Z" style="fill:#9a9897"/><path d="M378.9863,311.5166a4.4321,4.4321,0,0,1,.8955.082l-.1572,1.0528a3.8585,3.8585,0,0,0-.82-.1026,1.9968,1.9968,0,0,0-1.5547.7383,2.6929,2.6929,0,0,0-.6465,1.8389v4.02h-1.1347v-7.4922h.9365l.13,1.3877h.0547a3.3052,3.3052,0,0,1,1.0048-1.1279A2.2625,2.2625,0,0,1,378.9863,311.5166Z" style="fill:#9a9897"/><path d="M390.833,319.1455v-4.874a2.0175,2.0175,0,0,0-.3828-1.3428,1.4791,1.4791,0,0,0-1.19-.4482,1.9226,1.9226,0,0,0-1.5654.6084,2.8931,2.8931,0,0,0-.5058,1.873v4.1836h-1.1348v-4.874a2.018,2.018,0,0,0-.3828-1.3428,1.4876,1.4876,0,0,0-1.1963-.4482,1.85,1.85,0,0,0-1.5615.64,3.4515,3.4515,0,0,0-.4961,2.0947v3.9307h-1.1348v-7.4922h.9229l.1845,1.0254h.0547a2.2384,2.2384,0,0,1,.9063-.8545,2.7665,2.7665,0,0,1,1.3086-.3076,2.2246,2.2246,0,0,1,2.2968,1.2715h.0547a2.3914,2.3914,0,0,1,.9707-.93,3.0172,3.0172,0,0,1,1.4492-.3418,2.5412,2.5412,0,0,1,1.9043.6523,2.9256,2.9256,0,0,1,.6319,2.0889v4.8877Z" style="fill:#9a9897"/><path d="M397.4707,319.2822a3.4391,3.4391,0,0,1-2.6211-1.0117,3.9166,3.9166,0,0,1-.9609-2.81,4.3427,4.3427,0,0,1,.8926-2.8779,2.9632,2.9632,0,0,1,2.3955-1.0664,2.8253,2.8253,0,0,1,2.2285.9258,3.5527,3.5527,0,0,1,.82,2.4443v.7178h-5.1611a2.9716,2.9716,0,0,0,.6669,2.0029,2.3019,2.3019,0,0,0,1.78.6836,6.0391,6.0391,0,0,0,2.3926-.5058v1.0117a5.9467,5.9467,0,0,1-1.1377.372A6.33,6.33,0,0,1,397.4707,319.2822Zm-.3076-6.8154a1.8527,1.8527,0,0,0-1.4385.5879,2.71,2.71,0,0,0-.6328,1.6269h3.917a2.49,2.49,0,0,0-.4785-1.6435A1.6822,1.6822,0,0,0,397.1631,312.4668Z" style="fill:#9a9897"/><path d="M407.26,318.1406h-.0616a2.6657,2.6657,0,0,1-2.3515,1.1416,2.78,2.78,0,0,1-2.2862-1.0049,4.4206,4.4206,0,0,1-.8173-2.8574,4.4972,4.4972,0,0,1,.82-2.8779,2.7613,2.7613,0,0,1,2.2832-1.0254,2.7236,2.7236,0,0,1,2.3379,1.1074h.0888l-.0478-.54-.0274-.5264v-3.0488h1.1348v10.6367H407.41Zm-2.27.1914a2.0682,2.0682,0,0,0,1.6856-.6318,3.1984,3.1984,0,0,0,.5224-2.041V315.42a3.7622,3.7622,0,0,0-.5293-2.2724,2.0106,2.0106,0,0,0-1.6923-.6807,1.7354,1.7354,0,0,0-1.5274.7764,3.8519,3.8519,0,0,0-.53,2.19,3.7,3.7,0,0,0,.5264,2.167A1.7846,1.7846,0,0,0,404.99,318.332Z" style="fill:#9a9897"/><path d="M315.6787,147.6982l-3.3906-8.8593h-.0547q.0967,1.0531.0957,2.5019v6.3574h-1.0732v-9.9941h1.75l3.165,8.2441h.0547l3.1924-8.2441h1.7363v9.9941h-1.1621v-6.4394q0-1.1075.0957-2.4063h-.0547l-3.418,8.8457Z" style="fill:#9a9897"/><path d="M328.332,147.6982l-.2256-1.0664h-.0546a3.141,3.141,0,0,1-1.1172.9532,3.398,3.398,0,0,1-1.3916.25,2.5007,2.5007,0,0,1-1.7461-.5743,2.0938,2.0938,0,0,1-.6328-1.6337q0-2.2691,3.63-2.379l1.2715-.041v-.4648a1.8962,1.8962,0,0,0-.3789-1.3018,1.5572,1.5572,0,0,0-1.2138-.4209,4.9466,4.9466,0,0,0-2.1192.5743l-.3486-.8682a5.3548,5.3548,0,0,1,1.2139-.4717,5.2359,5.2359,0,0,1,1.3222-.1709,2.8549,2.8549,0,0,1,1.9863.5947,2.4824,2.4824,0,0,1,.6456,1.9073v5.1132Zm-2.5634-.8a2.3019,2.3019,0,0,0,1.665-.581,2.15,2.15,0,0,0,.6045-1.627v-.6767l-1.1348.0478a4.135,4.135,0,0,0-1.9512.42,1.268,1.268,0,0,0-.5986,1.1592,1.1664,1.1664,0,0,0,.3731.9365A1.5465,1.5465,0,0,0,325.7686,146.8984Z" style="fill:#9a9897"/><path d="M336.6377,147.6982v-4.8466a1.9545,1.9545,0,0,0-.417-1.3672,1.6972,1.6972,0,0,0-1.3057-.4512,2.1551,2.1551,0,0,0-1.7226.6357,3.211,3.211,0,0,0-.5469,2.0987v3.9306h-1.1348v-7.4921h.9229l.1846,1.0253h.0547a2.3136,2.3136,0,0,1,.9775-.8574,3.1751,3.1751,0,0,1,1.4014-.3047,2.8475,2.8475,0,0,1,2.0371.6524,2.7789,2.7789,0,0,1,.6836,2.0888v4.8877Z" style="fill:#9a9897"/><path d="M344.7109,147.6982l-.2255-1.0664h-.0547a3.141,3.141,0,0,1-1.1172.9532,3.398,3.398,0,0,1-1.3916.25,2.5007,2.5007,0,0,1-1.7461-.5743,2.0938,2.0938,0,0,1-.6328-1.6337q0-2.2691,3.63-2.379l1.2714-.041v-.4648a1.8962,1.8962,0,0,0-.3789-1.3018,1.5572,1.5572,0,0,0-1.2138-.4209,4.9466,4.9466,0,0,0-2.1192.5743l-.3486-.8682a5.3548,5.3548,0,0,1,1.2139-.4717,5.2359,5.2359,0,0,1,1.3222-.1709,2.8553,2.8553,0,0,1,1.9864.5947,2.4828,2.4828,0,0,1,.6455,1.9073v5.1132Zm-2.5634-.8a2.3019,2.3019,0,0,0,1.665-.581,2.15,2.15,0,0,0,.6045-1.627v-.6767l-1.1348.0478a4.1343,4.1343,0,0,0-1.9511.42,1.2679,1.2679,0,0,0-.5987,1.1592,1.1664,1.1664,0,0,0,.3731.9365A1.5465,1.5465,0,0,0,342.1475,146.8984Z" style="fill:#9a9897"/><path d="M354.0215,140.2061v.7177l-1.3877.1641a2.44,2.44,0,0,1,.4922,1.4971,2.213,2.213,0,0,1-.752,1.7568,3.0327,3.0327,0,0,1-2.0644.6562,3.4775,3.4775,0,0,1-.6289-.0546,1.1169,1.1169,0,0,0-.7246.9638.4921.4921,0,0,0,.2529.4551,1.853,1.853,0,0,0,.8681.1465h1.3262a2.9711,2.9711,0,0,1,1.87.5127,1.7832,1.7832,0,0,1,.6524,1.49,2.1275,2.1275,0,0,1-.9981,1.8975,5.3459,5.3459,0,0,1-2.9121.6523,3.9783,3.9783,0,0,1-2.2656-.5469,1.7654,1.7654,0,0,1-.7969-1.5449,1.7384,1.7384,0,0,1,.4375-1.1826,2.2258,2.2258,0,0,1,1.2305-.6767,1.1871,1.1871,0,0,1-.4815-.4034,1.07,1.07,0,0,1-.1953-.6357,1.2091,1.2091,0,0,1,.2188-.7178,2.3083,2.3083,0,0,1,.69-.5947,2.0213,2.0213,0,0,1-.9463-.8135,2.3883,2.3883,0,0,1-.3662-1.3125,2.4266,2.4266,0,0,1,.7383-1.8974,3.0188,3.0188,0,0,1,2.0918-.6661,3.81,3.81,0,0,1,1.06.1368Zm-5.9746,8.75a1.0176,1.0176,0,0,0,.5127.9228,2.8267,2.8267,0,0,0,1.47.3145,4.1084,4.1084,0,0,0,2.1162-.4268,1.3092,1.3092,0,0,0,.6865-1.1592.9185.9185,0,0,0-.3759-.8447,2.9293,2.9293,0,0,0-1.4151-.2354h-1.36a1.7925,1.7925,0,0,0-1.2032.3692A1.32,1.32,0,0,0,348.0469,148.9561Zm.6152-6.3506a1.5254,1.5254,0,0,0,.4443,1.1894,1.7773,1.7773,0,0,0,1.2374.4033,1.4475,1.4475,0,0,0,1.6611-1.6132,1.4893,1.4893,0,0,0-1.6817-1.6885,1.6647,1.6647,0,0,0-1.23.4306A1.7342,1.7342,0,0,0,348.6621,142.6055Z" style="fill:#9a9897"/><path d="M358.7246,147.835a3.4392,3.4392,0,0,1-2.6211-1.0118,3.9165,3.9165,0,0,1-.9609-2.81,4.3432,4.3432,0,0,1,.8926-2.878,2.9632,2.9632,0,0,1,2.3955-1.0664,2.8253,2.8253,0,0,1,2.2285.9258,3.5525,3.5525,0,0,1,.82,2.4444v.7177h-5.1611a2.9716,2.9716,0,0,0,.667,2.003,2.3021,2.3021,0,0,0,1.78.6836,6.0393,6.0393,0,0,0,2.3926-.5059V147.35a5.94,5.94,0,0,1-1.1377.3721A6.33,6.33,0,0,1,358.7246,147.835Zm-.3076-6.8155a1.8527,1.8527,0,0,0-1.4385.5879,2.7105,2.7105,0,0,0-.6328,1.627h3.917a2.49,2.49,0,0,0-.4785-1.6436A1.6825,1.6825,0,0,0,358.417,141.02Z" style="fill:#9a9897"/><path d="M371.501,138.6a3.27,3.27,0,0,0-2.6006,1.0967,4.4284,4.4284,0,0,0-.9541,3.0049,4.5152,4.5152,0,0,0,.92,3.0322,3.267,3.267,0,0,0,2.6211,1.0693,8.9357,8.9357,0,0,0,2.3857-.3759v1.0185a7.3426,7.3426,0,0,1-2.5634.39,4.3349,4.3349,0,0,1-3.4073-1.34,5.5177,5.5177,0,0,1-1.2-3.8076,5.998,5.998,0,0,1,.5782-2.707,4.1408,4.1408,0,0,1,1.6679-1.791,5.0488,5.0488,0,0,1,2.5664-.629,6.19,6.19,0,0,1,2.7481.5743l-.4922.998A5.2932,5.2932,0,0,0,371.501,138.6Z" style="fill:#9a9897"/><path d="M377.0176,147.6982h-1.1348V137.0615h1.1348Z" style="fill:#9a9897"/><path d="M385.8906,143.9453a4.131,4.131,0,0,1-.9228,2.86,3.2481,3.2481,0,0,1-2.55,1.0293,3.3774,3.3774,0,0,1-1.7842-.4717,3.1174,3.1174,0,0,1-1.2031-1.3535,4.7219,4.7219,0,0,1-.4239-2.0645,4.1294,4.1294,0,0,1,.9161-2.8545,3.2433,3.2433,0,0,1,2.5429-1.0215,3.1706,3.1706,0,0,1,2.499,1.0459A4.1167,4.1167,0,0,1,385.8906,143.9453Zm-5.708,0a3.5558,3.5558,0,0,0,.5742,2.1875,2.279,2.279,0,0,0,3.3809.0029,3.5357,3.5357,0,0,0,.5771-2.19,3.4866,3.4866,0,0,0-.5771-2.1709,2.032,2.032,0,0,0-1.7061-.7412,2,2,0,0,0-1.6816.7314A3.5228,3.5228,0,0,0,380.1826,143.9453Z" style="fill:#9a9897"/><path d="M392.7129,145.6543a1.8765,1.8765,0,0,1-.7793,1.6133,3.6643,3.6643,0,0,1-2.1875.5674,4.76,4.76,0,0,1-2.3242-.4717v-1.0528a5.5755,5.5755,0,0,0,1.1592.4307,4.8472,4.8472,0,0,0,1.1923.1572,2.6993,2.6993,0,0,0,1.3672-.2841.9771.9771,0,0,0,.1-1.6133,5.961,5.961,0,0,0-1.48-.7344,8.0461,8.0461,0,0,1-1.4864-.68,2.0376,2.0376,0,0,1-.6562-.66,1.72,1.72,0,0,1-.2158-.8819,1.6842,1.6842,0,0,1,.7451-1.4463,3.4792,3.4792,0,0,1,2.0439-.5293,5.9789,5.9789,0,0,1,2.3653.4922l-.4034.9229a5.4321,5.4321,0,0,0-2.0439-.4649,2.3492,2.3492,0,0,0-1.2168.253.7828.7828,0,0,0-.41.6972.8511.8511,0,0,0,.1543.5127,1.5189,1.5189,0,0,0,.4952.4033,11.0584,11.0584,0,0,0,1.3125.5538,4.9045,4.9045,0,0,1,1.8017.9775A1.7257,1.7257,0,0,1,392.7129,145.6543Z" style="fill:#9a9897"/><path d="M397.7236,147.835a3.4392,3.4392,0,0,1-2.6211-1.0118,3.9165,3.9165,0,0,1-.9609-2.81,4.3437,4.3437,0,0,1,.8926-2.878,2.9632,2.9632,0,0,1,2.3955-1.0664,2.8253,2.8253,0,0,1,2.2285.9258,3.5525,3.5525,0,0,1,.82,2.4444v.7177h-5.1611a2.9716,2.9716,0,0,0,.667,2.003,2.3021,2.3021,0,0,0,1.78.6836,6.0393,6.0393,0,0,0,2.3926-.5059V147.35a5.9382,5.9382,0,0,1-1.1377.3721A6.33,6.33,0,0,1,397.7236,147.835Zm-.3076-6.8155a1.8529,1.8529,0,0,0-1.4385.5879,2.7105,2.7105,0,0,0-.6328,1.627h3.917a2.49,2.49,0,0,0-.4785-1.6436A1.6825,1.6825,0,0,0,397.416,141.02Z" style="fill:#9a9897"/><path d="M403.5479,147.6982h-1.1348V137.0615h1.1348Z" style="fill:#9a9897"/><path d="M404.7646,140.2061h1.2168l1.6407,4.2724a16.1294,16.1294,0,0,1,.67,2.1123h.0547q.0894-.3486.373-1.1933t1.8555-5.1914h1.2168l-3.22,8.5312a4.2589,4.2589,0,0,1-1.1172,1.7949,2.3816,2.3816,0,0,1-1.5694.5293,4.5883,4.5883,0,0,1-1.0253-.1162v-.9092a3.9578,3.9578,0,0,0,.8408.0821,1.7325,1.7325,0,0,0,1.6679-1.3125l.417-1.0664Z" style="fill:#9a9897"/><path d="M147.1484,147.6982h-1.3671l-3.6436-4.8466-1.0459.93v3.9169H139.93v-9.9941h1.1621V142.66l4.5322-4.9561h1.374l-4.0195,4.3408Z" style="fill:#9a9897"/><path d="M151.5166,147.835a3.441,3.441,0,0,1-2.6216-1.0118,3.9184,3.9184,0,0,1-.96-2.81,4.343,4.343,0,0,1,.8921-2.878,2.9635,2.9635,0,0,1,2.396-1.0664,2.826,2.826,0,0,1,2.2285.9258,3.553,3.553,0,0,1,.82,2.4444v.7177H149.11a2.9715,2.9715,0,0,0,.6665,2.003,2.3038,2.3038,0,0,0,1.7807.6836,6.0411,6.0411,0,0,0,2.3926-.5059V147.35a5.9444,5.9444,0,0,1-1.1382.3721A6.3218,6.3218,0,0,1,151.5166,147.835Zm-.3076-6.8155a1.8545,1.8545,0,0,0-1.439.5879,2.71,2.71,0,0,0-.6323,1.627h3.917a2.4931,2.4931,0,0,0-.4785-1.6436A1.6838,1.6838,0,0,0,151.209,141.02Z" style="fill:#9a9897"/><path d="M159.3711,147.835a3.4409,3.4409,0,0,1-2.6216-1.0118,3.9184,3.9184,0,0,1-.96-2.81,4.343,4.343,0,0,1,.8921-2.878,2.9634,2.9634,0,0,1,2.3959-1.0664,2.8261,2.8261,0,0,1,2.2286.9258,3.553,3.553,0,0,1,.82,2.4444v.7177h-5.1612a2.9725,2.9725,0,0,0,.6665,2.003,2.3041,2.3041,0,0,0,1.7808.6836,6.0411,6.0411,0,0,0,2.3926-.5059V147.35a5.9444,5.9444,0,0,1-1.1382.3721A6.3218,6.3218,0,0,1,159.3711,147.835Zm-.3076-6.8155a1.8545,1.8545,0,0,0-1.439.5879,2.71,2.71,0,0,0-.6323,1.627h3.917a2.4931,2.4931,0,0,0-.4785-1.6436A1.6838,1.6838,0,0,0,159.0635,141.02Z" style="fill:#9a9897"/><path d="M167.5469,147.835a3.2473,3.2473,0,0,1-1.3365-.27,2.5172,2.5172,0,0,1-1.0151-.831h-.082a10.05,10.05,0,0,1,.082,1.2441v3.083h-1.1348V140.2061h.9229l.1572,1.0253h.0547a2.6382,2.6382,0,0,1,1.0186-.8886,3.0906,3.0906,0,0,1,1.333-.2735,2.77,2.77,0,0,1,2.3,1.0186,5.4251,5.4251,0,0,1-.0137,5.7256A2.776,2.776,0,0,1,167.5469,147.835Zm-.1641-6.8018a2.011,2.011,0,0,0-1.6611.6357,3.2736,3.2736,0,0,0-.5264,2.0235v.2529a3.7457,3.7457,0,0,0,.5264,2.2588,2,2,0,0,0,1.6885.6807,1.7551,1.7551,0,0,0,1.521-.7862,3.7289,3.7289,0,0,0,.55-2.167,3.585,3.585,0,0,0-.55-2.1494A1.8077,1.8077,0,0,0,167.3828,141.0332Z" style="fill:#9a9897"/><path d="M182.0869,145.0391a2.4506,2.4506,0,0,1-.957,2.0576,4.15,4.15,0,0,1-2.5977.7383,6.5017,6.5017,0,0,1-2.7343-.458v-1.1211a7.2555,7.2555,0,0,0,1.34.41,7.0227,7.0227,0,0,0,1.4355.15,2.9038,2.9038,0,0,0,1.75-.44,1.4482,1.4482,0,0,0,.5879-1.2276,1.57,1.57,0,0,0-.2085-.8505,1.9312,1.9312,0,0,0-.6972-.6124,9.8107,9.8107,0,0,0-1.4868-.6357,4.7474,4.7474,0,0,1-1.9927-1.1826,2.6116,2.6116,0,0,1-.5982-1.7842,2.22,2.22,0,0,1,.8682-1.8389,3.6055,3.6055,0,0,1,2.2969-.6836,6.7751,6.7751,0,0,1,2.7412.5469l-.3623,1.0117a6.19,6.19,0,0,0-2.4063-.5195,2.3261,2.3261,0,0,0-1.4424.3965,1.3072,1.3072,0,0,0-.5195,1.1006,1.6912,1.6912,0,0,0,.1914.8515,1.7931,1.7931,0,0,0,.646.6075,7.979,7.979,0,0,0,1.3911.6123,5.5041,5.5041,0,0,1,2.1636,1.2031A2.3678,2.3678,0,0,1,182.0869,145.0391Z" style="fill:#9a9897"/><path d="M188.5674,147.6982l-.2256-1.0664h-.0547a3.1412,3.1412,0,0,1-1.1177.9532,3.3949,3.3949,0,0,1-1.3911.25,2.502,2.502,0,0,1-1.7466-.5743,2.0956,2.0956,0,0,1-.6323-1.6337q0-2.2691,3.63-2.379l1.2715-.041v-.4648a1.8967,1.8967,0,0,0-.3794-1.3018,1.5569,1.5569,0,0,0-1.2134-.4209,4.9426,4.9426,0,0,0-2.1191.5743l-.3487-.8682a5.3635,5.3635,0,0,1,1.2134-.4717,5.2411,5.2411,0,0,1,1.3228-.1709,2.8547,2.8547,0,0,1,1.9858.5947,2.4825,2.4825,0,0,1,.646,1.9073v5.1132Zm-2.5635-.8a2.3019,2.3019,0,0,0,1.6646-.581,2.15,2.15,0,0,0,.6049-1.627v-.6767l-1.1347.0478a4.1383,4.1383,0,0,0-1.9517.42,1.2686,1.2686,0,0,0-.5981,1.1592,1.168,1.168,0,0,0,.3725.9365A1.5481,1.5481,0,0,0,186.0039,146.8984Z" style="fill:#9a9897"/><path d="M194.166,146.8984a3.7472,3.7472,0,0,0,.5811-.0439,3.8171,3.8171,0,0,0,.4443-.0928v.8682a2.038,2.038,0,0,1-.5435.1465,4.0538,4.0538,0,0,1-.6459.0586q-2.174,0-2.1739-2.29v-4.457h-1.0732v-.5469l1.0732-.4717.4785-1.6h.6563v1.7364h2.1738v.8818h-2.1738v4.4092a1.5152,1.5152,0,0,0,.3213,1.039A1.12,1.12,0,0,0,194.166,146.8984Z" style="fill:#9a9897"/><path d="M196.5928,138.1758a.7558.7558,0,0,1,.1914-.5713.7092.7092,0,0,1,.95.0039.74.74,0,0,1,.1982.5674.7539.7539,0,0,1-.1982.5713.6635.6635,0,0,1-.4717.1875.656.656,0,0,1-.4785-.1875A.7709.7709,0,0,1,196.5928,138.1758Zm1.23,9.5224h-1.1347v-7.4921h1.1347Z" style="fill:#9a9897"/><path d="M205.0625,145.6543a1.8765,1.8765,0,0,1-.7793,1.6133,3.6651,3.6651,0,0,1-2.1875.5674,4.7571,4.7571,0,0,1-2.3242-.4717v-1.0528a5.5711,5.5711,0,0,0,1.1587.4307,4.8542,4.8542,0,0,0,1.1928.1572,2.7018,2.7018,0,0,0,1.3672-.2841.9767.9767,0,0,0,.0992-1.6133,5.9658,5.9658,0,0,0-1.48-.7344,8.05,8.05,0,0,1-1.4868-.68,2.0379,2.0379,0,0,1-.6563-.66,1.7211,1.7211,0,0,1-.2153-.8819,1.683,1.683,0,0,1,.7451-1.4463,3.477,3.477,0,0,1,2.0439-.5293,5.98,5.98,0,0,1,2.3653.4922l-.4033.9229a5.435,5.435,0,0,0-2.044-.4649,2.348,2.348,0,0,0-1.2168.253.7827.7827,0,0,0-.41.6972.85.85,0,0,0,.1538.5127,1.5145,1.5145,0,0,0,.4956.4033,10.9826,10.9826,0,0,0,1.3125.5538,4.8969,4.8969,0,0,1,1.8012.9775A1.7236,1.7236,0,0,1,205.0625,145.6543Z" style="fill:#9a9897"/><path d="M210.2852,141.0879h-1.9073v6.61h-1.1347v-6.61h-1.34v-.5127l1.34-.41v-.417q0-2.7612,2.4131-2.7617a4.9772,4.9772,0,0,1,1.3945.2393l-.294.9092a3.7425,3.7425,0,0,0-1.1211-.2119,1.0917,1.0917,0,0,0-.95.4277,2.3818,2.3818,0,0,0-.3076,1.37v.4854h1.9073Zm1.2714-2.9121a.7562.7562,0,0,1,.1914-.5713.7092.7092,0,0,1,.95.0039.74.74,0,0,1,.1983.5674.7535.7535,0,0,1-.1983.5713.6633.6633,0,0,1-.4716.1875.6564.6564,0,0,1-.4786-.1875A.7713.7713,0,0,1,211.5566,138.1758Zm1.2305,9.5224h-1.1348v-7.4921h1.1348Z" style="fill:#9a9897"/><path d="M218.3584,147.835a3.441,3.441,0,0,1-2.6216-1.0118,3.9184,3.9184,0,0,1-.96-2.81,4.343,4.343,0,0,1,.8921-2.878,2.9635,2.9635,0,0,1,2.396-1.0664,2.826,2.826,0,0,1,2.2285.9258,3.553,3.553,0,0,1,.82,2.4444v.7177h-5.1612a2.972,2.972,0,0,0,.6666,2.003,2.3038,2.3038,0,0,0,1.7807.6836,6.0411,6.0411,0,0,0,2.3926-.5059V147.35a5.9444,5.9444,0,0,1-1.1382.3721A6.3218,6.3218,0,0,1,218.3584,147.835Zm-.3076-6.8155a1.8545,1.8545,0,0,0-1.439.5879,2.71,2.71,0,0,0-.6323,1.627h3.917a2.4931,2.4931,0,0,0-.4785-1.6436A1.6838,1.6838,0,0,0,218.0508,141.02Z" style="fill:#9a9897"/><path d="M228.1475,146.6934h-.0616a2.6671,2.6671,0,0,1-2.3515,1.1416,2.7814,2.7814,0,0,1-2.2866-1.0049,4.4231,4.4231,0,0,1-.8169-2.8574,4.4973,4.4973,0,0,1,.82-2.878,2.76,2.76,0,0,1,2.2832-1.0254,2.7249,2.7249,0,0,1,2.3379,1.1075h.0888l-.0478-.54-.0274-.5263v-3.0489h1.1348v10.6367h-.9228Zm-2.27.1914a2.0677,2.0677,0,0,0,1.6851-.6319,3.198,3.198,0,0,0,.5229-2.041v-.2392a3.7592,3.7592,0,0,0-.53-2.2725,2.01,2.01,0,0,0-1.6919-.6807,1.7362,1.7362,0,0,0-1.5279.7764,3.8563,3.8563,0,0,0-.53,2.19,3.6963,3.6963,0,0,0,.5264,2.167A1.7835,1.7835,0,0,0,225.8779,146.8848Z" style="fill:#9a9897"/><path d="M67.1274,106.1143v1.1621H62.4243V112.54h4.7031v1.1621H57.1333V112.54h4.252v-5.2636h-4.252v-1.1621Z" style="fill:#4b4b4b"/><path d="M57.605,103.64a.7558.7558,0,0,1-.5713-.1914.7092.7092,0,0,1,.0039-.95.74.74,0,0,1,.5674-.1982.7539.7539,0,0,1,.5713.1982.6637.6637,0,0,1,.1875.4717.656.656,0,0,1-.1875.4785A.7709.7709,0,0,1,57.605,103.64Zm9.5224-1.23v1.1347H59.6353v-1.1347Z" style="fill:#4b4b4b"/><path d="M59.6353,93.8711h.7177l.1641,1.3877a2.44,2.44,0,0,1,1.4971-.4922,2.2146,2.2146,0,0,1,1.7568.752,3.0334,3.0334,0,0,1,.6562,2.0644,3.4694,3.4694,0,0,1-.0546.6289,1.1162,1.1162,0,0,0,.9638.7246.4912.4912,0,0,0,.4551-.2529,1.8521,1.8521,0,0,0,.1465-.8682V96.4893a2.97,2.97,0,0,1,.5127-1.87,1.7823,1.7823,0,0,1,1.49-.6528,2.1287,2.1287,0,0,1,1.8975.998,5.35,5.35,0,0,1,.6523,2.9122,3.98,3.98,0,0,1-.5469,2.2661,1.7661,1.7661,0,0,1-1.5449.7964,1.736,1.736,0,0,1-1.1826-.4375,2.2227,2.2227,0,0,1-.6767-1.23,1.1881,1.1881,0,0,1-.4034.4819,1.0684,1.0684,0,0,1-.6357.1948,1.2056,1.2056,0,0,1-.7178-.2187,2.302,2.302,0,0,1-.5947-.69,2.0218,2.0218,0,0,1-.8135.9467,2.3914,2.3914,0,0,1-1.3125.3658,2.4266,2.4266,0,0,1-1.8974-.7383,3.0188,3.0188,0,0,1-.6661-2.0918,3.8124,3.8124,0,0,1,.1368-1.06Zm2.3994,5.3594a1.5237,1.5237,0,0,0,1.1894-.4444,1.7755,1.7755,0,0,0,.4033-1.2373,1.4475,1.4475,0,0,0-1.6132-1.6611,1.4892,1.4892,0,0,0-1.6885,1.6816A1.665,1.665,0,0,0,60.7563,98.8,1.7342,1.7342,0,0,0,62.0347,99.2305Zm6.3506.6152a1.0176,1.0176,0,0,0,.9228-.5127,2.8254,2.8254,0,0,0,.3145-1.47,4.1074,4.1074,0,0,0-.4268-2.1157,1.31,1.31,0,0,0-1.1592-.6871.92.92,0,0,0-.8447.376,2.932,2.932,0,0,0-.2354,1.4151v1.36a1.7913,1.7913,0,0,0,.3692,1.2031A1.32,1.32,0,0,0,68.3853,99.8457Z" style="fill:#4b4b4b"/><path d="M67.1274,87.2061H62.2808a1.9569,1.9569,0,0,0-1.3672.4169,1.6989,1.6989,0,0,0-.4512,1.3057,2.1381,2.1381,0,0,0,.6426,1.7261,3.2546,3.2546,0,0,0,2.1054.5434h3.917V92.333H56.4907V91.1982h3.22a6.9868,6.9868,0,0,1,.9639.0547v-.0683a2.3161,2.3161,0,0,1-.8515-.9536,3.1038,3.1038,0,0,1-.3106-1.4117,2.8934,2.8934,0,0,1,.6524-2.061,2.75,2.75,0,0,1,2.0751-.687h4.8877Z" style="fill:#4b4b4b"/><path d="M405.5713,440.9863h-1.1621v-4.7031h-5.2637v4.7031h-1.1621v-9.9941h1.1621v4.2519h5.2637v-4.2519h1.1621Z" style="fill:#4b4b4b"/><path d="M408.0459,431.4639a.7543.7543,0,0,1,.1914-.5713.7092.7092,0,0,1,.95.0039.7418.7418,0,0,1,.1982.5674.7558.7558,0,0,1-.1982.5713.665.665,0,0,1-.4717.1875.6554.6554,0,0,1-.4785-.1875A.7693.7693,0,0,1,408.0459,431.4639Zm1.2305,9.5224h-1.1348v-7.4922h1.1348Z" style="fill:#4b4b4b"/><path d="M417.8145,433.4941v.7178l-1.3877.1641a2.4394,2.4394,0,0,1,.4921,1.497,2.2163,2.2163,0,0,1-.7519,1.7569,3.0347,3.0347,0,0,1-2.0645.6562,3.453,3.453,0,0,1-.6289-.0547,1.1156,1.1156,0,0,0-.7246.9639.49.49,0,0,0,.253.4551,1.8516,1.8516,0,0,0,.8681.1465h1.3262a2.968,2.968,0,0,1,1.8691.5127,1.781,1.781,0,0,1,.6534,1.49,2.13,2.13,0,0,1-.9981,1.8975,5.3515,5.3515,0,0,1-2.9121.6523,3.9816,3.9816,0,0,1-2.2666-.5469,1.7665,1.7665,0,0,1-.7959-1.5449,1.7336,1.7336,0,0,1,.4375-1.1826,2.22,2.22,0,0,1,1.2305-.6768,1.1887,1.1887,0,0,1-.4825-.4033,1.0688,1.0688,0,0,1-.1943-.6357,1.202,1.202,0,0,1,.2188-.7178,2.2945,2.2945,0,0,1,.69-.5947,2.0236,2.0236,0,0,1-.9473-.8135,2.396,2.396,0,0,1-.3652-1.3125,2.427,2.427,0,0,1,.7383-1.8975,3.0191,3.0191,0,0,1,2.0918-.666,3.8176,3.8176,0,0,1,1.0595.1367Zm-5.9747,8.75a1.0177,1.0177,0,0,0,.5127.9229,2.8247,2.8247,0,0,0,1.47.3144,4.1069,4.1069,0,0,0,2.1152-.4267,1.31,1.31,0,0,0,.6875-1.1592.9205.9205,0,0,0-.376-.8447,2.9342,2.9342,0,0,0-1.415-.2354h-1.36a1.7906,1.7906,0,0,0-1.2031.3692A1.3194,1.3194,0,0,0,411.84,442.2441Zm.6153-6.3505a1.5219,1.5219,0,0,0,.4443,1.1894,1.7738,1.7738,0,0,0,1.2373.4033,1.4477,1.4477,0,0,0,1.6612-1.6133,1.4893,1.4893,0,0,0-1.6817-1.6884,1.6651,1.6651,0,0,0-1.2305.4306A1.734,1.734,0,0,0,412.4551,435.8936Z" style="fill:#4b4b4b"/><path d="M424.48,440.9863V436.14a1.959,1.959,0,0,0-.417-1.3671,1.7,1.7,0,0,0-1.3057-.4512,2.1385,2.1385,0,0,0-1.7265.6426,3.2548,3.2548,0,0,0-.543,2.1054v3.917h-1.1348V430.35h1.1348v3.22a7.0505,7.0505,0,0,1-.0547.9639h.0684a2.3143,2.3143,0,0,1,.9531-.8516,3.1067,3.1067,0,0,1,1.4121-.31,2.8928,2.8928,0,0,1,2.0606.6523,2.7509,2.7509,0,0,1,.6875,2.0752v4.8877Z" style="fill:#4b4b4b"/><path d="M124.3569,108.6675h-7.2685v-12.85h7.2685v1.7754H119.189v3.498h4.8427v1.7578H119.189v4.0342h5.1679Z" style="fill:#292929"/><path d="M137.8394,108.6675h-2.5752l-6.3194-10.2393h-.07l.044.5713q.123,1.6349.123,2.9883v6.68h-1.9072v-12.85h2.5488l6.3018,10.1865h.0527q-.0175-.2022-.07-1.4717t-.0527-1.9824V95.8179h1.9248Z" style="fill:#292929"/><path d="M146.4878,101.6978h4.7285v6.4511a13.6822,13.6822,0,0,1-2.228.5362,15.7822,15.7822,0,0,1-2.3071.1582,5.798,5.798,0,0,1-4.5-1.7266,6.9574,6.9574,0,0,1-1.5821-4.874,6.5006,6.5006,0,0,1,1.7842-4.8565,6.7107,6.7107,0,0,1,4.9131-1.7529,9.5679,9.5679,0,0,1,3.8144.7734l-.7382,1.7491a7.4227,7.4227,0,0,0-3.1289-.7207,4.2131,4.2131,0,0,0-3.252,1.292,5,5,0,0,0-1.1953,3.5332,5.2718,5.2718,0,0,0,1.0766,3.581,3.9,3.9,0,0,0,3.0982,1.2266,10.1844,10.1844,0,0,0,2.18-.2549V103.5h-2.6631Z" style="fill:#292929"/><path d="M159.46,108.6675H157.395v-8.2969q0-1.4853.07-2.3555-.2021.211-.4965.4659t-1.9732,1.6171l-1.0371-1.3095,3.7793-2.9707H159.46Z" style="fill:#292929"/><path d="M172.38,102.2427a9.14,9.14,0,0,1-1.0767,4.9746,4.0653,4.0653,0,0,1-6.5434-.0527,8.9768,8.9768,0,0,1-1.1075-4.9219A9.1956,9.1956,0,0,1,164.73,97.228a4.0692,4.0692,0,0,1,6.5434.0752A9.0432,9.0432,0,0,1,172.38,102.2427Zm-6.6358,0a9.3611,9.3611,0,0,0,.5406,3.7529,1.8889,1.8889,0,0,0,3.4628-.0176,9.241,9.241,0,0,0,.5494-3.7353,9.3112,9.3112,0,0,0-.5494-3.7393,1.8816,1.8816,0,0,0-3.4628-.0224A9.43,9.43,0,0,0,165.7446,102.2427Z" style="fill:#292929"/><path d="M182.6548,102.2427a9.14,9.14,0,0,1-1.0767,4.9746,4.0653,4.0653,0,0,1-6.5434-.0527,8.9768,8.9768,0,0,1-1.1075-4.9219,9.1956,9.1956,0,0,1,1.0767-5.0147,4.0693,4.0693,0,0,1,6.5435.0752A9.0442,9.0442,0,0,1,182.6548,102.2427Zm-6.6358,0a9.3611,9.3611,0,0,0,.5406,3.7529,1.889,1.889,0,0,0,3.4629-.0176,9.2432,9.2432,0,0,0,.5493-3.7353,9.3133,9.3133,0,0,0-.5493-3.7393,1.8817,1.8817,0,0,0-3.4629-.0224A9.43,9.43,0,0,0,176.019,102.2427Z" style="fill:#292929"/><path d="M195.5747,102.12a6.4013,6.4013,0,0,1-1.7666,4.8643,7.0915,7.0915,0,0,1-5.0889,1.6836h-3.5947v-12.85h3.9727A6.573,6.573,0,0,1,193.87,97.47,6.1743,6.1743,0,0,1,195.5747,102.12Zm-2.2148.07q0-4.6141-4.3155-4.6142h-1.8193v9.3252h1.4941Q193.36,106.9009,193.36,102.19Z" style="fill:#292929"/><path d="M210.4194,105.1782a3.2342,3.2342,0,0,1-1.2392,2.6895,5.3934,5.3934,0,0,1-3.419.9756,8.157,8.157,0,0,1-3.5683-.6768V106.18a9.6982,9.6982,0,0,0,1.8676.65,7.92,7.92,0,0,0,1.8414.2373,2.9292,2.9292,0,0,0,1.8413-.4746,1.5477,1.5477,0,0,0,.5932-1.2745,1.597,1.597,0,0,0-.5449-1.2216,8.2052,8.2052,0,0,0-2.25-1.1866,5.9528,5.9528,0,0,1-2.4785-1.6259,3.44,3.44,0,0,1-.7207-2.1973,3.0769,3.0769,0,0,1,1.1426-2.5312,4.7389,4.7389,0,0,1,3.0673-.9229,9.0122,9.0122,0,0,1,3.6739.8086l-.668,1.7139a8.026,8.026,0,0,0-3.0586-.7207,2.3529,2.3529,0,0,0-1.5469.4433,1.46,1.46,0,0,0-.5273,1.1738,1.6567,1.6567,0,0,0,.2109.8575,2.164,2.164,0,0,0,.6944.6718,11.7323,11.7323,0,0,0,1.74.835,9.5223,9.5223,0,0,1,2.0742,1.0986,3.232,3.232,0,0,1,.9668,1.1514A3.4627,3.4627,0,0,1,210.4194,105.1782Z" style="fill:#292929"/><path d="M216.3081,107.1733a5.0227,5.0227,0,0,0,1.5117-.2373v1.5557a4.1723,4.1723,0,0,1-.8833.25,6.0835,6.0835,0,0,1-1.1206.1016q-2.9355,0-2.9355-3.0938v-5.2383h-1.3272v-.914l1.4239-.7559.7031-2.0566h1.2744v2.1621h2.7685v1.5644h-2.7685v5.2032a1.4626,1.4626,0,0,0,.3735,1.1035A1.3657,1.3657,0,0,0,216.3081,107.1733Z" style="fill:#292929"/><path d="M225.8442,108.6675l-.413-1.3535h-.07a3.9827,3.9827,0,0,1-1.415,1.2089,4.4918,4.4918,0,0,1-1.8281.32,3.0939,3.0939,0,0,1-2.2368-.7735,2.8938,2.8938,0,0,1-.8042-2.1885,2.5692,2.5692,0,0,1,1.1162-2.2675,6.4357,6.4357,0,0,1,3.4013-.835l1.6787-.0527v-.5186a1.9684,1.9684,0,0,0-.435-1.3935,1.7777,1.7777,0,0,0-1.3491-.461,4.6639,4.6639,0,0,0-1.4326.22,10.7981,10.7981,0,0,0-1.3184.5185l-.668-1.4766a7.2386,7.2386,0,0,1,1.7315-.6289,8.0277,8.0277,0,0,1,1.7754-.2148,4.2046,4.2046,0,0,1,2.7993.8086,3.1657,3.1657,0,0,1,.9448,2.54v6.5479Zm-3.0761-1.4063a2.5543,2.5543,0,0,0,1.8061-.6289,2.2754,2.2754,0,0,0,.6812-1.7617v-.8437l-1.2481.0527a4.2584,4.2584,0,0,0-2.1225.4883,1.48,1.48,0,0,0-.6636,1.331,1.302,1.302,0,0,0,.3867,1.0069A1.6663,1.6663,0,0,0,222.7681,107.2612Z" style="fill:#292929"/><path d="M235.0815,100.5112h-2.373v8.1563h-2.0742v-8.1563h-1.6v-.9668l1.6-.6328v-.6328a3.5338,3.5338,0,0,1,.8086-2.5527,3.3019,3.3019,0,0,1,2.47-.8311,6.5889,6.5889,0,0,1,2.1445.36l-.5449,1.5644a4.7636,4.7636,0,0,0-1.459-.2461,1.1853,1.1853,0,0,0-1.0239.4356,2.188,2.188,0,0,0-.3208,1.3047v.6328h2.373Zm6.53,0h-2.373v8.1563h-2.0742v-8.1563h-1.6v-.9668l1.6-.6328v-.6328a3.5342,3.5342,0,0,1,.8085-2.5527,3.3022,3.3022,0,0,1,2.47-.8311,6.5894,6.5894,0,0,1,2.1445.36l-.5449,1.5644a4.7636,4.7636,0,0,0-1.459-.2461,1.1851,1.1851,0,0,0-1.0239.4356,2.188,2.188,0,0,0-.3208,1.3047v.6328h2.373Z" style="fill:#292929"/><path d="M113.1377,384.3564v-12.85h2.1006v11.0479h5.44v1.8017Z" style="fill:#292929"/><path d="M131.2959,379.4785a5.3053,5.3053,0,0,1-1.2217,3.7178,4.3771,4.3771,0,0,1-3.4013,1.3359,4.6611,4.6611,0,0,1-2.4083-.6152,4.062,4.062,0,0,1-1.6083-1.7666,6.0169,6.0169,0,0,1-.5625-2.6719,5.27,5.27,0,0,1,1.2128-3.6914,4.3977,4.3977,0,0,1,3.419-1.3271,4.2853,4.2853,0,0,1,3.34,1.3574A5.2483,5.2483,0,0,1,131.2959,379.4785Zm-7.0752,0q0,3.3663,2.4873,3.3662,2.4609,0,2.4609-3.3662,0-3.3311-2.4785-3.331a2.1132,2.1132,0,0,0-1.8852.8613A4.3828,4.3828,0,0,0,124.2207,379.4785Z" style="fill:#292929"/><path d="M137.5889,384.5322a4.2559,4.2559,0,0,1-3.3531-1.2871,6.5273,6.5273,0,0,1,.0528-7.4668,4.45,4.45,0,0,1,3.4673-1.3183,6.4973,6.4973,0,0,1,2.7685.5713l-.624,1.6611a6.2547,6.2547,0,0,0-2.1621-.51q-2.5225,0-2.5225,3.3487a4.0069,4.0069,0,0,0,.6284,2.456,2.1734,2.1734,0,0,0,1.8413.8223,5.282,5.282,0,0,0,2.61-.6856v1.8018a4.0773,4.0773,0,0,1-1.1821.4658A7.0911,7.0911,0,0,1,137.5889,384.5322Z" style="fill:#292929"/><path d="M148.6631,384.3564l-.4131-1.3535h-.07a3.9843,3.9843,0,0,1-1.4151,1.209,4.4916,4.4916,0,0,1-1.8281.32,3.0939,3.0939,0,0,1-2.2368-.7734,2.8942,2.8942,0,0,1-.8042-2.1885,2.57,2.57,0,0,1,1.1162-2.2676,6.4362,6.4362,0,0,1,3.4014-.8349l1.6787-.0528v-.5185a1.9682,1.9682,0,0,0-.4351-1.3936,1.7779,1.7779,0,0,0-1.3491-.4609,4.6643,4.6643,0,0,0-1.4326.22,10.8211,10.8211,0,0,0-1.3184.5186l-.6679-1.4766a7.2292,7.2292,0,0,1,1.7314-.6289,8.0231,8.0231,0,0,1,1.7754-.2148,4.2046,4.2046,0,0,1,2.7993.8086,3.1655,3.1655,0,0,1,.9448,2.54v6.5478Zm-3.0762-1.4062a2.5545,2.5545,0,0,0,1.8062-.6289,2.2756,2.2756,0,0,0,.6811-1.7617v-.8438l-1.248.0528a4.259,4.259,0,0,0-2.1226.4882,1.48,1.48,0,0,0-.6636,1.3311,1.3015,1.3015,0,0,0,.3868,1.0068A1.6657,1.6657,0,0,0,145.5869,382.95Z" style="fill:#292929"/><path d="M155.0879,384.3564h-2.0654V370.6807h2.0654Z" style="fill:#292929"/><path d="M165.0371,379.2236v5.1328h-2.1006v-12.85h3.63a5.964,5.964,0,0,1,3.6826.9317,3.345,3.345,0,0,1,1.1953,2.8125,3.5155,3.5155,0,0,1-2.4961,3.4189l3.63,5.6865h-2.3906l-3.0762-5.1328Zm0-1.74h1.459a3.3311,3.3311,0,0,0,2.1269-.5449,1.977,1.977,0,0,0,.6592-1.6172,1.7406,1.7406,0,0,0-.7119-1.5645,3.9032,3.9032,0,0,0-2.1445-.4746h-1.3887Z" style="fill:#292929"/><path d="M178.4668,384.5322A4.7021,4.7021,0,0,1,174.92,383.21a5.0229,5.0229,0,0,1-1.2788-3.6436,5.5091,5.5091,0,0,1,1.1865-3.7441,4.0984,4.0984,0,0,1,3.2608-1.3623,4.0057,4.0057,0,0,1,3.041,1.1689,4.467,4.467,0,0,1,1.1162,3.2168v1.1162h-6.4775a3.1939,3.1939,0,0,0,.7646,2.1758,2.6632,2.6632,0,0,0,2.03.76,7.4956,7.4956,0,0,0,1.604-.1621,8.41,8.41,0,0,0,1.5952-.5411v1.6787a6.3387,6.3387,0,0,1-1.5293.51A9.3783,9.3783,0,0,1,178.4668,384.5322Zm-.3779-8.5078a2.0752,2.0752,0,0,0-1.5777.624,2.9745,2.9745,0,0,0-.7075,1.8194h4.4121a2.6935,2.6935,0,0,0-.58-1.8242A1.9866,1.9866,0,0,0,178.0889,376.0244Z" style="fill:#292929"/><path d="M191.123,381.5879a2.5445,2.5445,0,0,1-1.0371,2.1846,4.9664,4.9664,0,0,1-2.9707.76,7.0184,7.0184,0,0,1-3.12-.5888v-1.7842a7.661,7.661,0,0,0,3.19.791q1.9073,0,1.9073-1.1514a.9118.9118,0,0,0-.211-.6152,2.4949,2.4949,0,0,0-.6943-.51,11.94,11.94,0,0,0-1.3447-.5976,6.22,6.22,0,0,1-2.272-1.3008,2.4068,2.4068,0,0,1-.5933-1.6875,2.2186,2.2186,0,0,1,1.0064-1.9385,4.7831,4.7831,0,0,1,2.7378-.6894,7.7535,7.7535,0,0,1,3.2431.6943l-.6679,1.5557a7.2137,7.2137,0,0,0-2.6455-.65q-1.6349,0-1.6348.9316a.9371.9371,0,0,0,.4263.7734,9.3729,9.3729,0,0,0,1.8589.87,8.4969,8.4969,0,0,1,1.749.8525,2.5492,2.5492,0,0,1,.8086.8926A2.5793,2.5793,0,0,1,191.123,381.5879Z" style="fill:#292929"/><path d="M193.2324,372.0605a1.1437,1.1437,0,0,1,.3032-.8525,1.1819,1.1819,0,0,1,.8658-.2988,1.1564,1.1564,0,0,1,.8481.2988,1.1433,1.1433,0,0,1,.3032.8525,1.1248,1.1248,0,0,1-.3032.8311,1.15,1.15,0,0,1-.8481.3027,1.1752,1.1752,0,0,1-.8658-.3027A1.1252,1.1252,0,0,1,193.2324,372.0605Zm2.1885,12.2959h-2.0654v-9.7207h2.0654Z" style="fill:#292929"/><path d="M201.6523,384.5322a3.3858,3.3858,0,0,1-2.8388-1.3183,7.223,7.223,0,0,1,.0132-7.4219,3.4156,3.4156,0,0,1,2.8608-1.332,3.3511,3.3511,0,0,1,2.918,1.415h.1054a12.3821,12.3821,0,0,1-.1494-1.6523v-3.542h2.0742v13.6757h-1.6171l-.36-1.2744h-.0967A3.3019,3.3019,0,0,1,201.6523,384.5322Zm.5538-1.67a2.2451,2.2451,0,0,0,1.8544-.7168,3.7667,3.7667,0,0,0,.5977-2.3242v-.29a4.3564,4.3564,0,0,0-.5977-2.61,2.2169,2.2169,0,0,0-1.872-.7734,1.9009,1.9009,0,0,0-1.6787.8828,4.53,4.53,0,0,0-.5889,2.5185,4.4148,4.4148,0,0,0,.5713,2.4658A1.928,1.928,0,0,0,202.2061,382.8623Z" style="fill:#292929"/><path d="M213.834,384.5322a4.7021,4.7021,0,0,1-3.5464-1.3222,5.0229,5.0229,0,0,1-1.2788-3.6436,5.5091,5.5091,0,0,1,1.1865-3.7441,4.0983,4.0983,0,0,1,3.2608-1.3623,4.0057,4.0057,0,0,1,3.041,1.1689,4.467,4.467,0,0,1,1.1162,3.2168v1.1162h-6.4776a3.1939,3.1939,0,0,0,.7647,2.1758,2.6632,2.6632,0,0,0,2.03.76,7.4956,7.4956,0,0,0,1.604-.1621,8.41,8.41,0,0,0,1.5952-.5411v1.6787a6.3387,6.3387,0,0,1-1.5293.51A9.3783,9.3783,0,0,1,213.834,384.5322Zm-.3779-8.5078a2.0752,2.0752,0,0,0-1.5777.624,2.9745,2.9745,0,0,0-.7075,1.8194h4.4121a2.6935,2.6935,0,0,0-.58-1.8242A1.9866,1.9866,0,0,0,213.4561,376.0244Z" style="fill:#292929"/><path d="M228.5117,384.3564h-2.0742V378.38a2.6159,2.6159,0,0,0-.4526-1.6787,1.75,1.75,0,0,0-1.437-.5537,2.2851,2.2851,0,0,0-1.9161.7734,4.27,4.27,0,0,0-.6064,2.5928v4.8427H219.96v-9.7207h1.6171l.29,1.2745h.1055a2.8746,2.8746,0,0,1,1.248-1.0723,4.1818,4.1818,0,0,1,1.793-.3779q3.498,0,3.498,3.56Z" style="fill:#292929"/><path d="M235.0068,382.8623a5.0239,5.0239,0,0,0,1.5118-.2373v1.5557a4.1758,4.1758,0,0,1-.8833.25,6.0933,6.0933,0,0,1-1.1207.1015q-2.9355,0-2.9355-3.0937V376.2H230.252v-.9141l1.4238-.7558.7031-2.0567h1.2744v2.1621h2.7686V376.2h-2.7686v5.2031a1.4619,1.4619,0,0,0,.3736,1.1035A1.3651,1.3651,0,0,0,235.0068,382.8623Z" style="fill:#292929"/><path d="M244.9912,381.5879a2.5445,2.5445,0,0,1-1.0371,2.1846,4.9664,4.9664,0,0,1-2.9707.76,7.0181,7.0181,0,0,1-3.12-.5888v-1.7842a7.6607,7.6607,0,0,0,3.19.791q1.9073,0,1.9072-1.1514a.9122.9122,0,0,0-.2109-.6152,2.4965,2.4965,0,0,0-.6943-.51,11.9346,11.9346,0,0,0-1.3448-.5976,6.22,6.22,0,0,1-2.2719-1.3008,2.4068,2.4068,0,0,1-.5933-1.6875,2.2186,2.2186,0,0,1,1.0064-1.9385,4.7826,4.7826,0,0,1,2.7377-.6894,7.754,7.754,0,0,1,3.2432.6943l-.668,1.5557a7.2128,7.2128,0,0,0-2.6455-.65q-1.6347,0-1.6347.9316a.9373.9373,0,0,0,.4262.7734,9.3729,9.3729,0,0,0,1.8589.87,8.4916,8.4916,0,0,1,1.749.8525,2.5482,2.5482,0,0,1,.8086.8926A2.5793,2.5793,0,0,1,244.9912,381.5879Z" style="fill:#292929"/><path d="M213.41,337.2852h4.7285v6.4511a13.6847,13.6847,0,0,1-2.228.5362,15.7836,15.7836,0,0,1-2.3072.1582,5.7983,5.7983,0,0,1-4.5-1.7266,6.9574,6.9574,0,0,1-1.582-4.874,6.5006,6.5006,0,0,1,1.7842-4.8565,6.7105,6.7105,0,0,1,4.9131-1.7529,9.5683,9.5683,0,0,1,3.8144.7734l-.7383,1.7491a7.422,7.422,0,0,0-3.1289-.7207,4.2127,4.2127,0,0,0-3.2519,1.292,5,5,0,0,0-1.1953,3.5332,5.2713,5.2713,0,0,0,1.0766,3.581,3.9,3.9,0,0,0,3.0982,1.2266,10.1844,10.1844,0,0,0,2.18-.2549v-3.3135H213.41Z" style="fill:#292929"/><path d="M227.0854,344.2549l-.413-1.3535h-.07a3.9851,3.9851,0,0,1-1.4151,1.209,4.4936,4.4936,0,0,1-1.8281.32,3.0935,3.0935,0,0,1-2.2368-.7735,2.8938,2.8938,0,0,1-.8042-2.1884,2.5693,2.5693,0,0,1,1.1162-2.2676,6.4357,6.4357,0,0,1,3.4013-.835l1.6788-.0527v-.5186a1.9684,1.9684,0,0,0-.4351-1.3935,1.7776,1.7776,0,0,0-1.3491-.461,4.6639,4.6639,0,0,0-1.4326.22,10.7981,10.7981,0,0,0-1.3184.5185l-.668-1.4766a7.2386,7.2386,0,0,1,1.7315-.6289,8.0277,8.0277,0,0,1,1.7754-.2148,4.2046,4.2046,0,0,1,2.7993.8086,3.1657,3.1657,0,0,1,.9448,2.54v6.5479Zm-3.0761-1.4063a2.5543,2.5543,0,0,0,1.8061-.6289,2.2754,2.2754,0,0,0,.6812-1.7617v-.8437l-1.2481.0527a4.2587,4.2587,0,0,0-2.1225.4883,1.48,1.48,0,0,0-.6636,1.331,1.302,1.302,0,0,0,.3867,1.0069A1.6664,1.6664,0,0,0,224.0093,342.8486Z" style="fill:#292929"/><path d="M236.3755,334.3584a4.9711,4.9711,0,0,1,1.0283.0879l-.2021,1.9248a3.9049,3.9049,0,0,0-.9141-.1055,2.6453,2.6453,0,0,0-2.0083.8086,2.9228,2.9228,0,0,0-.769,2.1006v5.08h-2.0655v-9.7207h1.6172l.2725,1.7138h.1054a3.8515,3.8515,0,0,1,1.2613-1.38A2.9971,2.9971,0,0,1,236.3755,334.3584Z" style="fill:#292929"/><path d="M242.4839,344.4307a3.3859,3.3859,0,0,1-2.8389-1.3184,7.2236,7.2236,0,0,1,.0132-7.4219,3.416,3.416,0,0,1,2.8608-1.332,3.3513,3.3513,0,0,1,2.918,1.415h.1055a12.3807,12.3807,0,0,1-.1494-1.6523v-3.542h2.0742v13.6758H245.85l-.36-1.2744h-.0966A3.3021,3.3021,0,0,1,242.4839,344.4307Zm.5537-1.67a2.245,2.245,0,0,0,1.8545-.7168,3.7672,3.7672,0,0,0,.5976-2.3242v-.29a4.3576,4.3576,0,0,0-.5976-2.61,2.2171,2.2171,0,0,0-1.8721-.7734,1.9011,1.9011,0,0,0-1.6787.8828,4.5307,4.5307,0,0,0-.5889,2.5186,4.4159,4.4159,0,0,0,.5713,2.4658A1.9284,1.9284,0,0,0,243.0376,342.7607Z" style="fill:#292929"/><path d="M254.666,344.4307a4.7035,4.7035,0,0,1-3.5469-1.3223,5.0228,5.0228,0,0,1-1.2788-3.6436,5.5069,5.5069,0,0,1,1.187-3.7441,4.0986,4.0986,0,0,1,3.2608-1.3623,4.0055,4.0055,0,0,1,3.041,1.1689,4.467,4.467,0,0,1,1.1162,3.2168V339.86h-6.4775a3.1943,3.1943,0,0,0,.7646,2.1757,2.6628,2.6628,0,0,0,2.03.76,7.4909,7.4909,0,0,0,1.6035-.1621,8.4182,8.4182,0,0,0,1.5957-.541v1.6787a6.3474,6.3474,0,0,1-1.5293.51A9.3783,9.3783,0,0,1,254.666,344.4307Zm-.3779-8.5078a2.0761,2.0761,0,0,0-1.5781.624,2.9738,2.9738,0,0,0-.7071,1.8193h4.4121a2.6938,2.6938,0,0,0-.58-1.8242A1.9871,1.9871,0,0,0,254.2881,335.9229Z" style="fill:#292929"/><path d="M269.3438,344.2549H267.27v-5.9766a2.6154,2.6154,0,0,0-.4531-1.6787,1.7488,1.7488,0,0,0-1.4365-.5537,2.2849,2.2849,0,0,0-1.916.7734,4.27,4.27,0,0,0-.6065,2.5928v4.8428H260.792v-9.7207h1.6172l.29,1.2744h.1055a2.8764,2.8764,0,0,1,1.248-1.0723,4.1836,4.1836,0,0,1,1.793-.3779q3.498,0,3.4981,3.56Z" style="fill:#292929"/><path d="M284.4346,331.4053h2.18l-4.5,12.85h-2.2149l-4.4824-12.85h2.1621l2.6807,7.9892q.2109.5713.4482,1.4717.2373.9024.3076,1.3408.1143-.6679.3516-1.5468t.3867-1.3008Z" style="fill:#292929"/><path d="M287.9678,331.959a1.1437,1.1437,0,0,1,.3027-.8526,1.1829,1.1829,0,0,1,.8662-.2988,1.048,1.048,0,0,1,1.1514,1.1514,1.1254,1.1254,0,0,1-.3037.831,1.1491,1.1491,0,0,1-.8477.3028,1.1763,1.1763,0,0,1-.8662-.3028A1.1249,1.1249,0,0,1,287.9678,331.959Zm2.1885,12.2959h-2.0655v-9.7207h2.0655Z" style="fill:#292929"/><path d="M299.64,341.4863a2.5444,2.5444,0,0,1-1.0371,2.1846,4.9664,4.9664,0,0,1-2.9707.76,7.0169,7.0169,0,0,1-3.12-.5889v-1.7842a7.66,7.66,0,0,0,3.19.791q1.9072,0,1.9073-1.1513a.912.912,0,0,0-.211-.6153,2.4949,2.4949,0,0,0-.6943-.51,11.9558,11.9558,0,0,0-1.3447-.5977,6.2231,6.2231,0,0,1-2.2725-1.3008,2.4065,2.4065,0,0,1-.5928-1.6875,2.2178,2.2178,0,0,1,1.0059-1.9384,4.7849,4.7849,0,0,1,2.7383-.69,7.7535,7.7535,0,0,1,3.2431.6943l-.6679,1.5557a7.2137,7.2137,0,0,0-2.6455-.65q-1.6349,0-1.6348.9316a.9369.9369,0,0,0,.4258.7735,9.3834,9.3834,0,0,0,1.8594.87,8.502,8.502,0,0,1,1.749.8525,2.55,2.55,0,0,1,.8086.8926A2.58,2.58,0,0,1,299.64,341.4863Z" style="fill:#292929"/><path d="M301.749,331.959a1.1434,1.1434,0,0,1,.3028-.8526,1.1827,1.1827,0,0,1,.8662-.2988,1.048,1.048,0,0,1,1.1513,1.1514,1.125,1.125,0,0,1-.3037.831,1.1487,1.1487,0,0,1-.8476.3028,1.1761,1.1761,0,0,1-.8662-.3028A1.1245,1.1245,0,0,1,301.749,331.959Zm2.1885,12.2959h-2.0654v-9.7207h2.0654Z" style="fill:#292929"/><path d="M310.5117,342.7607a5.0227,5.0227,0,0,0,1.5117-.2373v1.5557a4.1778,4.1778,0,0,1-.8838.25,6.0772,6.0772,0,0,1-1.12.1016q-2.9355,0-2.9355-3.0938v-5.2383h-1.3272v-.914l1.4239-.7559.7031-2.0566h1.2744v2.1621h2.7686v1.5644h-2.7686v5.2032a1.4621,1.4621,0,0,0,.3731,1.1035A1.3667,1.3667,0,0,0,310.5117,342.7607Z" style="fill:#292929"/><path d="M322.5879,339.377a5.3052,5.3052,0,0,1-1.2217,3.7177,4.3769,4.3769,0,0,1-3.4014,1.336,4.66,4.66,0,0,1-2.4082-.6153,4.0616,4.0616,0,0,1-1.6084-1.7666,6.0164,6.0164,0,0,1-.5625-2.6718,5.27,5.27,0,0,1,1.2129-3.6915,4.398,4.398,0,0,1,3.419-1.3271,4.2853,4.2853,0,0,1,3.34,1.3574A5.2485,5.2485,0,0,1,322.5879,339.377Zm-7.0752,0q0,3.3662,2.4873,3.3662,2.4609,0,2.4609-3.3662,0-3.3311-2.4785-3.3311a2.1141,2.1141,0,0,0-1.8857.8613A4.3832,4.3832,0,0,0,315.5127,339.377Z" style="fill:#292929"/><path d="M329.8916,334.3584a4.9711,4.9711,0,0,1,1.0283.0879l-.2021,1.9248a3.9049,3.9049,0,0,0-.9141-.1055,2.6464,2.6464,0,0,0-2.0088.8086,2.9225,2.9225,0,0,0-.7685,2.1006v5.08h-2.0655v-9.7207h1.6172l.2725,1.7138h.1055a3.8491,3.8491,0,0,1,1.2607-1.38A2.999,2.999,0,0,1,329.8916,334.3584Z" style="fill:#292929"/><path d="M339.252,341.4863a2.5442,2.5442,0,0,1-1.0372,2.1846,4.9664,4.9664,0,0,1-2.9707.76,7.0169,7.0169,0,0,1-3.12-.5889v-1.7842a7.66,7.66,0,0,0,3.19.791q1.9071,0,1.9072-1.1513a.912.912,0,0,0-.211-.6153,2.4949,2.4949,0,0,0-.6943-.51,11.9558,11.9558,0,0,0-1.3447-.5977,6.2231,6.2231,0,0,1-2.2725-1.3008,2.4065,2.4065,0,0,1-.5928-1.6875,2.2178,2.2178,0,0,1,1.0059-1.9384,4.7849,4.7849,0,0,1,2.7383-.69,7.7543,7.7543,0,0,1,3.2432.6943l-.668,1.5557a7.2132,7.2132,0,0,0-2.6455-.65q-1.6349,0-1.6348.9316a.9369.9369,0,0,0,.4258.7735,9.3834,9.3834,0,0,0,1.8594.87,8.502,8.502,0,0,1,1.749.8525,2.55,2.55,0,0,1,.8086.8926A2.58,2.58,0,0,1,339.252,341.4863Z" style="fill:#292929"/><path d="M293.8027,243.6431h4.7286v6.4511a13.68,13.68,0,0,1-2.2276.5362,15.7882,15.7882,0,0,1-2.3076.1582,5.7983,5.7983,0,0,1-4.5-1.7266,6.9574,6.9574,0,0,1-1.582-4.874,6.501,6.501,0,0,1,1.7841-4.8565,6.7108,6.7108,0,0,1,4.9131-1.7529,9.5671,9.5671,0,0,1,3.8145.7735l-.7383,1.749a7.4224,7.4224,0,0,0-3.1289-.7207,4.2131,4.2131,0,0,0-3.252,1.292,5.0008,5.0008,0,0,0-1.1953,3.5332,5.2714,5.2714,0,0,0,1.0772,3.581,3.8991,3.8991,0,0,0,3.0976,1.2266,10.1836,10.1836,0,0,0,2.18-.2549v-3.3135h-2.6631Z" style="fill:#292929"/><path d="M307.4785,250.6128l-.4131-1.3535h-.07a3.9841,3.9841,0,0,1-1.415,1.209,4.4919,4.4919,0,0,1-1.8281.32,3.0926,3.0926,0,0,1-2.2364-.7735,2.8944,2.8944,0,0,1-.8047-2.1884,2.57,2.57,0,0,1,1.1162-2.2676,6.4364,6.4364,0,0,1,3.4014-.835l1.6787-.0527v-.5186a1.9683,1.9683,0,0,0-.4345-1.3935,1.7792,1.7792,0,0,0-1.35-.461,4.6649,4.6649,0,0,0-1.4326.22,10.8128,10.8128,0,0,0-1.3183.5185l-.668-1.4765a7.2292,7.2292,0,0,1,1.7314-.6289,8.0235,8.0235,0,0,1,1.7754-.2149,4.2058,4.2058,0,0,1,2.8.8086,3.1655,3.1655,0,0,1,.9444,2.54v6.5479Zm-3.0762-1.4063a2.5553,2.5553,0,0,0,1.8067-.6289,2.275,2.275,0,0,0,.6806-1.7617v-.8437l-1.248.0527a4.2577,4.2577,0,0,0-2.1221.4883,1.48,1.48,0,0,0-.664,1.331,1.302,1.302,0,0,0,.3867,1.0069A1.6662,1.6662,0,0,0,304.4023,249.2065Z" style="fill:#292929"/><path d="M316.7686,240.7163a4.9718,4.9718,0,0,1,1.0283.0879l-.2022,1.9248a3.9034,3.9034,0,0,0-.914-.1055,2.6441,2.6441,0,0,0-2.0078.8086,2.9232,2.9232,0,0,0-.77,2.1006v5.08h-2.0654v-9.7207h1.6172l.2724,1.7139h.1055a3.8529,3.8529,0,0,1,1.2617-1.38A2.9961,2.9961,0,0,1,316.7686,240.7163Z" style="fill:#292929"/><path d="M322.877,250.7886a3.3859,3.3859,0,0,1-2.8389-1.3184,7.2221,7.2221,0,0,1,.0137-7.4219,3.4149,3.4149,0,0,1,2.86-1.332,3.3513,3.3513,0,0,1,2.918,1.415h.1054a12.3807,12.3807,0,0,1-.1494-1.6523v-3.542H327.86v13.6758h-1.6172l-.36-1.2744h-.0967A3.3019,3.3019,0,0,1,322.877,250.7886Zm.5537-1.67a2.2455,2.2455,0,0,0,1.8545-.7168,3.7677,3.7677,0,0,0,.5976-2.3243v-.29a4.3576,4.3576,0,0,0-.5976-2.61,2.2172,2.2172,0,0,0-1.8721-.7734,1.901,1.901,0,0,0-1.6787.8828,4.5307,4.5307,0,0,0-.5889,2.5186,4.4151,4.4151,0,0,0,.5713,2.4658A1.9284,1.9284,0,0,0,323.4307,249.1187Z" style="fill:#292929"/><path d="M335.0586,250.7886a4.701,4.701,0,0,1-3.5459-1.3223,5.0229,5.0229,0,0,1-1.2793-3.6435,5.5094,5.5094,0,0,1,1.1865-3.7442,4.0984,4.0984,0,0,1,3.2608-1.3623,4.0057,4.0057,0,0,1,3.041,1.169,4.4668,4.4668,0,0,1,1.1162,3.2168v1.1162H332.36a3.1933,3.1933,0,0,0,.7646,2.1757,2.6628,2.6628,0,0,0,2.03.76,7.501,7.501,0,0,0,1.6045-.1621,8.4128,8.4128,0,0,0,1.5947-.541v1.6787a6.3431,6.3431,0,0,1-1.5293.51A9.3783,9.3783,0,0,1,335.0586,250.7886Zm-.3779-8.5078a2.0741,2.0741,0,0,0-1.5772.624,2.9741,2.9741,0,0,0-.708,1.8193h4.4121a2.6939,2.6939,0,0,0-.58-1.8242A1.9869,1.9869,0,0,0,334.6807,242.2808Z" style="fill:#292929"/><path d="M349.7363,250.6128h-2.0742v-5.9766a2.6162,2.6162,0,0,0-.4521-1.6787,1.7509,1.7509,0,0,0-1.4375-.5537,2.2851,2.2851,0,0,0-1.9161.7734,4.27,4.27,0,0,0-.6064,2.5928v4.8428h-2.0654v-9.7207h1.6172l.29,1.2744h.1055a2.8758,2.8758,0,0,1,1.248-1.0723,4.1833,4.1833,0,0,1,1.793-.3779q3.498,0,3.498,3.56Z" style="fill:#292929"/><path d="M364.8271,237.7632h2.18l-4.5,12.85H360.292l-4.4824-12.85h2.1621l2.6806,7.9892q.211.5713.4483,1.4717.2373.9024.3076,1.3408.1143-.6679.3516-1.5468t.3867-1.3008Z" style="fill:#292929"/><path d="M377.1055,245.7349a5.3055,5.3055,0,0,1-1.2217,3.7177,4.3772,4.3772,0,0,1-3.4014,1.336,4.66,4.66,0,0,1-2.4082-.6153,4.0616,4.0616,0,0,1-1.6084-1.7666,6.0164,6.0164,0,0,1-.5625-2.6718,5.27,5.27,0,0,1,1.2129-3.6914,4.3977,4.3977,0,0,1,3.419-1.3272,4.2853,4.2853,0,0,1,3.34,1.3574A5.2485,5.2485,0,0,1,377.1055,245.7349Zm-7.0752,0q0,3.3662,2.4873,3.3662,2.4609,0,2.4609-3.3662,0-3.3311-2.4785-3.3311a2.1126,2.1126,0,0,0-1.8848.8613A4.3839,4.3839,0,0,0,370.03,245.7349Z" style="fill:#292929"/><path d="M381.5439,250.6128h-2.0654V236.937h2.0654Z" style="fill:#292929"/><path d="M391.3525,250.6128l-.29-1.2744h-.1055a2.9294,2.9294,0,0,1-1.2256,1.0635,4.1014,4.1014,0,0,1-1.8154.3867,3.563,3.563,0,0,1-2.6367-.8789,3.6436,3.6436,0,0,1-.87-2.6631v-6.3545h2.083v5.9941a2.5971,2.5971,0,0,0,.457,1.6739,1.7422,1.7422,0,0,0,1.4326.5586,2.2844,2.2844,0,0,0,1.9121-.7774,4.2894,4.2894,0,0,0,.61-2.6064v-4.8428h2.0742v9.7207Z" style="fill:#292929"/><path d="M404.4746,250.6128H402.4v-5.9766a2.6156,2.6156,0,0,0-.4522-1.6787,1.7507,1.7507,0,0,0-1.4375-.5537,2.285,2.285,0,0,0-1.916.7734,4.27,4.27,0,0,0-.6064,2.5928v4.8428h-2.0654v-9.7207H397.54l.29,1.2744h.1054a2.8761,2.8761,0,0,1,1.2481-1.0723,4.1833,4.1833,0,0,1,1.793-.3779q3.498,0,3.498,3.56Z" style="fill:#292929"/><path d="M410.97,249.1187a5.02,5.02,0,0,0,1.5117-.2374v1.5557a4.1669,4.1669,0,0,1-.8828.25,6.0881,6.0881,0,0,1-1.1211.1016q-2.9355,0-2.9355-3.0938v-5.2383h-1.3272v-.914l1.4239-.7559.7031-2.0566h1.2744v2.1621h2.7686v1.5644h-2.7686V247.66a1.4627,1.4627,0,0,0,.374,1.1035A1.3647,1.3647,0,0,0,410.97,249.1187Z" style="fill:#292929"/><path d="M418.6689,250.7886a4.7011,4.7011,0,0,1-3.5459-1.3223,5.0229,5.0229,0,0,1-1.2792-3.6435,5.5094,5.5094,0,0,1,1.1865-3.7442,4.0982,4.0982,0,0,1,3.2607-1.3623,4.0056,4.0056,0,0,1,3.041,1.169,4.4664,4.4664,0,0,1,1.1162,3.2168v1.1162h-6.4775a3.1938,3.1938,0,0,0,.7647,2.1757,2.6626,2.6626,0,0,0,2.03.76,7.5,7.5,0,0,0,1.6045-.1621,8.41,8.41,0,0,0,1.5947-.541v1.6787a6.3416,6.3416,0,0,1-1.5293.51A9.3775,9.3775,0,0,1,418.6689,250.7886Zm-.3779-8.5078a2.074,2.074,0,0,0-1.5771.624,2.9735,2.9735,0,0,0-.708,1.8193h4.4121a2.6939,2.6939,0,0,0-.58-1.8242A1.987,1.987,0,0,0,418.291,242.2808Z" style="fill:#292929"/><path d="M429.04,250.7886a4.7011,4.7011,0,0,1-3.5459-1.3223,5.0229,5.0229,0,0,1-1.2793-3.6435,5.5094,5.5094,0,0,1,1.1866-3.7442,4.0982,4.0982,0,0,1,3.2607-1.3623,4.0056,4.0056,0,0,1,3.041,1.169,4.4664,4.4664,0,0,1,1.1162,3.2168v1.1162h-6.4775a3.1943,3.1943,0,0,0,.7646,2.1757,2.663,2.663,0,0,0,2.03.76,7.5,7.5,0,0,0,1.6045-.1621,8.41,8.41,0,0,0,1.5947-.541v1.6787a6.3416,6.3416,0,0,1-1.5293.51A9.3783,9.3783,0,0,1,429.04,250.7886Zm-.3779-8.5078a2.074,2.074,0,0,0-1.5771.624,2.9735,2.9735,0,0,0-.708,1.8193h4.4121a2.6944,2.6944,0,0,0-.58-1.8242A1.987,1.987,0,0,0,428.6621,242.2808Z" style="fill:#292929"/><path d="M440.0967,240.7163a4.9711,4.9711,0,0,1,1.0283.0879l-.2021,1.9248a3.9049,3.9049,0,0,0-.9141-.1055,2.6442,2.6442,0,0,0-2.0078.8086,2.9232,2.9232,0,0,0-.77,2.1006v5.08H435.166v-9.7207h1.6172l.2725,1.7139h.1054a3.8522,3.8522,0,0,1,1.2618-1.38A2.9956,2.9956,0,0,1,440.0967,240.7163Z" style="fill:#292929"/><path d="M449.457,247.8442a2.5443,2.5443,0,0,1-1.0371,2.1846,4.9664,4.9664,0,0,1-2.9707.76,7.0169,7.0169,0,0,1-3.12-.5889v-1.7842a7.66,7.66,0,0,0,3.19.791q1.9072,0,1.9082-1.1513a.9125.9125,0,0,0-.2109-.6153,2.5043,2.5043,0,0,0-.6953-.51,11.9558,11.9558,0,0,0-1.3447-.5977,6.2169,6.2169,0,0,1-2.2715-1.3008,2.4071,2.4071,0,0,1-.5938-1.6875,2.2187,2.2187,0,0,1,1.0069-1.9384,4.7814,4.7814,0,0,1,2.7373-.69,7.7521,7.7521,0,0,1,3.2431.6943l-.6679,1.5557a7.2137,7.2137,0,0,0-2.6455-.65q-1.6349,0-1.6348.9317a.938.938,0,0,0,.4267.7734,9.3685,9.3685,0,0,0,1.8584.87,8.4685,8.4685,0,0,1,1.7491.8526,2.55,2.55,0,0,1,.8086.8925A2.5808,2.5808,0,0,1,449.457,247.8442Z" style="fill:#292929"/><path d="M328.3594,175.1035a3.4626,3.4626,0,0,0-2.8477,1.2832,6.7371,6.7371,0,0,0-.04,7.1192,3.5244,3.5244,0,0,0,2.8877,1.2129,7.5864,7.5864,0,0,0,1.582-.1622q.7647-.1626,1.5908-.4179V185.94a9.6438,9.6438,0,0,1-3.4277.5713,5.4781,5.4781,0,0,1-4.333-1.709,7.1528,7.1528,0,0,1-1.5117-4.8916,7.9031,7.9031,0,0,1,.7334-3.5068,5.2381,5.2381,0,0,1,2.123-2.3027,6.42,6.42,0,0,1,3.2608-.8,8.0914,8.0914,0,0,1,3.6386.8261l-.7558,1.7491a11.46,11.46,0,0,0-1.376-.5411A4.9817,4.9817,0,0,0,328.3594,175.1035Z" style="fill:#292929"/><path d="M342.7031,181.458a5.3053,5.3053,0,0,1-1.2217,3.7178,4.3771,4.3771,0,0,1-3.4013,1.3359,4.6607,4.6607,0,0,1-2.4082-.6152,4.0616,4.0616,0,0,1-1.6084-1.7666,6.0169,6.0169,0,0,1-.5625-2.6719,5.27,5.27,0,0,1,1.2129-3.6914,4.3974,4.3974,0,0,1,3.4189-1.3271,4.2855,4.2855,0,0,1,3.34,1.3574A5.2482,5.2482,0,0,1,342.7031,181.458Zm-7.0752,0q0,3.3662,2.4873,3.3662,2.461,0,2.461-3.3662,0-3.331-2.4785-3.331a2.1144,2.1144,0,0,0-1.8858.8613A4.3837,4.3837,0,0,0,335.6279,181.458Z" style="fill:#292929"/><path d="M353.6982,181.458a5.3058,5.3058,0,0,1-1.2216,3.7178,4.3775,4.3775,0,0,1-3.4014,1.3359,4.6609,4.6609,0,0,1-2.4082-.6152,4.0616,4.0616,0,0,1-1.6084-1.7666,6.0169,6.0169,0,0,1-.5625-2.6719,5.27,5.27,0,0,1,1.2129-3.6914,4.3974,4.3974,0,0,1,3.4189-1.3271,4.2853,4.2853,0,0,1,3.34,1.3574A5.2482,5.2482,0,0,1,353.6982,181.458Zm-7.0752,0q0,3.3662,2.4874,3.3662,2.4609,0,2.4609-3.3662,0-3.331-2.4785-3.331a2.1144,2.1144,0,0,0-1.8858.8613A4.3837,4.3837,0,0,0,346.623,181.458Z" style="fill:#292929"/><path d="M361.002,176.44a4.98,4.98,0,0,1,1.0283.0878l-.2022,1.9248a3.9034,3.9034,0,0,0-.914-.1054,2.6461,2.6461,0,0,0-2.0088.8086,2.9223,2.9223,0,0,0-.7686,2.1006v5.08h-2.0654v-9.7207h1.6172l.2724,1.7139h.1055a3.8512,3.8512,0,0,1,1.2607-1.38A3,3,0,0,1,361.002,176.44Z" style="fill:#292929"/><path d="M367.11,186.5117a3.3858,3.3858,0,0,1-2.8389-1.3183,7.2251,7.2251,0,0,1,.0127-7.4219,3.4167,3.4167,0,0,1,2.8613-1.332,3.351,3.351,0,0,1,2.918,1.415h.1054a12.3833,12.3833,0,0,1-.1494-1.6524V172.66h2.0743v13.6757h-1.6172l-.36-1.2744H370.02A3.3019,3.3019,0,0,1,367.11,186.5117Zm.5537-1.67a2.2455,2.2455,0,0,0,1.8545-.7168,3.7676,3.7676,0,0,0,.5976-2.3242v-.29a4.3571,4.3571,0,0,0-.5976-2.61,2.2172,2.2172,0,0,0-1.8721-.7734,1.901,1.901,0,0,0-1.6787.8828,4.53,4.53,0,0,0-.5889,2.5185,4.4151,4.4151,0,0,0,.5713,2.4658A1.9282,1.9282,0,0,0,367.6641,184.8418Z" style="fill:#292929"/><path d="M374.9238,174.04a1.1431,1.1431,0,0,1,.3028-.8525,1.1827,1.1827,0,0,1,.8662-.2988,1.0479,1.0479,0,0,1,1.1513,1.1513,1.1251,1.1251,0,0,1-.3037.8311,1.1487,1.1487,0,0,1-.8476.3027,1.1761,1.1761,0,0,1-.8662-.3027A1.1246,1.1246,0,0,1,374.9238,174.04Zm2.1885,12.2959h-2.0654v-9.7207h2.0654Z" style="fill:#292929"/><path d="M388.6172,186.3359H386.543v-5.9765a2.6152,2.6152,0,0,0-.4532-1.6787,1.7482,1.7482,0,0,0-1.4365-.5537,2.285,2.285,0,0,0-1.916.7734,4.27,4.27,0,0,0-.6064,2.5928v4.8427h-2.0655v-9.7207h1.6172l.29,1.2744h.1054a2.8759,2.8759,0,0,1,1.2481-1.0722,4.1814,4.1814,0,0,1,1.7929-.3779q3.4981,0,3.4981,3.5595Z" style="fill:#292929"/><path d="M397.5732,186.3359l-.413-1.3535h-.07a3.9841,3.9841,0,0,1-1.415,1.209,4.4919,4.4919,0,0,1-1.8281.32,3.0951,3.0951,0,0,1-2.2373-.7734,2.8936,2.8936,0,0,1-.8037-2.1885,2.57,2.57,0,0,1,1.1162-2.2676,6.4358,6.4358,0,0,1,3.4013-.8349l1.6788-.0528v-.5185a1.9687,1.9687,0,0,0-.4356-1.3936,1.7768,1.7768,0,0,0-1.3486-.4609,4.6639,4.6639,0,0,0-1.4326.22,10.7985,10.7985,0,0,0-1.3184.5186l-.668-1.4766a7.23,7.23,0,0,1,1.7315-.6289,8.0217,8.0217,0,0,1,1.7754-.2148,4.2037,4.2037,0,0,1,2.7988.8085,3.1661,3.1661,0,0,1,.9453,2.54v6.5478Zm-3.0761-1.4062a2.553,2.553,0,0,0,1.8056-.6289,2.2759,2.2759,0,0,0,.6817-1.7617v-.8438l-1.2481.0527a4.262,4.262,0,0,0-2.123.4883,1.48,1.48,0,0,0-.6631,1.3311,1.3018,1.3018,0,0,0,.3867,1.0068A1.6663,1.6663,0,0,0,394.4971,184.93Z" style="fill:#292929"/><path d="M405.5537,184.8418a5.0227,5.0227,0,0,0,1.5117-.2373V186.16a4.1778,4.1778,0,0,1-.8838.25,6.0868,6.0868,0,0,1-1.12.1015q-2.9355,0-2.9355-3.0937V178.18h-1.3272v-.9141l1.4239-.7558.7031-2.0567H404.2v2.1621h2.7686V178.18H404.2v5.2031a1.4623,1.4623,0,0,0,.373,1.1035A1.3667,1.3667,0,0,0,405.5537,184.8418Z" style="fill:#292929"/><path d="M417.63,181.458a5.3053,5.3053,0,0,1-1.2217,3.7178,4.3772,4.3772,0,0,1-3.4014,1.3359,4.6609,4.6609,0,0,1-2.4082-.6152A4.0622,4.0622,0,0,1,408.99,184.13a6.0169,6.0169,0,0,1-.5625-2.6719,5.27,5.27,0,0,1,1.2129-3.6914,4.3977,4.3977,0,0,1,3.419-1.3271,4.2853,4.2853,0,0,1,3.34,1.3574A5.2483,5.2483,0,0,1,417.63,181.458Zm-7.0752,0q0,3.3662,2.4873,3.3662,2.4609,0,2.4609-3.3662,0-3.331-2.4785-3.331a2.1141,2.1141,0,0,0-1.8857.8613A4.3828,4.3828,0,0,0,410.5547,181.458Z" style="fill:#292929"/><path d="M424.9336,176.44a4.979,4.979,0,0,1,1.0283.0878l-.2021,1.9248a3.9049,3.9049,0,0,0-.9141-.1054,2.6461,2.6461,0,0,0-2.0088.8086,2.9222,2.9222,0,0,0-.7685,2.1006v5.08h-2.0655v-9.7207H421.62l.2725,1.7139h.1054a3.8505,3.8505,0,0,1,1.2608-1.38A2.9994,2.9994,0,0,1,424.9336,176.44Z" style="fill:#292929"/><path d="M434.2939,183.5674a2.5445,2.5445,0,0,1-1.0371,2.1846,4.9664,4.9664,0,0,1-2.9707.76,7.0184,7.0184,0,0,1-3.12-.5888v-1.7842a7.661,7.661,0,0,0,3.19.791q1.9072,0,1.9073-1.1514a.9116.9116,0,0,0-.211-.6152,2.4949,2.4949,0,0,0-.6943-.51,11.94,11.94,0,0,0-1.3447-.5976,6.2231,6.2231,0,0,1-2.2725-1.3008,2.4065,2.4065,0,0,1-.5928-1.6875,2.218,2.218,0,0,1,1.0059-1.9385,4.7849,4.7849,0,0,1,2.7383-.6894,7.7535,7.7535,0,0,1,3.2431.6943l-.6679,1.5557a7.2137,7.2137,0,0,0-2.6455-.65q-1.6348,0-1.6348.9316a.9366.9366,0,0,0,.4258.7734,9.3819,9.3819,0,0,0,1.8594.87,8.4969,8.4969,0,0,1,1.749.8525,2.5492,2.5492,0,0,1,.8086.8926A2.5793,2.5793,0,0,1,434.2939,183.5674Z" style="fill:#292929"/><path d="M295.9453,108.7964h-7.2685v-12.85h7.2685v1.7754h-5.168v3.498H295.62v1.7578h-4.8428v4.0342h5.168Z" style="fill:#292929"/><path d="M300.665,103.8306l-3.2607-4.7549H299.76l2.2148,3.4014,2.2324-3.4014h2.3379l-3.2695,4.7549,3.4365,4.9658H304.374l-2.3994-3.6387-2.3906,3.6387h-2.3379Z" style="fill:#292929"/><path d="M312.6621,108.9722a4.7035,4.7035,0,0,1-3.5469-1.3223,5.0225,5.0225,0,0,1-1.2783-3.6436,5.5093,5.5093,0,0,1,1.1865-3.7441A4.0986,4.0986,0,0,1,312.2842,98.9a4.0059,4.0059,0,0,1,3.041,1.1689,4.467,4.467,0,0,1,1.1162,3.2168v1.1163h-6.4775a3.1938,3.1938,0,0,0,.7646,2.1757,2.6628,2.6628,0,0,0,2.03.76,7.4909,7.4909,0,0,0,1.6035-.1621,8.4206,8.4206,0,0,0,1.5957-.541v1.6787a6.3474,6.3474,0,0,1-1.5293.51A9.3783,9.3783,0,0,1,312.6621,108.9722Zm-.3779-8.5078a2.0761,2.0761,0,0,0-1.5781.624,2.9732,2.9732,0,0,0-.7071,1.8193h4.4121a2.6938,2.6938,0,0,0-.58-1.8242A1.9871,1.9871,0,0,0,312.2842,100.4644Z" style="fill:#292929"/><path d="M322.708,108.9722a4.2567,4.2567,0,0,1-3.3535-1.2871,6.5294,6.5294,0,0,1,.0527-7.4668A4.4515,4.4515,0,0,1,322.875,98.9a6.4981,6.4981,0,0,1,2.7686.5713l-.6241,1.6611a6.2555,6.2555,0,0,0-2.1621-.51q-2.5224,0-2.5224,3.3486a4.0061,4.0061,0,0,0,.6279,2.456,2.1739,2.1739,0,0,0,1.8418.8223,5.2829,5.2829,0,0,0,2.61-.6855v1.8017a4.0792,4.0792,0,0,1-1.1826.4658A7.0843,7.0843,0,0,1,322.708,108.9722Z" style="fill:#292929"/><path d="M334.5557,108.7964l-.29-1.2744H334.16a2.9327,2.9327,0,0,1-1.2266,1.0634,4.0964,4.0964,0,0,1-1.8145.3868,3.563,3.563,0,0,1-2.6367-.8789,3.6436,3.6436,0,0,1-.87-2.6631V99.0757h2.083V105.07a2.5977,2.5977,0,0,0,.457,1.6739,1.7424,1.7424,0,0,0,1.4327.5585,2.2824,2.2824,0,0,0,1.9111-.7773,4.29,4.29,0,0,0,.6113-2.6064V99.0757h2.0742v9.7207Z" style="fill:#292929"/><path d="M342.7471,107.3022a5.0227,5.0227,0,0,0,1.5117-.2373v1.5557a4.1778,4.1778,0,0,1-.8838.25,6.0788,6.0788,0,0,1-1.12.1016q-2.9355,0-2.9356-3.0938V100.64h-1.3271v-.914l1.4238-.7559.7031-2.0566h1.2745v2.1621h2.7685V100.64h-2.7685v5.2032a1.4625,1.4625,0,0,0,.373,1.1035A1.3669,1.3669,0,0,0,342.7471,107.3022Z" style="fill:#292929"/><path d="M346.0781,96.5005a1.1434,1.1434,0,0,1,.3028-.8526,1.1827,1.1827,0,0,1,.8662-.2988,1.048,1.048,0,0,1,1.1513,1.1514,1.1249,1.1249,0,0,1-.3037.831,1.1487,1.1487,0,0,1-.8476.3028,1.1761,1.1761,0,0,1-.8662-.3028A1.1244,1.1244,0,0,1,346.0781,96.5005Zm2.1885,12.2959h-2.0654V99.0757h2.0654Z" style="fill:#292929"/><path d="M353.4346,108.7964l-3.6914-9.7207h2.18l1.9775,5.6514a11.1983,11.1983,0,0,1,.6152,2.3027h.07a15.4728,15.4728,0,0,1,.6153-2.3027l1.9775-5.6514h2.1973l-3.709,9.7207Z" style="fill:#292929"/><path d="M365.0977,108.9722a4.7032,4.7032,0,0,1-3.5469-1.3223,5.0221,5.0221,0,0,1-1.2783-3.6436,5.5093,5.5093,0,0,1,1.1865-3.7441A4.0982,4.0982,0,0,1,364.72,98.9a4.0059,4.0059,0,0,1,3.041,1.1689,4.4666,4.4666,0,0,1,1.1163,3.2168v1.1163h-6.4776a3.1938,3.1938,0,0,0,.7647,2.1757,2.6626,2.6626,0,0,0,2.03.76,7.4918,7.4918,0,0,0,1.6036-.1621,8.4206,8.4206,0,0,0,1.5957-.541v1.6787a6.3489,6.3489,0,0,1-1.5293.51A9.379,9.379,0,0,1,365.0977,108.9722Zm-.378-8.5078a2.0763,2.0763,0,0,0-1.5781.624,2.9731,2.9731,0,0,0-.707,1.8193h4.4121a2.6939,2.6939,0,0,0-.58-1.8242A1.987,1.987,0,0,0,364.72,100.4644Z" style="fill:#292929"/><path d="M386.5693,102.2485a6.4009,6.4009,0,0,1-1.7666,4.8643,7.0914,7.0914,0,0,1-5.0888,1.6836h-3.5948v-12.85h3.9727a6.5734,6.5734,0,0,1,4.7725,1.6523A6.1743,6.1743,0,0,1,386.5693,102.2485Zm-2.2148.07q0-4.6141-4.3154-4.6142H378.22V107.03h1.4942Q384.3544,107.03,384.3545,102.3188Z" style="fill:#292929"/><path d="M388.9863,96.5005a1.1434,1.1434,0,0,1,.3028-.8526,1.1827,1.1827,0,0,1,.8662-.2988,1.048,1.048,0,0,1,1.1513,1.1514,1.1249,1.1249,0,0,1-.3037.831,1.1487,1.1487,0,0,1-.8476.3028,1.1761,1.1761,0,0,1-.8662-.3028A1.1244,1.1244,0,0,1,388.9863,96.5005Zm2.1885,12.2959h-2.0654V99.0757h2.0654Z" style="fill:#292929"/><path d="M399.0586,98.9a4.9711,4.9711,0,0,1,1.0283.0879l-.2021,1.9248a3.9049,3.9049,0,0,0-.9141-.1055,2.6464,2.6464,0,0,0-2.0088.8086,2.9225,2.9225,0,0,0-.7685,2.1006v5.08h-2.0655V99.0757h1.6172l.2725,1.7139h.1054a3.85,3.85,0,0,1,1.2608-1.38A2.9987,2.9987,0,0,1,399.0586,98.9Z" style="fill:#292929"/><path d="M406.1338,108.9722a4.7035,4.7035,0,0,1-3.5469-1.3223,5.0225,5.0225,0,0,1-1.2783-3.6436,5.5093,5.5093,0,0,1,1.1865-3.7441A4.0983,4.0983,0,0,1,405.7559,98.9a4.006,4.006,0,0,1,3.041,1.1689,4.467,4.467,0,0,1,1.1162,3.2168v1.1163h-6.4776a3.1938,3.1938,0,0,0,.7647,2.1757,2.6628,2.6628,0,0,0,2.03.76,7.4909,7.4909,0,0,0,1.6035-.1621,8.4206,8.4206,0,0,0,1.5957-.541v1.6787a6.3474,6.3474,0,0,1-1.5293.51A9.3783,9.3783,0,0,1,406.1338,108.9722Zm-.3779-8.5078a2.0763,2.0763,0,0,0-1.5782.624,2.9737,2.9737,0,0,0-.707,1.8193h4.4121a2.6939,2.6939,0,0,0-.58-1.8242A1.9869,1.9869,0,0,0,405.7559,100.4644Z" style="fill:#292929"/><path d="M416.18,108.9722a4.2567,4.2567,0,0,1-3.3535-1.2871,6.5294,6.5294,0,0,1,.0527-7.4668A4.4515,4.4515,0,0,1,416.3467,98.9a6.4973,6.4973,0,0,1,2.7685.5713l-.624,1.6611a6.2555,6.2555,0,0,0-2.1621-.51q-2.5224,0-2.5225,3.3486a4.0061,4.0061,0,0,0,.628,2.456,2.1739,2.1739,0,0,0,1.8418.8223,5.2829,5.2829,0,0,0,2.61-.6855v1.8017a4.08,4.08,0,0,1-1.1826.4658A7.0849,7.0849,0,0,1,416.18,108.9722Z" style="fill:#292929"/><path d="M424.793,107.3022a5.0227,5.0227,0,0,0,1.5117-.2373v1.5557a4.1778,4.1778,0,0,1-.8838.25,6.0788,6.0788,0,0,1-1.12.1016q-2.9355,0-2.9356-3.0938V100.64h-1.3271v-.914l1.4238-.7559.7031-2.0566H423.44v2.1621h2.7685V100.64H423.44v5.2032a1.4625,1.4625,0,0,0,.373,1.1035A1.3669,1.3669,0,0,0,424.793,107.3022Z" style="fill:#292929"/><path d="M436.8691,103.9185a5.3057,5.3057,0,0,1-1.2216,3.7177,4.3772,4.3772,0,0,1-3.4014,1.336,4.66,4.66,0,0,1-2.4082-.6153A4.061,4.061,0,0,1,428.23,106.59a6.0164,6.0164,0,0,1-.5625-2.6718,5.27,5.27,0,0,1,1.2129-3.6914A4.3975,4.3975,0,0,1,432.2988,98.9a4.2853,4.2853,0,0,1,3.34,1.3574A5.2485,5.2485,0,0,1,436.8691,103.9185Zm-7.0752,0q0,3.3662,2.4874,3.3662,2.4609,0,2.4609-3.3662,0-3.331-2.4785-3.3311a2.1144,2.1144,0,0,0-1.8858.8613A4.384,4.384,0,0,0,429.7939,103.9185Z" style="fill:#292929"/><path d="M444.1729,98.9a4.9718,4.9718,0,0,1,1.0283.0879l-.2022,1.9248a3.9034,3.9034,0,0,0-.914-.1055,2.6464,2.6464,0,0,0-2.0088.8086,2.9226,2.9226,0,0,0-.7686,2.1006v5.08h-2.0654V99.0757h1.6172l.2724,1.7139h.1055a3.85,3.85,0,0,1,1.2607-1.38A2.9993,2.9993,0,0,1,444.1729,98.9Z" style="fill:#292929"/><path d="M67.1274,391.1641H57.1333V390.002h8.9414v-4.41h1.0527Z" style="fill:#4b4b4b"/><path d="M63.3745,377.6016a4.1307,4.1307,0,0,1,2.86.9218,3.25,3.25,0,0,1,1.0293,2.5508,3.3741,3.3741,0,0,1-.4717,1.7832,3.1106,3.1106,0,0,1-1.3535,1.2031,4.7077,4.7077,0,0,1-2.0645.4239,4.125,4.125,0,0,1-2.8545-.916,3.2408,3.2408,0,0,1-1.0215-2.543,3.1687,3.1687,0,0,1,1.0459-2.4981A4.1172,4.1172,0,0,1,63.3745,377.6016Zm0,5.707a3.5558,3.5558,0,0,0,2.1875-.5742,2.2778,2.2778,0,0,0,.0029-3.38,3.53,3.53,0,0,0-2.19-.5772,3.4808,3.4808,0,0,0-2.1709.5772,2.032,2.032,0,0,0-.7412,1.706,2,2,0,0,0,.7314,1.6817A3.523,3.523,0,0,0,63.3745,383.3086Z" style="fill:#4b4b4b"/><path d="M67.1274,369.4941l-4.3955,1.3731q-.4028.13-1.832.4863v.0547q1.1968.2724,1.8457.4785l4.3818,1.4141v1.3125l-7.4921,2.0449v-1.1894l4.3-1.1045a17.5909,17.5909,0,0,1,1.9892-.4346v-.0547q-.39-.0747-1.0078-.2422t-.9814-.291l-4.3-1.373v-1.2305l4.3-1.34a14.3831,14.3831,0,0,1,1.9755-.5195v-.0547a7.5357,7.5357,0,0,1-.7587-.1474q-.5127-.1187-5.5166-1.4248v-1.1758l7.4921,2.07Z" style="fill:#4b4b4b"/><path d="M120.8574,440.9863v-9.9941H122.02v8.9414h4.4092v1.0527Z" style="fill:#4b4b4b"/><path d="M134.42,437.2334a4.131,4.131,0,0,1-.9228,2.86,3.2487,3.2487,0,0,1-2.55,1.0292,3.3774,3.3774,0,0,1-1.7842-.4716,3.1148,3.1148,0,0,1-1.2031-1.3535,4.7148,4.7148,0,0,1-.4239-2.0645,4.1273,4.1273,0,0,1,.916-2.8545,3.2419,3.2419,0,0,1,2.543-1.0215,3.17,3.17,0,0,1,2.4986,1.0459A4.1148,4.1148,0,0,1,134.42,437.2334Zm-5.708,0a3.5558,3.5558,0,0,0,.5742,2.1875,2.2784,2.2784,0,0,0,3.38.0029,3.5324,3.5324,0,0,0,.5776-2.19,3.4833,3.4833,0,0,0-.5776-2.1709,2.03,2.03,0,0,0-1.7056-.7412,1.9986,1.9986,0,0,0-1.6816.7314A3.5193,3.5193,0,0,0,128.7119,437.2334Z" style="fill:#4b4b4b"/><path d="M142.5273,440.9863l-1.374-4.3955q-.13-.4028-.4853-1.832h-.0547q-.2732,1.1967-.4785,1.8457l-1.4151,4.3818h-1.3125l-2.0439-7.4922h1.1894q.7243,2.8228,1.104,4.3a17.44,17.44,0,0,1,.4341,1.9893h.0547q.0754-.39.2427-1.0078.1677-.62.29-.9815l1.374-4.3h1.2305l1.34,4.3a14.522,14.522,0,0,1,.52,1.9756h.0547a7.2238,7.2238,0,0,1,.1469-.7588q.1194-.5127,1.4253-5.5166h1.1758l-2.0713,7.4922Z" style="fill:#4b4b4b"/></svg>